<?xml version="1.0" encoding="UTF-8" standalone="no"?>
<!-- Created with Inkscape (http://www.inkscape.org/) -->

<svg
   width="1167.4327mm"
   height="67.009964mm"
   viewBox="0 0 1167.4327 67.009964"
   version="1.1"
   id="svg5"
   xml:space="preserve"
   sodipodi:docname="moldura celta 1.svg"
   xmlns:inkscape="http://www.inkscape.org/namespaces/inkscape"
   xmlns:sodipodi="http://sodipodi.sourceforge.net/DTD/sodipodi-0.dtd"
   xmlns="http://www.w3.org/2000/svg"
   xmlns:svg="http://www.w3.org/2000/svg"><sodipodi:namedview
     id="namedview7"
     pagecolor="#ffffff"
     bordercolor="#000000"
     borderopacity="0.25"
     inkscape:showpageshadow="2"
     inkscape:pageopacity="0.0"
     inkscape:pagecheckerboard="0"
     inkscape:deskcolor="#d1d1d1"
     inkscape:document-units="mm"
     showgrid="false" /><defs
     id="defs2" /><g
     inkscape:label="Camada 1"
     inkscape:groupmode="layer"
     id="layer1"
     transform="translate(2150.2879,365.13248)"><g
       id="g7054"
       inkscape:export-filename="g7054.svg"
       inkscape:export-xdpi="96"
       inkscape:export-ydpi="96"><g
         id="g21303"
         transform="matrix(-1.0018311,0,0,-1,-3124.7312,306.79901)"><path
           id="path21301"
           style="fill:#000000;stroke-width:0.264583"
           sodipodi:type="inkscape:offset"
           inkscape:radius="11.590599"
           inkscape:original="M -1771.0859 612.25781 C -1773.1308 612.27658 -1775.1958 612.41829 -1776.6504 612.67969 C -1781.3395 613.52232 -1786.1722 615.61584 -1790.1113 618.51172 C -1791.3504 619.42268 -1796.5414 624.35937 -1802.5547 630.34375 C -1814.3957 642.12787 -1814.2088 641.98904 -1818.4297 642.17578 L -1820.8125 642.28125 L -1823.5898 644.99023 C -1825.1178 646.47986 -1826.7481 648.00288 -1827.2129 648.375 L -1828.0586 649.05078 L -1826.4785 649.75977 C -1825.6095 650.14975 -1824.1575 650.63783 -1823.252 650.84375 C -1820.6133 651.44385 -1815.5167 651.19657 -1812.875 650.33984 C -1808.784 649.01309 -1808.1904 648.52909 -1796.6016 637.05273 C -1790.2393 630.75205 -1785.2011 625.97977 -1784.1992 625.30664 C -1779.4463 622.11362 -1773.433 620.61329 -1768.1934 621.31055 C -1763.8615 621.88702 -1762.2197 622.57078 -1752.4316 627.88281 L -1747.2852 630.67578 L -1745.1543 629.57422 C -1743.9825 628.96833 -1741.8449 627.83137 -1740.4043 627.04883 C -1737.8252 625.64788 -1737.7947 625.62036 -1738.4199 625.23828 C -1739.2924 624.70504 -1755.0833 616.28396 -1757.0469 615.30469 C -1759.0798 614.29092 -1763.1032 613.01687 -1765.6465 612.58008 C -1767.0175 612.34462 -1769.0411 612.23905 -1771.0859 612.25781 z M -1702.082 613.4043 C -1708.8249 613.39791 -1712.9229 614.67748 -1722.0781 619.64844 C -1723.315 620.32005 -1725.4573 621.4759 -1726.8398 622.2168 C -1728.2222 622.95769 -1730.0683 623.95127 -1730.9414 624.42383 C -1733.4475 625.78017 -1737.7575 628.09648 -1750.2559 634.80859 C -1756.6588 638.24719 -1762.6713 641.34388 -1763.6172 641.68945 C -1768.8682 643.60789 -1775.2572 643.52941 -1780.4102 641.48242 C -1783.7336 640.16221 -1785.7206 638.82462 -1789.2285 635.54492 L -1790.9043 633.97656 L -1794.0898 637.16016 L -1797.2734 640.3457 L -1794.4023 642.94141 C -1792.8229 644.36945 -1790.7564 646.03894 -1789.8105 646.65039 C -1786.0143 649.10438 -1781.5739 650.87925 -1777.6152 651.52539 C -1776.5373 651.70134 -1775.4781 651.88103 -1775.2598 651.92383 C -1775.0416 651.96658 -1773.552 652.0135 -1771.9512 652.0293 C -1768.9056 652.05933 -1766.8478 651.8239 -1763.75 651.08984 C -1759.8298 650.16093 -1759.9053 650.19882 -1723.5332 630.62695 C -1722.5146 630.07882 -1719.5974 628.50558 -1717.0508 627.13086 C -1711.7764 624.28364 -1709.8096 623.44779 -1706.9961 622.85742 C -1704.1508 622.26036 -1702.1692 622.16 -1699.4551 622.47266 C -1693.7766 623.12683 -1689.3426 625.32738 -1684.6953 629.80078 L -1682.9004 631.5293 L -1679.7168 628.36914 L -1676.5332 625.20703 L -1678.8672 622.99219 C -1685.7791 616.42818 -1693.077 613.4133 -1702.082 613.4043 z M -1584.9395 613.70898 C -1586.9843 613.72775 -1589.0493 613.86946 -1590.5039 614.13086 C -1595.193 614.97349 -1600.0238 617.06701 -1603.9629 619.96289 C -1605.202 620.87385 -1610.3949 625.81054 -1616.4082 631.79492 C -1628.2492 643.57904 -1628.0623 643.44021 -1632.2832 643.62695 L -1634.6641 643.73242 L -1637.4434 646.44141 C -1638.9714 647.93104 -1640.6016 649.45405 -1641.0664 649.82617 L -1641.9121 650.50195 L -1640.332 651.21094 C -1639.463 651.60092 -1638.011 652.089 -1637.1055 652.29492 C -1634.4668 652.89502 -1629.3683 652.64775 -1626.7266 651.79102 C -1622.6356 650.46427 -1622.0439 649.98027 -1610.4551 638.50391 C -1604.0928 632.20323 -1599.0546 627.43094 -1598.0527 626.75781 C -1593.2998 623.56479 -1587.2865 622.06251 -1582.0469 622.75977 C -1577.715 623.33624 -1576.0713 624.02195 -1566.2832 629.33398 L -1561.1387 632.12695 L -1559.0078 631.02539 C -1557.836 630.4195 -1555.6984 629.28254 -1554.2578 628.5 C -1551.6787 627.09905 -1551.6482 627.07153 -1552.2734 626.68945 C -1553.1459 626.15621 -1568.9368 617.73513 -1570.9004 616.75586 C -1572.9333 615.74209 -1576.9567 614.46609 -1579.5 614.0293 C -1580.871 613.79384 -1582.8946 613.69022 -1584.9395 613.70898 z M -1397.582 613.71875 C -1399.6269 613.73751 -1401.6919 613.87923 -1403.1465 614.14062 C -1407.8356 614.98325 -1412.6683 617.07678 -1416.6074 619.97266 C -1417.8465 620.88362 -1423.0375 625.82031 -1429.0508 631.80469 C -1440.8918 643.58881 -1440.7049 643.44998 -1444.9258 643.63672 L -1447.3086 643.74219 L -1450.0859 646.45117 C -1451.6139 647.9408 -1453.2442 649.46382 -1453.709 649.83594 L -1454.5547 650.51172 L -1452.9746 651.2207 C -1452.1056 651.61068 -1450.6535 652.09877 -1449.748 652.30469 C -1447.1093 652.90479 -1442.0128 652.65751 -1439.3711 651.80078 C -1435.2801 650.47403 -1434.6865 649.99003 -1423.0977 638.51367 C -1416.7354 632.21299 -1411.6972 627.44071 -1410.6953 626.76758 C -1405.9424 623.57456 -1399.9291 622.07422 -1394.6895 622.77148 C -1390.3576 623.34795 -1388.7158 624.03172 -1378.9277 629.34375 L -1373.7812 632.13672 L -1371.6504 631.03516 C -1370.4786 630.42927 -1368.341 629.29231 -1366.9004 628.50977 C -1364.3213 627.10882 -1364.2908 627.0813 -1364.916 626.69922 C -1365.7885 626.16598 -1381.5794 617.7449 -1383.543 616.76562 C -1385.5759 615.75186 -1389.5993 614.47781 -1392.1426 614.04102 C -1393.5136 613.80556 -1395.5372 613.69999 -1397.582 613.71875 z M -2008.2715 614.13867 C -2011.0298 614.12933 -2012.6992 614.37172 -2014.8301 615.0918 C -2018.436 616.31026 -2020.4004 617.80737 -2026.498 623.98438 C -2032.3055 629.86741 -2032.5681 630.29769 -2032.5391 633.86523 C -2032.5169 636.64184 -2031.9422 637.8876 -2029.4922 640.4668 C -2027.9492 642.09124 -2027.4771 642.44353 -2027.0273 642.30469 C -2025.6887 641.89157 -2024.4758 641.05864 -2022.418 639.14258 L -2020.2168 637.09375 L -2021.6895 635.60352 C -2022.4999 634.78453 -2023.1641 633.93466 -2023.1641 633.71484 C -2023.1641 633.09463 -2014.7297 624.88158 -2013.4121 624.21875 C -2011.5314 623.27265 -2009.0379 622.86448 -2006.9531 623.16016 C -2004.0108 623.57746 -2002.5939 624.49727 -1998.4297 628.6875 C -1996.3944 630.73555 -1994.605 632.41016 -1994.4551 632.41016 C -1994.3053 632.41016 -1992.8156 631.03526 -1991.1445 629.35547 L -1988.1074 626.30273 L -1992.6133 621.84961 C -1996.8461 617.66744 -1997.272 617.32346 -1999.625 616.18164 C -2002.7374 614.67131 -2004.9442 614.14997 -2008.2715 614.13867 z M -2029.0332 614.16797 C -2031.5308 614.06493 -2034.0424 614.38191 -2036.1973 615.13477 C -2040.3122 616.5724 -2040.769 616.9479 -2052.2676 628.33398 C -2058.268 634.2757 -2063.6813 639.41332 -2064.5703 640.00781 C -2070.7607 644.14762 -2077.9959 645.23643 -2084.9434 643.07617 C -2086.9622 642.44847 -2100.7401 635.35311 -2102.082 634.25 C -2102.6708 633.7659 -2102.6714 633.76595 -2102.1426 633.25586 C -2101.8516 632.97512 -2100.3038 632.05124 -2098.7031 631.20312 C -2097.1023 630.355 -2094.7199 629.08117 -2093.4102 628.37305 C -2089.1944 626.09369 -2085.7777 624.51978 -2084.1504 624.10742 C -2078.4798 622.6705 -2073.0476 623.1514 -2067.9238 625.54492 C -2065.2119 626.81175 -2063.5874 627.9712 -2060.9258 630.53516 L -2058.8652 632.51758 L -2055.6836 629.35547 L -2052.502 626.19336 L -2054.9023 623.88281 C -2059.9905 618.98426 -2065.7943 615.94742 -2072.2129 614.82812 C -2075.2168 614.30411 -2080.6394 614.30382 -2083.6348 614.82617 C -2088.7307 615.71481 -2089.5769 616.10785 -2109.6816 626.95703 C -2112.8103 628.64539 -2116.8888 630.82906 -2118.7441 631.80859 C -2120.5995 632.78811 -2122.1133 633.65252 -2122.1133 633.72852 C -2122.1103 633.80448 -2120.889 634.50656 -2119.4004 635.28906 C -2117.9118 636.07157 -2111.0663 639.73662 -2104.1875 643.43359 C -2097.3086 647.13056 -2090.7694 650.50497 -2089.6562 650.93359 C -2087.9072 651.60706 -2084.6194 652.49652 -2082.4297 652.88867 C -2082.0659 652.95377 -2079.6853 652.97133 -2077.1387 652.92773 C -2071.8705 652.83747 -2069.3598 652.32359 -2064.9941 650.44141 C -2059.9361 648.26077 -2058.1547 646.79521 -2046.5801 635.30664 C -2040.7593 629.52904 -2035.595 624.60005 -2035.1055 624.35156 C -2033.3006 623.43532 -2031.9865 623.11795 -2030.0273 623.12695 L -2028.0293 623.13672 L -2026.1914 621.28711 C -2025.181 620.27034 -2023.5409 618.72364 -2022.5469 617.84961 L -2020.7402 616.25977 L -2021.9531 615.72266 C -2024.0518 614.79431 -2026.5357 614.27101 -2029.0332 614.16797 z M -1819.1914 614.17578 C -1823.6868 613.77011 -1828.374 614.87723 -1832.0527 617.33984 C -1834.1248 618.72694 -1843.7107 628.38032 -1844.5215 629.89648 C -1845.1456 631.06383 -1845.2305 631.51446 -1845.2305 633.73242 C -1845.2312 636.83208 -1844.8047 637.76096 -1842.1035 640.54883 C -1840.6315 642.06803 -1840.1267 642.43713 -1839.6934 642.30859 C -1838.4776 641.9479 -1836.9289 640.8148 -1835.0527 638.91406 L -1833.0762 636.91016 L -1834.457 635.51172 C -1835.2166 634.74249 -1835.8379 633.9343 -1835.8379 633.71484 C -1835.8379 633.49539 -1833.9024 631.39249 -1831.5352 629.04102 C -1828.1628 625.69094 -1826.9064 624.61558 -1825.7324 624.07812 C -1822.7053 622.69203 -1819.6051 622.69214 -1816.582 624.07617 C -1815.4267 624.60508 -1814.1885 625.65004 -1811.1699 628.64453 L -1807.2559 632.52734 L -1804.084 629.36328 L -1800.9121 626.19922 L -1804.6836 622.4043 C -1809.3103 617.74692 -1811.3876 616.2465 -1814.8047 615.0918 C -1816.2164 614.61475 -1817.693 614.311 -1819.1914 614.17578 z M -1844.623 614.26367 C -1848.0134 614.57854 -1851.2701 615.67322 -1853.752 617.48828 C -1854.3045 617.89239 -1859.3408 622.76142 -1864.9434 628.30859 C -1875.5876 638.84759 -1876.2145 639.4186 -1878.8965 640.99023 C -1883.7123 643.81235 -1889.9523 644.81231 -1895.5 643.65234 C -1898.4742 643.03045 -1899.9097 642.39395 -1907.4375 638.35547 C -1911.0912 636.39533 -1914.1976 634.79102 -1914.3398 634.79102 C -1914.8841 634.79102 -1923.6984 639.64003 -1923.4961 639.82812 C -1922.883 640.39811 -1904.0813 650.29334 -1902.3242 650.9707 C -1899.7094 651.97869 -1896.4348 652.76005 -1893.832 652.99609 C -1887.6243 653.55906 -1881.7228 652.45826 -1876.2344 649.71484 C -1871.5209 647.35876 -1870.7829 646.72718 -1858.5938 634.63672 C -1853.1367 629.22387 -1848.2707 624.59433 -1847.7812 624.34766 C -1846.0163 623.45824 -1844.7171 623.14455 -1842.7129 623.12305 L -1840.6738 623.10156 L -1838.3223 620.7168 C -1837.0291 619.40519 -1835.3953 617.86719 -1834.6914 617.30078 L -1833.4121 616.27148 L -1834.6914 615.71875 C -1837.7089 614.41442 -1841.2327 613.9488 -1844.623 614.26367 z M -1960.6055 614.3418 C -1962.6503 614.36056 -1964.7173 614.50423 -1966.1719 614.76562 C -1970.861 615.60825 -1975.6918 617.70178 -1979.6309 620.59766 C -1980.87 621.50862 -1986.0629 626.44531 -1992.0762 632.42969 C -2003.9172 644.21381 -2003.7303 644.07498 -2007.9512 644.26172 L -2010.332 644.36719 L -2013.1094 647.07617 C -2014.6374 648.5658 -2016.2676 650.08882 -2016.7324 650.46094 L -2017.5781 651.13672 L -2015.998 651.8457 C -2015.129 652.23568 -2013.677 652.72377 -2012.7715 652.92969 C -2010.1328 653.52979 -2005.0362 653.28251 -2002.3945 652.42578 C -1998.3035 651.09903 -1997.7118 650.61503 -1986.123 639.13867 C -1979.7607 632.83799 -1974.7206 628.06571 -1973.7188 627.39258 C -1968.9659 624.19956 -1962.9525 622.69727 -1957.7129 623.39453 C -1953.381 623.971 -1951.7393 624.65672 -1941.9512 629.96875 L -1936.8047 632.76172 L -1934.6738 631.66016 C -1933.502 631.05427 -1931.3644 629.91731 -1929.9238 629.13477 C -1927.3447 627.73382 -1927.3143 627.7063 -1927.9395 627.32422 C -1928.812 626.79098 -1944.6028 618.3699 -1946.5664 617.39062 C -1948.5993 616.37685 -1952.6227 615.10085 -1955.166 614.66406 C -1956.5371 614.4286 -1958.5606 614.32303 -1960.6055 614.3418 z M -1631.6289 614.3457 C -1636.1243 613.94003 -1640.8115 615.04715 -1644.4902 617.50977 C -1646.5623 618.89687 -1656.1482 628.55025 -1656.959 630.06641 C -1657.5831 631.23376 -1657.668 631.68634 -1657.668 633.9043 C -1657.6687 637.00396 -1657.2422 637.93088 -1654.541 640.71875 C -1653.069 642.23795 -1652.5661 642.60706 -1652.1328 642.47852 C -1650.917 642.11783 -1649.3664 640.98472 -1647.4902 639.08398 L -1645.5137 637.08203 L -1646.8945 635.68359 C -1647.6541 634.91436 -1648.2773 634.10423 -1648.2773 633.88477 C -1648.2773 633.66532 -1646.3399 631.56241 -1643.9727 629.21094 C -1640.6003 625.86086 -1639.3439 624.78745 -1638.1699 624.25 C -1635.1428 622.86391 -1632.0426 622.86206 -1629.0195 624.24609 C -1627.8642 624.775 -1626.626 625.81996 -1623.6074 628.81445 L -1619.6953 632.69727 L -1616.5234 629.5332 L -1613.3516 626.37109 L -1617.1211 622.57422 C -1621.7478 617.91684 -1623.8251 616.41642 -1627.2422 615.26172 C -1628.6539 614.78467 -1630.1305 614.48093 -1631.6289 614.3457 z M -1656.8496 614.35938 C -1660.24 614.67424 -1663.4967 615.76892 -1665.9785 617.58398 C -1666.531 617.98809 -1671.5673 622.85713 -1677.1699 628.4043 C -1687.8141 638.9433 -1688.4391 639.51235 -1691.1211 641.08398 C -1695.9369 643.9061 -1702.1789 644.90802 -1707.7266 643.74805 C -1710.7008 643.12616 -1712.1363 642.48965 -1719.6641 638.45117 C -1723.3178 636.49103 -1726.4223 634.88672 -1726.5645 634.88672 C -1727.1088 634.88672 -1735.925 639.73573 -1735.7227 639.92383 C -1735.1096 640.49382 -1716.3079 650.38905 -1714.5508 651.06641 C -1711.936 652.0744 -1708.6594 652.85576 -1706.0566 653.0918 C -1699.8489 653.65477 -1693.9493 652.55397 -1688.4609 649.81055 C -1683.7474 647.45447 -1683.0075 646.82288 -1670.8184 634.73242 C -1665.3613 629.31957 -1660.4973 624.69003 -1660.0078 624.44336 C -1658.2429 623.55394 -1656.9437 623.24025 -1654.9395 623.21875 L -1652.9004 623.19531 L -1650.5488 620.81055 C -1649.2556 619.49894 -1647.6219 617.96289 -1646.918 617.39648 L -1645.6367 616.36719 L -1646.918 615.81445 C -1649.9354 614.51012 -1653.4593 614.04451 -1656.8496 614.35938 z M -1890.7207 614.39062 C -1897.4636 614.38424 -1901.5616 615.66381 -1910.7168 620.63477 C -1911.9537 621.30638 -1914.096 622.46222 -1915.4785 623.20312 C -1916.8609 623.94401 -1918.707 624.93564 -1919.5801 625.4082 C -1922.0862 626.76454 -1926.3961 629.08281 -1938.8945 635.79492 C -1945.2974 639.23352 -1951.31 642.33021 -1952.2559 642.67578 C -1957.5069 644.59422 -1963.8958 644.51574 -1969.0488 642.46875 C -1972.3722 641.14854 -1974.3573 639.81095 -1977.8652 636.53125 L -1979.543 634.96289 L -1982.7285 638.14648 L -1985.9121 641.33203 L -1983.041 643.92773 C -1981.4616 645.35577 -1979.3951 647.02527 -1978.4492 647.63672 C -1974.653 650.09071 -1970.2126 651.86558 -1966.2539 652.51172 C -1965.176 652.68767 -1964.1148 652.8654 -1963.8965 652.9082 C -1963.6783 652.95095 -1962.1906 652.99982 -1960.5898 653.01562 C -1957.5442 653.04566 -1955.4865 652.81023 -1952.3887 652.07617 C -1948.4685 651.14726 -1948.544 651.18515 -1912.1719 631.61328 C -1911.1533 631.06515 -1908.2361 629.49191 -1905.6895 628.11719 C -1900.4151 625.26997 -1898.4483 624.43412 -1895.6348 623.84375 C -1892.7895 623.24669 -1890.8078 623.14437 -1888.0938 623.45703 C -1882.4153 624.1112 -1877.9813 626.31371 -1873.334 630.78711 L -1871.5391 632.51562 L -1868.3555 629.35352 L -1865.1719 626.19336 L -1867.5039 623.97656 C -1874.4158 617.41255 -1881.7157 614.39963 -1890.7207 614.39062 z M -1515.9355 614.85547 C -1522.6784 614.84908 -1526.7764 616.12865 -1535.9316 621.09961 C -1537.1685 621.77122 -1539.3109 622.92707 -1540.6934 623.66797 C -1542.0758 624.40886 -1543.9218 625.40049 -1544.7949 625.87305 C -1547.301 627.22939 -1551.611 629.54766 -1564.1094 636.25977 C -1570.5123 639.69837 -1576.5248 642.79506 -1577.4707 643.14062 C -1582.7217 645.05906 -1589.1107 644.98058 -1594.2637 642.93359 C -1597.5871 641.61338 -1599.5722 640.27579 -1603.0801 636.99609 L -1604.7578 635.42773 L -1607.9434 638.61133 L -1611.127 641.79688 L -1608.2559 644.39258 C -1606.6765 645.82062 -1604.61 647.49011 -1603.6641 648.10156 C -1599.8679 650.55555 -1595.4274 652.33042 -1591.4688 652.97656 C -1590.3909 653.15251 -1589.3296 653.33025 -1589.1113 653.37305 C -1588.8931 653.4158 -1587.4055 653.46467 -1585.8047 653.48047 C -1582.7591 653.5105 -1580.7013 653.27508 -1577.6035 652.54102 C -1573.6833 651.61211 -1573.7588 651.64999 -1537.3867 632.07812 C -1536.3681 631.53 -1533.4509 629.95675 -1530.9043 628.58203 C -1525.6299 625.73481 -1523.6631 624.89896 -1520.8496 624.30859 C -1518.0043 623.71153 -1516.0227 623.60921 -1513.3086 623.92188 C -1507.6301 624.57604 -1503.1961 626.77855 -1498.5488 631.25195 L -1496.7539 632.98047 L -1493.5703 629.81836 L -1490.3867 626.6582 L -1492.7207 624.44141 C -1499.6326 617.8774 -1506.9305 614.86447 -1515.9355 614.85547 z M -1328.5781 614.86523 C -1335.321 614.85884 -1339.419 616.13842 -1348.5742 621.10938 C -1349.8111 621.78098 -1351.9534 622.93683 -1353.3359 623.67773 C -1354.7183 624.41862 -1356.5644 625.41025 -1357.4375 625.88281 C -1359.9436 627.23915 -1364.2536 629.55742 -1376.752 636.26953 C -1383.1549 639.70813 -1389.1674 642.80482 -1390.1133 643.15039 C -1395.3643 645.06883 -1401.7532 644.99035 -1406.9062 642.94336 C -1410.2296 641.62315 -1412.2167 640.28556 -1415.7246 637.00586 L -1417.4004 635.4375 L -1420.5859 638.62109 L -1423.7695 641.80664 L -1420.8984 644.40234 C -1419.319 645.83038 -1417.2525 647.49988 -1416.3066 648.11133 C -1412.5104 650.56532 -1408.07 652.34019 -1404.1113 652.98633 C -1403.0334 653.16228 -1401.9742 653.34001 -1401.7559 653.38281 C -1401.5377 653.42556 -1400.0481 653.47443 -1398.4473 653.49023 C -1395.4017 653.52026 -1393.3439 653.28484 -1390.2461 652.55078 C -1386.3259 651.62187 -1386.4014 651.65976 -1350.0293 632.08789 C -1349.0107 631.53976 -1346.0935 629.96652 -1343.5469 628.5918 C -1338.2725 625.74458 -1336.3057 624.90873 -1333.4922 624.31836 C -1330.6469 623.7213 -1328.6653 623.62093 -1325.9512 623.93359 C -1320.2727 624.58776 -1315.8387 626.78832 -1311.1914 631.26172 L -1309.3965 632.99023 L -1306.2129 629.82812 L -1303.0293 626.66797 L -1305.3633 624.45117 C -1312.2752 617.88716 -1319.5731 614.87423 -1328.5781 614.86523 z M -1211.3047 615.00977 C -1213.3495 615.02853 -1215.4145 615.1722 -1216.8691 615.43359 C -1221.5582 616.27622 -1226.389 618.36974 -1230.3281 621.26562 C -1231.5672 622.17659 -1236.7601 627.11328 -1242.7734 633.09766 C -1254.6144 644.88178 -1254.4275 644.74295 -1258.6484 644.92969 L -1261.0293 645.03516 L -1263.8086 647.74219 C -1265.3366 649.23182 -1266.9668 650.75679 -1267.4316 651.12891 L -1268.2754 651.80469 L -1266.6953 652.51367 C -1265.8263 652.90365 -1264.3743 653.39174 -1263.4688 653.59766 C -1260.8301 654.19776 -1255.7335 653.95048 -1253.0918 653.09375 C -1249.0008 651.767 -1248.4091 651.283 -1236.8203 639.80664 C -1230.458 633.50596 -1225.4199 628.73368 -1224.418 628.06055 C -1219.6651 624.86753 -1213.6498 623.36524 -1208.4102 624.0625 C -1204.0783 624.63897 -1202.4365 625.32469 -1192.6484 630.63672 L -1187.5039 633.42969 L -1185.373 632.32617 C -1184.2012 631.72028 -1182.0636 630.58527 -1180.623 629.80273 C -1178.0439 628.40178 -1178.0135 628.37427 -1178.6387 627.99219 C -1179.5112 627.45895 -1195.302 619.03786 -1197.2656 618.05859 C -1199.2985 617.04482 -1203.32 615.76882 -1205.8633 615.33203 C -1207.2343 615.09657 -1209.2599 614.991 -1211.3047 615.00977 z M -1445.4824 615.79688 C -1449.9778 615.39121 -1454.665 616.49832 -1458.3438 618.96094 C -1460.4159 620.34804 -1470.0017 630.00142 -1470.8125 631.51758 C -1471.4366 632.68493 -1471.5195 633.13556 -1471.5195 635.35352 C -1471.5202 638.45318 -1471.0957 639.38205 -1468.3945 642.16992 C -1466.9225 643.68912 -1466.4177 644.05823 -1465.9844 643.92969 C -1464.7686 643.569 -1463.2199 642.4359 -1461.3438 640.53516 L -1459.3672 638.53125 L -1460.748 637.13281 C -1461.5076 636.36358 -1462.1289 635.5554 -1462.1289 635.33594 C -1462.1289 635.11649 -1460.1934 633.01358 -1457.8262 630.66211 C -1454.4538 627.31203 -1453.1974 626.23667 -1452.0234 625.69922 C -1448.9963 624.31313 -1445.8961 624.31324 -1442.873 625.69727 C -1441.7177 626.22618 -1440.4795 627.27113 -1437.4609 630.26562 L -1433.5469 634.14844 L -1430.375 630.98438 L -1427.2031 627.82227 L -1430.9746 624.02539 C -1435.6013 619.36801 -1437.6786 617.86759 -1441.0957 616.71289 C -1442.5075 616.23584 -1443.984 615.9321 -1445.4824 615.79688 z M -1258.125 615.80664 C -1262.6204 615.40097 -1267.3076 616.50809 -1270.9863 618.9707 C -1273.0584 620.3578 -1282.6443 630.01118 -1283.4551 631.52734 C -1284.0792 632.69469 -1284.1641 633.14727 -1284.1641 635.36523 C -1284.1648 638.46489 -1283.7383 639.39182 -1281.0371 642.17969 C -1279.5651 643.69889 -1279.0603 644.06799 -1278.627 643.93945 C -1277.4112 643.57876 -1275.8625 642.44566 -1273.9863 640.54492 L -1272.0098 638.54297 L -1273.3906 637.14258 C -1274.1502 636.37335 -1274.7734 635.56516 -1274.7734 635.3457 C -1274.7734 635.12625 -1272.8359 633.02334 -1270.4688 630.67188 C -1267.0964 627.32179 -1265.84 626.24839 -1264.666 625.71094 C -1261.6389 624.32485 -1258.5387 624.323 -1255.5156 625.70703 C -1254.3603 626.23594 -1253.1221 627.2809 -1250.1035 630.27539 L -1246.1895 634.1582 L -1243.0195 630.99414 L -1239.8477 627.83203 L -1243.6172 624.03516 C -1248.2439 619.37778 -1250.3212 617.87736 -1253.7383 616.72266 C -1255.15 616.24561 -1256.6265 615.94186 -1258.125 615.80664 z M -1470.7031 615.81055 C -1474.0935 616.12541 -1477.3502 617.22009 -1479.832 619.03516 C -1480.3845 619.43927 -1485.4189 624.3083 -1491.0215 629.85547 C -1501.6657 640.39447 -1502.2926 640.96353 -1504.9746 642.53516 C -1509.7904 645.35728 -1516.0324 646.35919 -1521.5801 645.19922 C -1524.5543 644.57733 -1525.9878 643.94082 -1533.5156 639.90234 C -1537.1693 637.9422 -1540.2758 636.33789 -1540.418 636.33789 C -1540.9623 636.33789 -1549.7785 641.1869 -1549.5762 641.375 C -1548.9631 641.94499 -1530.1614 651.84022 -1528.4043 652.51758 C -1525.7895 653.52557 -1522.513 654.30498 -1519.9102 654.54102 C -1513.7025 655.10399 -1507.8009 654.00514 -1502.3125 651.26172 C -1497.599 648.90564 -1496.861 648.27405 -1484.6719 636.18359 C -1479.2148 630.77074 -1474.3489 626.13925 -1473.8594 625.89258 C -1472.0945 625.00316 -1470.7972 624.68947 -1468.793 624.66797 L -1466.7539 624.64648 L -1464.4023 622.26172 C -1463.1091 620.95011 -1461.4734 619.41407 -1460.7695 618.84766 L -1459.4902 617.81836 L -1460.7695 617.26367 C -1463.787 615.95934 -1467.3128 615.49568 -1470.7031 615.81055 z M -1283.3457 615.82031 C -1286.7361 616.13518 -1289.9927 617.22986 -1292.4746 619.04492 C -1293.0271 619.44903 -1298.0634 624.31806 -1303.666 629.86523 C -1314.3102 640.40423 -1314.9352 640.97329 -1317.6172 642.54492 C -1322.433 645.36704 -1328.675 646.36895 -1334.2227 645.20898 C -1337.1969 644.58709 -1338.6324 643.95059 -1346.1602 639.91211 C -1349.8139 637.95197 -1352.9183 636.34766 -1353.0605 636.34766 C -1353.6048 636.34766 -1362.421 641.19667 -1362.2188 641.38477 C -1361.6056 641.95476 -1342.804 651.84998 -1341.0469 652.52734 C -1338.4321 653.53533 -1335.1555 654.31669 -1332.5527 654.55273 C -1326.345 655.1157 -1320.4454 654.0149 -1314.957 651.27148 C -1310.2435 648.9154 -1309.5036 648.28382 -1297.3145 636.19336 C -1291.8574 630.78051 -1286.9934 626.15097 -1286.5039 625.9043 C -1284.739 625.01488 -1283.4397 624.70119 -1281.4355 624.67969 L -1279.3965 624.65625 L -1277.0449 622.27148 C -1275.7517 620.95987 -1274.118 619.42383 -1273.4141 618.85742 L -1272.1328 617.82812 L -1273.4141 617.27539 C -1276.4315 615.97106 -1279.9553 615.50545 -1283.3457 615.82031 z M -1027.9297 615.82812 C -1033.0981 616.44148 -1038.145 618.31387 -1042.6855 621.39844 C -1044.033 622.31385 -1048.1149 626.16417 -1055.4043 633.39648 C -1067.723 645.61882 -1067.3563 645.34726 -1071.8359 645.62305 L -1074.3965 645.7793 L -1077.8457 649.16797 L -1081.293 652.55469 L -1080.0996 653.06641 C -1078.8609 653.59735 -1076.6428 654.26914 -1075.4941 654.46094 C -1075.1303 654.52172 -1073.7388 654.58762 -1072.4023 654.60742 C -1068.4104 654.66661 -1064.9086 653.68547 -1061.5371 651.5625 C -1060.5908 650.96662 -1056.0179 646.63478 -1049.4336 640.09766 C -1043.6127 634.31857 -1038.2856 629.20913 -1037.5957 628.74414 C -1031.4714 624.6161 -1024.0313 623.5081 -1017.1152 625.69531 C -1015.0114 626.36065 -1001.739 633.22957 -1000.166 634.4668 L -999.42578 635.04883 L -999.98828 635.53516 C -1001.068 636.46976 -1014.5238 643.49859 -1016.4922 644.15625 C -1019.5851 645.18959 -1021.7767 645.47446 -1025.3418 645.30469 C -1031.6197 645.00573 -1036.2856 642.9304 -1041.1777 638.26172 L -1043.2422 636.29102 L -1046.4023 639.44141 L -1049.5605 642.59375 L -1048.041 644.14844 C -1043.4206 648.87605 -1037.1588 652.35868 -1030.7793 653.75 C -1029.0553 654.126 -1027.4498 654.23942 -1023.9004 654.23242 C -1016.7356 654.21875 -1013.7363 653.30798 -1004.6406 648.38086 C -1001.4632 646.65967 -994.61713 642.9895 -989.42773 640.22461 C -984.23823 637.45971 -979.99414 635.13725 -979.99414 635.06445 C -979.99634 634.79126 -1010.5532 618.54757 -1012.4512 617.81055 C -1017.4726 615.86073 -1022.7612 615.21477 -1027.9297 615.82812 z M -1142.3008 616.1582 C -1149.0437 616.15181 -1153.1397 617.43138 -1162.2949 622.40234 C -1163.5318 623.07395 -1165.6761 624.2298 -1167.0586 624.9707 C -1168.441 625.71159 -1170.2871 626.70322 -1171.1602 627.17578 C -1173.6663 628.53212 -1177.9762 630.85039 -1190.4746 637.5625 C -1196.8775 641.0011 -1202.89 644.09779 -1203.8359 644.44336 C -1209.0869 646.3618 -1215.4759 646.28137 -1220.6289 644.23438 C -1223.9523 642.91417 -1225.9374 641.57853 -1229.4453 638.29883 L -1231.123 636.73047 L -1234.3066 639.91406 L -1237.4922 643.09766 L -1234.6211 645.69531 C -1233.0417 647.12335 -1230.9752 648.79089 -1230.0293 649.40234 C -1226.2331 651.85633 -1221.7927 653.63316 -1217.834 654.2793 C -1216.7561 654.45525 -1215.6949 654.63298 -1215.4766 654.67578 C -1215.2584 654.71853 -1213.7707 654.7674 -1212.1699 654.7832 C -1209.1243 654.81323 -1207.0646 654.57586 -1203.9668 653.8418 C -1200.0466 652.91289 -1200.1221 652.95273 -1163.75 633.38086 C -1162.7314 632.83273 -1159.8161 631.25949 -1157.2695 629.88477 C -1151.9951 627.03755 -1150.0283 626.2017 -1147.2148 625.61133 C -1144.3695 625.01427 -1142.3879 624.91195 -1139.6738 625.22461 C -1133.9953 625.87878 -1129.5614 628.08129 -1124.9141 632.55469 L -1123.1191 634.2832 L -1119.9355 631.12109 L -1116.752 627.96094 L -1119.084 625.74414 C -1125.9959 619.18013 -1133.2958 616.1672 -1142.3008 616.1582 z M -1071.8477 617.09961 C -1076.343 616.69394 -1081.0283 617.80105 -1084.707 620.26367 C -1086.7791 621.65077 -1096.3669 631.30415 -1097.1777 632.82031 C -1097.8018 633.98766 -1097.8848 634.43829 -1097.8848 636.65625 C -1097.8855 639.75591 -1097.461 640.68479 -1094.7598 643.47266 C -1093.2878 644.99186 -1092.7829 645.35901 -1092.3496 645.23047 C -1091.1338 644.86978 -1089.5852 643.73668 -1087.709 641.83594 L -1085.7324 639.83398 L -1087.1133 638.43555 C -1087.8729 637.66632 -1088.4941 636.85813 -1088.4941 636.63867 C -1088.4941 636.41922 -1086.5586 634.31631 -1084.1914 631.96484 C -1080.819 628.61476 -1079.5627 627.5394 -1078.3887 627.00195 C -1075.3616 625.61586 -1072.2614 625.61597 -1069.2383 627 C -1068.083 627.52891 -1066.8448 628.57387 -1063.8262 631.56836 L -1059.9121 635.45117 L -1056.7402 632.28711 L -1053.5684 629.12305 L -1057.3398 625.32812 C -1061.9665 620.67074 -1064.0438 619.17033 -1067.4609 618.01562 C -1068.8727 617.53858 -1070.3492 617.23483 -1071.8477 617.09961 z M -1097.0664 617.11328 C -1100.4568 617.42815 -1103.7135 618.52283 -1106.1953 620.33789 C -1106.7478 620.742 -1111.7841 625.61103 -1117.3867 631.1582 C -1128.0309 641.6972 -1128.6578 642.26626 -1131.3398 643.83789 C -1136.1556 646.66001 -1142.3976 647.65997 -1147.9453 646.5 C -1150.9195 645.87811 -1152.3531 645.24161 -1159.8809 641.20312 C -1163.5346 639.24299 -1166.641 637.64062 -1166.7832 637.64062 C -1167.3275 637.64063 -1176.1437 642.48963 -1175.9414 642.67773 C -1175.3283 643.24772 -1156.5247 653.141 -1154.7676 653.81836 C -1152.1528 654.82635 -1148.8782 655.60771 -1146.2754 655.84375 C -1140.0677 656.40672 -1134.1661 655.30787 -1128.6777 652.56445 C -1123.9642 650.20837 -1123.2262 649.57679 -1111.0371 637.48633 C -1105.58 632.07348 -1100.7141 627.44198 -1100.2246 627.19531 C -1098.4597 626.30589 -1097.1624 625.9922 -1095.1582 625.9707 L -1093.1172 625.94922 L -1090.7656 623.56445 C -1089.4724 622.25284 -1087.8387 620.7168 -1087.1348 620.15039 L -1085.8555 619.12109 L -1087.1348 618.56641 C -1090.1522 617.26207 -1093.6761 616.79841 -1097.0664 617.11328 z M -1635.4863 624.56445 L -1636.957 625.28516 C -1638.4298 626.00715 -1642.4121 629.52022 -1642.4121 630.09766 C -1642.4121 630.26653 -1641.8174 630.99232 -1641.0898 631.70898 C -1640.3622 632.42564 -1639.7676 633.20002 -1639.7676 633.42969 C -1639.7676 633.94733 -1647.7566 641.86891 -1649.0273 642.61133 C -1650.8649 643.68495 -1652.6374 644.08156 -1655.0762 643.96289 C -1658.7039 643.78636 -1659.7325 643.18294 -1664.5059 638.44531 L -1668.4883 634.49414 L -1671.6523 637.66602 L -1674.8164 640.83789 L -1671.1152 644.5625 C -1669.08 646.61108 -1666.668 648.82687 -1665.7539 649.48633 C -1663.8506 650.85938 -1661.1709 652.05486 -1658.7598 652.60742 C -1656.4544 653.13575 -1651.3202 652.95939 -1649.0254 652.27344 C -1644.8154 651.015 -1642.5369 649.3681 -1636.4414 643.17773 C -1630.774 637.42209 -1630.3909 636.80404 -1630.3809 633.42773 C -1630.3726 630.55031 -1630.9611 629.28391 -1633.5781 626.55469 L -1635.4863 624.56445 z M -1823.6211 624.86914 L -1825.0918 625.58984 C -1826.5646 626.31183 -1830.5469 629.82686 -1830.5469 630.4043 C -1830.5469 630.57317 -1829.9522 631.29701 -1829.2246 632.01367 C -1828.497 632.73033 -1827.9004 633.5047 -1827.9004 633.73438 C -1827.9004 634.25202 -1835.8914 642.1736 -1837.1621 642.91602 C -1838.9997 643.98964 -1840.7721 644.38625 -1843.2109 644.26758 C -1846.8386 644.09105 -1847.8672 643.48958 -1852.6406 638.75195 L -1856.623 634.79883 L -1859.7871 637.9707 L -1862.9512 641.14258 L -1859.25 644.86719 C -1857.2148 646.91577 -1854.8028 649.13156 -1853.8887 649.79102 C -1851.9854 651.16407 -1849.3056 652.35955 -1846.8945 652.91211 C -1844.5891 653.44044 -1839.455 653.26408 -1837.1602 652.57812 C -1832.9502 651.31969 -1830.6717 649.67279 -1824.5762 643.48242 C -1818.9088 637.72678 -1818.5256 637.10873 -1818.5156 633.73242 C -1818.5073 630.855 -1819.0959 629.5886 -1821.7129 626.85938 L -1823.6211 624.86914 z M -2010.9746 624.90234 L -2012.2773 625.51367 C -2013.0713 625.88558 -2014.4428 626.9904 -2015.7852 628.33984 L -2017.9902 630.55469 L -2016.6074 631.95508 C -2015.8475 632.72453 -2015.2266 633.53249 -2015.2266 633.75195 C -2015.2266 633.97141 -2017.1633 636.07539 -2019.5312 638.42773 C -2024.9622 643.82276 -2025.6091 644.18078 -2029.9102 644.17578 C -2034.0741 644.17067 -2034.8758 643.74064 -2039.8496 638.84766 C -2041.9696 636.76218 -2043.8171 635.05664 -2043.9551 635.05664 C -2044.0931 635.05664 -2045.575 636.43262 -2047.2461 638.11523 L -2050.2832 641.17578 L -2045.9082 645.45703 C -2042.0623 649.22104 -2041.2419 649.89302 -2039.1367 650.99414 C -2037.8192 651.68325 -2035.799 652.48548 -2034.6484 652.77734 C -2031.9279 653.46741 -2026.8072 653.36785 -2024.3242 652.57617 C -2022.312 651.93461 -2019.7018 650.62267 -2018.1367 649.4668 C -2016.1162 647.97453 -2007.1317 638.71974 -2006.459 637.4375 C -2005.9299 636.42871 -2005.8354 635.86209 -2005.8359 633.73242 C -2005.8364 631.51695 -2005.919 631.06252 -2006.541 629.89648 C -2006.9292 629.16888 -2008.0865 627.74786 -2009.1113 626.73828 L -2010.9746 624.90234 z M -1449.3398 626.01562 L -1450.8105 626.73633 C -1452.2833 627.45832 -1456.2656 630.97139 -1456.2656 631.54883 C -1456.2656 631.7177 -1455.671 632.4435 -1454.9434 633.16016 C -1454.2158 633.87682 -1453.6191 634.65119 -1453.6191 634.88086 C -1453.6191 635.3985 -1461.6102 643.32008 -1462.8809 644.0625 C -1464.7185 645.13612 -1466.4889 645.53273 -1468.9277 645.41406 C -1472.5554 645.23753 -1473.586 644.63411 -1478.3594 639.89648 L -1482.3418 635.94336 L -1485.5059 639.11523 L -1488.6699 642.28711 L -1484.9688 646.01367 C -1482.9335 648.06225 -1480.5215 650.27609 -1479.6074 650.93555 C -1477.7041 652.3086 -1475.0244 653.50603 -1472.6133 654.05859 C -1470.3079 654.58692 -1465.1737 654.41056 -1462.8789 653.72461 C -1458.6689 652.46617 -1456.3904 650.81928 -1450.2949 644.62891 C -1444.6275 638.87327 -1444.2444 638.25522 -1444.2344 634.87891 C -1444.2261 632.00149 -1444.8146 630.73508 -1447.4316 628.00586 L -1449.3398 626.01562 z M -1261.9824 626.02539 L -1263.4531 626.74609 C -1264.9259 627.46808 -1268.9082 630.98115 -1268.9082 631.55859 C -1268.9082 631.72746 -1268.3135 632.45326 -1267.5859 633.16992 C -1266.8583 633.88658 -1266.2637 634.66095 -1266.2637 634.89062 C -1266.2637 635.40826 -1274.2527 643.32985 -1275.5234 644.07227 C -1277.361 645.14589 -1279.1335 645.5425 -1281.5723 645.42383 C -1285.2 645.2473 -1286.2286 644.64388 -1291.002 639.90625 L -1294.9844 635.95312 L -1298.1484 639.12695 L -1301.3125 642.29883 L -1297.6113 646.02344 C -1295.5761 648.07202 -1293.1641 650.28781 -1292.25 650.94727 C -1290.3466 652.32032 -1287.667 653.5158 -1285.2559 654.06836 C -1282.9505 654.59669 -1277.8163 654.42033 -1275.5215 653.73438 C -1271.3115 652.47594 -1269.033 650.82904 -1262.9375 644.63867 C -1257.2701 638.88303 -1256.887 638.26498 -1256.877 634.88867 C -1256.8687 632.01125 -1257.4572 630.74485 -1260.0742 628.01562 L -1261.9824 626.02539 z M -1075.7051 627.31836 L -1077.1758 628.03906 C -1078.6486 628.76105 -1082.6309 632.27412 -1082.6309 632.85156 C -1082.6309 633.02043 -1082.0342 633.74428 -1081.3066 634.46094 C -1080.579 635.1776 -1079.9844 635.95197 -1079.9844 636.18164 C -1079.9844 636.69928 -1087.9734 644.62281 -1089.2441 645.36523 C -1091.0817 646.43885 -1092.8542 646.83351 -1095.293 646.71484 C -1098.9207 646.53831 -1099.9512 645.93685 -1104.7246 641.19922 L -1108.707 637.24609 L -1111.8711 640.41797 L -1115.0332 643.58984 L -1111.334 647.31445 C -1109.2988 649.36303 -1106.8848 651.57882 -1105.9707 652.23828 C -1104.0674 653.61133 -1101.3896 654.80682 -1098.9785 655.35938 C -1096.6731 655.8877 -1091.5389 655.71329 -1089.2441 655.02734 C -1085.0341 653.7689 -1082.7557 652.12201 -1076.6602 645.93164 C -1070.9928 640.176 -1070.6077 639.55795 -1070.5977 636.18164 C -1070.5894 633.30422 -1071.1799 632.03781 -1073.7969 629.30859 L -1075.7051 627.31836 z "
           d="m -1771.1914,600.66797 c 6.6332,-11.06429 -100.2084,43.75835 -28.418,10.85351 -3.8327,-3.39507 -7.5967,-6.09643 -11.4844,-7.41015 -2.3203,-0.7841 -4.6896,-1.26491 -7.0566,-1.47852 -4.6573,-0.42027 -9.3028,0.23693 -13.6973,1.82617 -4.5689,-1.64595 -9.2606,-2.16234 -13.8476,-1.73632 -5.1729,0.4804 -10.3093,2.054 -14.8985,5.41015 -2.3174,1.69505 -1.5952,1.33568 -2.2968,1.9961 -0.4253,0.40027 -1.036,0.98986 -1.5879,1.51953 -7.7044,-5.60339 -16.7376,-8.83816 -26.2305,-8.84766 -8.2137,-0.008 -15.8422,2.38339 -25.539,7.64844 -1.2056,0.65461 -3.3523,1.81211 -4.7051,2.53711 -1.3909,0.74545 -3.2259,1.73132 -4.1446,2.22851 -0.054,0.0293 -0.3659,0.19628 -0.4218,0.22657 -1.6467,-0.88655 -3.7359,-2.00583 -5.8711,-3.14453 -4.3232,-2.30551 -8.2523,-4.40574 -10.0039,-5.2793 -4.0226,-2.00598 -7.5657,-3.04833 -11.8106,-3.77735 -2.6763,-0.45961 -4.9919,-0.51135 -7.5058,-0.48828 -2.516,0.0231 -4.9035,0.13678 -7.5118,0.60547 -6.6144,1.18862 -12.8385,3.90683 -18.2734,7.90235 -0.1077,0.0792 -0.1425,0.14259 -0.2441,0.21875 -0.8879,-0.85308 -1.8741,-1.87124 -2.7969,-2.61719 -1.6729,-1.35225 -3.6867,-2.45685 -5.0274,-3.10742 -4.1058,-1.99244 -9.1473,-3.18973 -13.6679,-3.20508 -3.4532,-0.0117 -7.1857,0.5072 -10.3086,1.5625 -0.2471,0.0835 -0.5353,0.24438 -0.791,0.33984 -3.0505,-1.07775 -6.1254,-1.73549 -9.2227,-1.86328 -3.7955,-0.15659 -7.6189,0.26183 -11.4648,1.60547 -2.228,0.7784 -5.897,2.46846 -8.8008,4.85352 -0.678,0.55683 -1.9917,1.93267 -2.709,2.58007 -5.5657,-4.14944 -11.9143,-7.03466 -18.6914,-8.21679 h -0 c -5.3286,-0.92934 -10.0747,-0.93101 -15.4023,-0.002 -2.7259,0.47535 -6.3013,1.3786 -10.2988,3.24024 -3.9976,1.86164 -9.2011,4.68029 -19.2617,10.10937 -3.0997,1.67271 -7.2029,3.86744 -8.9707,4.80078 -1.0217,0.53936 -1.9384,1.04107 -2.709,1.48047 -0.3853,0.2197 -0.7155,0.40929 -1.1348,0.67188 -0.2097,0.13129 -0.4139,0.25314 -0.873,0.58789 -0.2296,0.16737 -0.4996,0.34511 -1.1211,0.92383 -0.3108,0.28935 -0.713,0.64267 -1.3868,1.54101 -0.3369,0.44917 -0.755,1.03706 -1.2285,2.04883 -0.2367,0.50588 -0.4876,1.12233 -0.7011,1.92188 -0.2136,0.79954 -0.3926,2.99354 -0.3926,2.99414 a 11.591758,11.591758 0 0 0 0.01,0.45703 c 0,5.9e-4 0.1827,1.75008 0.3555,2.42383 0.1727,0.67374 0.3743,1.22312 0.5722,1.68554 0.396,0.92484 0.7715,1.51798 1.086,1.97852 0.6288,0.92107 1.0484,1.33248 1.373,1.6582 0.6492,0.65144 0.9566,0.86546 1.209,1.05859 0.5048,0.38628 0.7246,0.51833 0.9394,0.65625 0.4296,0.27586 0.7279,0.44873 1.0684,0.64454 0.6809,0.39161 1.4464,0.8097 2.2988,1.25781 1.2489,0.6565 8.2511,4.40256 15.1192,8.09375 3.4932,1.87736 6.8885,3.66823 9.5976,5.0664 2.7092,1.39818 3.2831,1.89639 6.2559,3.04102 3.101,1.19406 6.1461,1.97351 9.3476,2.54688 a 11.591758,11.591758 0 0 0 0,0.002 c 2.1596,0.38644 1.8199,0.19973 2.2891,0.21484 0.4691,0.0151 0.9518,0.0214 1.4941,0.0254 1.0847,0.008 2.3863,0.002 3.748,-0.0215 5.9586,-0.10209 11.3883,-1.21351 16.5333,-3.43164 2.7061,-1.1667 5.7735,-2.90281 8.7558,-5.22266 2.6992,2.44619 5.036,4.30051 7.1426,5.40234 2.3557,1.23214 4.0868,2.00467 7.0098,2.7461 6.3378,1.60763 10.0861,1.71468 16.6953,-0.39258 0.6042,-0.19265 1.0938,-0.45433 1.6582,-0.66211 1.1949,0.46697 2.286,0.93049 3.8027,1.27539 6.457,1.46847 10.343,1.22312 16.5234,-0.78125 2.283,-0.74038 6.1149,-2.46324 9.0801,-4.88476 0.7466,-0.60965 2.1677,-2.09886 2.9629,-2.81836 0.6827,0.52164 1.1758,1.06879 2.0332,1.62304 5.117,3.30781 10.6919,5.61232 16.6211,6.58008 1.0469,0.17088 2.7903,0.48814 1.9941,0.33203 a 11.591758,11.591758 0 0 0 0,0 c 2.0844,0.40837 1.6304,0.21168 1.9688,0.23047 0.3383,0.0188 0.6599,0.0313 1.0175,0.043 0.7152,0.0233 1.5507,0.0401 2.4336,0.0488 3.6943,0.0364 7.311,-0.38057 10.9883,-1.25195 1.9419,-0.46016 5.2154,-1.48664 10.5234,-4.1875 2.2126,-1.12582 9.6553,-5.15411 13.5528,-7.23047 1.9384,1.05165 4.3963,2.35977 6.9043,3.67968 2.5315,1.33231 5.0933,2.6664 7.1758,3.73047 2.0824,1.06407 2.2629,1.35872 5.0664,2.43946 3.7694,1.45309 7.5919,2.38904 11.6152,2.7539 8.2192,0.7454 16.4746,-0.78231 23.8262,-4.45703 1.9788,-0.98911 4.2397,-2.38445 6.5293,-4.0957 1.076,1.02771 2.2389,2.04028 3.8535,3.20508 3.5009,2.52555 7.049,4.0696 11.1855,5.01757 6.505,1.49075 9.327,1.36304 15.6446,-0.52539 1.8386,-0.54959 3.6404,-1.40148 5.4433,-2.40039 0.7977,0.26341 1.5476,0.62982 2.5742,0.86328 6.457,1.46847 10.3431,1.22312 16.5235,-0.78125 2.2824,-0.74021 6.114,-2.46312 9.08,-4.88476 0.4872,-0.3977 1.4324,-1.39846 1.9336,-1.83789 0.7236,0.55925 1.2616,1.14739 2.1817,1.74219 5.117,3.3078 10.6919,5.61231 16.6211,6.58007 1.0311,0.16831 2.7097,0.47467 1.9922,0.33399 a 11.591758,11.591758 0 0 0 0,0 c 2.1038,0.41218 1.6419,0.212 1.9805,0.23047 0.3386,0.0185 0.6588,0.0316 1.0156,0.043 0.7137,0.0227 1.5476,0.0382 2.4258,0.0469 3.6943,0.0364 7.3109,-0.38056 10.9883,-1.25195 1.9419,-0.46015 5.2154,-1.48664 10.5234,-4.1875 1.9779,-1.00638 8.8245,-4.71394 12.1152,-6.46289 0.1865,0.10172 0.3095,0.17163 0.5079,0.27929 1.9465,1.05654 4.4372,2.38255 6.9687,3.71485 2.5315,1.3323 5.0934,2.6664 7.1758,3.73047 2.0824,1.06406 2.2629,1.35871 5.0664,2.43945 3.7713,1.45381 7.5944,2.38909 11.6172,2.75391 8.219,0.74537 16.4736,-0.7828 23.8242,-4.45704 2.1056,-1.05248 4.5265,-2.53489 6.9688,-4.41796 1.0546,1.00219 2.199,1.98975 3.7753,3.12695 3.5008,2.52544 7.049,4.06959 11.1856,5.01758 6.505,1.49076 9.327,1.36302 15.6445,-0.52539 0.8299,-0.24806 1.6416,-0.64073 2.459,-0.97852 1.1107,0.42195 2.1464,0.87346 3.5703,1.19727 6.4582,1.46873 10.3434,1.22363 16.5254,-0.78125 2.2829,-0.74038 6.1148,-2.46324 9.0801,-4.88477 0.4865,-0.39731 1.431,-1.39701 1.9316,-1.83594 0.7233,0.55902 1.2619,1.1457 2.1817,1.74024 5.1171,3.30786 10.692,5.61231 16.6211,6.58008 1.0469,0.17088 2.7906,0.48819 1.9941,0.33203 a 11.591758,11.591758 0 0 0 0,0 c 2.0842,0.40834 1.6304,0.21167 1.9687,0.23047 0.3384,0.0188 0.66,0.0313 1.0176,0.043 0.7152,0.0233 1.5507,0.0401 2.4336,0.0488 3.6943,0.0364 7.3109,-0.38055 10.9883,-1.25195 1.9419,-0.46015 5.2154,-1.48664 10.5234,-4.1875 1.9778,-1.00638 8.8245,-4.71394 12.1152,-6.46289 0.1865,0.10173 0.3095,0.17163 0.5078,0.2793 1.9466,1.05653 4.4373,2.38254 6.9688,3.71484 2.5315,1.3323 5.0934,2.6664 7.1758,3.73047 2.0824,1.06407 2.2629,1.35871 5.0664,2.43945 3.7759,1.45558 7.6001,2.38766 11.6172,2.75195 8.2168,0.74518 16.4726,-0.77935 23.8261,-4.45507 2.106,-1.05268 4.5271,-2.53495 6.9688,-4.41797 1.056,1.00283 2.2007,1.9904 3.7734,3.125 3.4965,2.52239 7.0432,4.07022 11.1856,5.01953 6.505,1.49076 9.327,1.36302 15.6445,-0.52539 1.6298,-0.48717 3.2285,-1.19443 4.8262,-2.0332 0.7521,0.24231 1.4512,0.59158 2.414,0.81054 6.457,1.46846 10.3432,1.22309 16.5235,-0.78125 2.2824,-0.74021 6.114,-2.46312 9.0801,-4.88476 0.4871,-0.39771 1.4323,-1.39847 1.9336,-1.83789 0.7235,0.55926 1.2614,1.14738 2.1816,1.74218 5.117,3.30781 10.6919,5.61232 16.6211,6.58008 1.0446,0.17052 2.7753,0.48556 1.9922,0.33203 a 11.591758,11.591758 0 0 0 0,0 c 2.0875,0.40898 1.6323,0.21169 1.9707,0.23047 0.3384,0.0188 0.6579,0.0313 1.0157,0.043 0.7155,0.0233 1.5526,0.0401 2.4355,0.0488 3.6943,0.0364 7.3109,-0.38056 10.9883,-1.25196 1.9419,-0.46015 5.2154,-1.48663 10.5234,-4.1875 1.9779,-1.00637 8.8245,-4.71393 12.1153,-6.46289 0.1864,0.10173 0.3094,0.17164 0.5078,0.2793 1.9465,1.05652 4.4372,2.38255 6.9687,3.71485 2.5315,1.33229 5.0934,2.6664 7.1758,3.73046 2.0824,1.06407 2.2629,1.35871 5.0664,2.43946 3.7713,1.45381 7.5944,2.38909 11.6172,2.7539 8.219,0.74538 16.4736,-0.78279 23.8242,-4.45703 2.1056,-1.05248 4.5265,-2.53489 6.9688,-4.41797 1.0546,1.0022 2.199,1.98976 3.7754,3.12696 3.5004,2.52511 7.0489,4.06957 11.1855,5.01757 6.505,1.49077 9.327,1.36303 15.6445,-0.52539 0.9236,-0.27607 1.8276,-0.70242 2.7364,-1.08984 1.061,0.39572 2.0593,0.83964 3.4257,1.15039 6.457,1.46847 10.3431,1.22312 16.5235,-0.78125 2.2829,-0.74038 6.1148,-2.46324 9.0801,-4.88476 0.4867,-0.39751 1.4307,-1.39872 1.9316,-1.8379 0.7231,0.55847 1.2651,1.1478 2.1816,1.74024 5.1147,3.30628 10.6883,5.61367 16.6211,6.58203 1.0469,0.17088 2.7904,0.48813 1.9942,0.33203 a 11.591758,11.591758 0 0 0 0,0 c 2.0844,0.40837 1.6304,0.21168 1.9688,0.23047 0.3383,0.0188 0.66,0.0313 1.0175,0.043 0.7152,0.0233 1.5507,0.0401 2.4336,0.0488 a 11.591758,11.591758 0 0 0 0,0 c 3.6993,0.0365 7.3143,-0.38333 10.9883,-1.25391 1.9401,-0.45973 5.2149,-1.48496 10.5234,-4.18555 1.9778,-1.00614 8.8231,-4.71437 12.1133,-6.46289 0.1871,0.10206 0.3107,0.17322 0.5098,0.28125 1.9467,1.05635 4.437,2.38085 6.9687,3.71289 2.5317,1.33205 5.0933,2.66467 7.1758,3.72852 2.0825,1.06385 2.2653,1.35964 5.0664,2.43945 3.7694,1.4531 7.5919,2.38905 11.6152,2.75391 8.2169,0.74518 16.4727,-0.77936 23.8262,-4.45508 2.106,-1.05268 4.527,-2.53494 6.9688,-4.41797 1.0562,1.00311 2.2015,1.98958 3.7753,3.125 3.4978,2.52329 7.0458,4.06929 11.1836,5.01758 6.499,1.48933 9.3212,1.3667 15.6446,-0.52344 1.2537,-0.37476 2.4845,-0.89722 3.7148,-1.47851 1.4076,0.49873 2.8161,0.90616 4.8047,1.23828 1.8794,0.31399 1.833,0.20074 2.543,0.23437 0.7099,0.0336 1.488,0.0585 2.2871,0.0703 5.9909,0.0888 12.1417,-1.63295 17.2129,-4.82618 2.033,-1.28018 2.0878,-1.55525 2.8984,-2.27734 0.5709,-0.50854 1.2912,-1.18606 1.9961,-1.8457 5.133,3.74745 10.9671,6.46316 17.2168,7.82617 2.7136,0.59183 5.5698,0.75555 9.373,0.74805 8.1401,-0.0159 15.2506,-2.09996 24.75786,-7.25 3.11403,-1.68687 9.97437,-5.36659 15.14062,-8.11915 2.62611,-1.39915 5.0116,-2.6844 6.77735,-3.65039 0.88287,-0.48299 1.60312,-0.88002 2.17383,-1.20312 0.28535,-0.16155 0.51757,-0.29532 0.8125,-0.47266 0.14746,-0.0887 0.28795,-0.16862 0.625,-0.39453 0.16852,-0.11295 0.35748,-0.22857 0.86523,-0.63867 0.25387,-0.20505 0.57519,-0.43848 1.24023,-1.1582 0.33253,-0.35986 1.37058,-1.80971 1.3711,-1.81055 2.6e-4,-4.2e-4 1.00182,-2.07191 1.00195,-2.07227 1.3e-4,-3.5e-4 0.70703,-3.98799 0.70703,-3.98828 a 11.591758,11.591758 0 0 0 0,-0.0937 c -10e-6,-0.001 -1.07199,-4.91014 -1.66992,-5.90039 -0.59793,-0.99025 -1.03238,-1.46552 -1.36914,-1.83398 -0.67352,-0.73692 -1.00745,-0.9831 -1.27148,-1.19727 -0.52806,-0.42834 -0.73514,-0.55473 -0.92188,-0.67968 -0.37347,-0.24991 -0.55443,-0.35535 -0.7539,-0.47461 -0.39895,-0.23853 -0.77599,-0.45286 -1.24219,-0.71485 -0.9324,-0.52398 -2.15962,-1.1976 -3.63281,-1.99804 -2.9464,-1.60089 -6.84336,-3.68912 -10.80469,-5.79493 -3.96133,-2.1058 -7.97916,-4.22448 -11.15629,-5.8789 -1.5885,-0.82721 -2.9618,-1.53636 -4.0468,-2.08594 -1.085,-0.54958 -0.9405,-0.61332 -2.9825,-1.40625 -6.776,-2.63115 -14.006,-3.52211 -21.039,-2.6875 -7.0328,0.83461 -13.8649,3.38934 -19.9043,7.49219 -1.3332,0.90568 -2.1742,1.81787 -3.0664,2.63476 -3.8328,-3.39507 -7.5967,-6.09643 -11.4844,-7.41015 -2.32,-0.78392 -4.6895,-1.26492 -7.0566,-1.47852 -4.5799,-0.4133 -9.1464,0.2228 -13.4766,1.75195 -4.5744,-1.64896 -9.2696,-2.16224 -13.8555,-1.73632 -5.1728,0.4804 -10.3092,2.05383 -14.8984,5.41015 -2.3175,1.69505 -1.5953,1.33568 -2.2969,1.9961 -0.155,0.14591 -0.4058,0.3911 -0.5781,0.55468 -7.7362,-5.67296 -16.822,-8.95529 -26.377,-8.96484 -8.2136,-0.008 -15.8409,2.38373 -25.5371,7.64844 -1.201,0.65213 -3.3501,1.80993 -4.707,2.53711 -1.0435,0.55926 -2.1407,1.15009 -3.1094,1.67187 -0.1779,-0.0929 -0.269,-0.15086 -0.5039,-0.27734 -1.6556,-0.89152 -3.7818,-2.03084 -5.9433,-3.1836 -4.3232,-2.30551 -8.2522,-4.40568 -10.004,-5.27929 -4.0199,-2.00469 -7.5627,-3.04817 -11.8085,-3.77735 -2.6785,-0.46 -4.9939,-0.51135 -7.5079,-0.48828 -2.516,0.0231 -4.9033,0.13711 -7.5097,0.60547 -6.6145,1.18861 -12.8386,3.90682 -18.2735,7.90234 -0.5999,0.44107 -0.9137,0.84294 -1.3632,1.21485 -3.8284,-3.38916 -7.5873,-6.08812 -11.4707,-7.40039 -2.3202,-0.78404 -4.6895,-1.26492 -7.0567,-1.47852 -4.5812,-0.41341 -9.1489,0.22395 -13.4805,1.75391 -4.5707,-1.64773 -9.2645,-2.16445 -13.8535,-1.73828 -5.1728,0.48041 -10.3093,2.05409 -14.8984,5.41015 -2.3175,1.69505 -1.5953,1.33568 -2.2969,1.9961 -0.1553,0.14617 -0.4074,0.39079 -0.5801,0.55468 -7.735,-5.67182 -16.8188,-8.95529 -26.373,-8.96484 -8.2137,-0.008 -15.8422,2.3834 -25.5391,7.64844 -1.2057,0.65466 -3.3523,1.81213 -4.705,2.53711 -1.0435,0.55926 -2.1408,1.15009 -3.1094,1.67187 -0.178,-0.0929 -0.269,-0.15086 -0.5039,-0.27734 -1.6556,-0.89151 -3.7818,-2.03084 -5.9434,-3.18359 -4.3232,-2.30551 -8.2524,-4.40578 -10.0039,-5.2793 -4.0278,-2.00859 -7.5713,-3.04735 -11.8105,-3.77539 -2.6766,-0.45969 -4.9921,-0.51135 -7.5059,-0.48828 -2.5088,0.023 -4.8935,0.13337 -7.5098,0.60351 -6.6139,1.18852 -12.839,3.90577 -18.2754,7.90235 -1.1564,0.85019 -1.8696,1.64382 -2.625,2.33984 -3.7642,-3.30392 -7.4657,-5.95089 -11.2871,-7.24219 -2.3201,-0.78396 -4.6896,-1.26491 -7.0566,-1.47851 -4.5804,-0.41334 -9.1476,0.22264 -13.4785,1.75195 -4.5752,-1.64898 -9.2695,-2.16224 -13.8555,-1.73633 -5.1729,0.4804 -10.3092,2.05381 -14.8984,5.41016 -2.3201,1.69691 -1.5955,1.33762 -2.2969,1.99804 -0.1547,0.14568 -0.4062,0.38947 -0.5781,0.55274 -7.7353,-5.6724 -16.8203,-8.9553 -26.375,-8.96485 -8.2137,-0.008 -15.8423,2.3834 -25.5391,7.64844 -1.2054,0.65451 -3.3521,1.81202 -4.7051,2.53711 -1.0436,0.55934 -2.1408,1.15014 -3.1093,1.67188 -0.178,-0.0929 -0.2691,-0.15086 -0.5039,-0.27735 -1.6556,-0.89151 -3.7818,-2.03084 -5.9434,-3.18359 -4.3232,-2.30551 -8.2523,-4.40573 -10.0039,-5.2793 -4.0226,-2.00597 -7.5657,-3.04832 -11.8106,-3.77734 -2.6871,-0.46149 -4.9993,-0.50932 -7.5058,-0.48633 -2.5086,0.023 -4.8934,0.13334 -7.5098,0.60352 -6.6144,1.18861 -12.8385,3.90681 -18.2734,7.90234 -0.5313,0.39062 -0.7978,0.74249 -1.2071,1.07617 -3.8367,-3.40048 -7.6045,-6.10488 -11.496,-7.41992 -2.3204,-0.78411 -4.6898,-1.2649 -7.0567,-1.47852 -4.5812,-0.41341 -9.1489,0.22395 -13.4805,1.75391 -4.5708,-1.64775 -9.2645,-2.16448 -13.8535,-1.73828 -5.1729,0.48039 -10.3092,2.05383 -14.8984,5.41016 -2.3175,1.69505 -1.5953,1.33567 -2.2969,1.99609 -0.1553,0.14617 -0.4074,0.39079 -0.5801,0.55469 -7.7341,-5.67159 -16.8179,-8.9553 -26.373,-8.96485 -8.2137,-0.008 -15.8422,2.3834 -25.5391,7.64844 -1.2056,0.65464 -3.3523,1.81213 -4.7051,2.53711 -1.0483,0.56188 -2.1423,1.15149 -3.1074,1.67188 -0.1783,-0.0931 -0.2702,-0.15049 -0.5058,-0.27735 -1.6556,-0.89151 -3.7818,-2.03084 -5.9434,-3.18359 -4.3232,-2.30551 -8.2522,-4.40573 -10.0039,-5.2793 -4.0279,-2.00862 -7.5714,-3.04735 -11.8105,-3.77539 -2.6766,-0.45968 -4.9921,-0.51134 -7.5059,-0.48828 z"
           transform="translate(-4.2580644,4.2580609)" /></g><g
         id="g21395"
         transform="matrix(-1.0018311,0,0,-1,-3120.4652,302.20211)"
         style="fill:#ffffff"
         inkscape:export-filename="arabesco celta horizontal.svg"
         inkscape:export-xdpi="96"
         inkscape:export-ydpi="96"><path
           style="fill:#ffffff;stroke-width:0.264583"
           d="m -1765.7738,613.17968 c 0.191,-0.0764 0.4192,-0.067 0.5071,0.0209 0.088,0.0879 -0.068,0.15045 -0.3473,0.13897 -0.3082,-0.0127 -0.3709,-0.0754 -0.1598,-0.15986 z"
           id="path21305" /><path
           style="fill:#ffffff;stroke-width:0.264583"
           d="m -1842.1032,640.54913 c -2.7012,-2.78787 -3.127,-3.71614 -3.1263,-6.8158 0,-2.21796 0.084,-2.66911 0.7081,-3.83646 0.8108,-1.51616 10.3974,-11.17016 12.4695,-12.55726 4.905,-3.28349 11.6005,-4.15616 17.2475,-2.24796 3.4171,1.1547 5.494,2.65537 10.1207,7.31275 l 3.7707,3.79576 -3.1717,3.16348 -3.1718,3.16347 -3.9138,-3.88263 c -3.0186,-2.99449 -4.2565,-4.03951 -5.4118,-4.56842 -3.0231,-1.38403 -6.1236,-1.38309 -9.1507,0.003 -1.174,0.53745 -2.4297,1.61122 -5.8021,4.9613 -2.3672,2.35147 -4.3039,4.45496 -4.3039,4.67441 0,0.21946 0.6216,1.02839 1.3812,1.79762 l 1.3813,1.3986 -1.9766,2.00238 c -1.8762,1.90074 -3.4253,3.03376 -4.6411,3.39445 -0.4333,0.12854 -0.9372,-0.23927 -2.4092,-1.75847 z"
           id="path21307" /><path
           style="fill:#ffffff;stroke-width:0.264583"
           d="m -1654.5411,640.71951 c -2.7012,-2.78787 -3.127,-3.71614 -3.1263,-6.8158 0,-2.21796 0.084,-2.66911 0.7081,-3.83646 0.8108,-1.51616 10.3974,-11.17016 12.4695,-12.55726 4.905,-3.28349 11.6005,-4.15616 17.2475,-2.24796 3.4171,1.1547 5.494,2.65537 10.1207,7.31275 l 3.7707,3.79576 -3.1717,3.16348 -3.1718,3.16347 -3.9138,-3.88263 c -3.0186,-2.99449 -4.2565,-4.03951 -5.4118,-4.56842 -3.0231,-1.38403 -6.1236,-1.38309 -9.1507,0.003 -1.174,0.53745 -2.4297,1.61122 -5.8021,4.9613 -2.3672,2.35147 -4.3039,4.45496 -4.3039,4.67441 0,0.21946 0.6216,1.02839 1.3812,1.79762 l 1.3813,1.3986 -1.9766,2.00238 c -1.8762,1.90074 -3.4253,3.03376 -4.6411,3.39445 -0.4333,0.12854 -0.9372,-0.23927 -2.4092,-1.75847 z"
           id="path21309" /><path
           style="fill:#ffffff;stroke-width:0.264583"
           d="m -2029.4927,640.46623 c -2.45,-2.5792 -3.0246,-3.82398 -3.0468,-6.60059 -0.029,-3.56754 0.2348,-3.99841 6.0423,-9.88145 6.0976,-6.177 8.0619,-7.67406 11.6678,-8.89252 2.1309,-0.72008 3.7998,-0.96267 6.5581,-0.95333 3.3273,0.0113 5.5345,0.5328 8.6469,2.04313 2.353,1.14182 2.7787,1.48597 7.0115,5.66814 l 4.5064,4.45251 -3.0384,3.05416 c -1.6711,1.67979 -3.161,3.05416 -3.3108,3.05416 -0.1499,0 -1.9378,-1.67568 -3.9731,-3.72373 -4.1642,-4.19023 -5.5818,-5.10928 -8.5241,-5.52658 -2.0848,-0.29568 -4.5787,0.11336 -6.4594,1.05946 -1.3176,0.66283 -9.7515,8.87542 -9.7515,9.49563 0,0.21982 0.6631,1.06975 1.4735,1.88874 l 1.4736,1.48907 -2.2012,2.04955 c -2.0578,1.91606 -3.2711,2.74816 -4.6097,3.16128 -0.4498,0.13884 -0.9221,-0.21319 -2.4651,-1.83763 z"
           id="path21311" /><path
           style="fill:#ffffff;stroke-width:0.264583"
           d="m -1866.0013,644.48137 c 0,-0.0549 0.2084,-0.2633 0.463,-0.46302 0.4197,-0.3291 0.429,-0.31975 0.1,0.0999 -0.3456,0.44073 -0.5629,0.58089 -0.5629,0.36312 z"
           id="path21313" /><path
           style="fill:#ffffff;stroke-width:0.264583"
           d="m -1916.0076,646.16877 c -0.2384,-0.15411 -0.271,-0.2581 -0.082,-0.26053 0.1733,-0.002 0.3887,0.11501 0.4787,0.26053 0.203,0.32849 0.1114,0.32849 -0.3969,0 z"
           id="path21315" /><path
           style="fill:#ffffff;stroke-width:0.264583"
           d="m -1874.468,650.82734 c 0,-0.0572 0.1848,-0.17489 0.4106,-0.26156 0.2355,-0.0903 0.3417,-0.046 0.249,0.10399 -0.1554,0.25141 -0.6596,0.37185 -0.6596,0.15757 z"
           id="path21317" /><path
           style="fill:#ffffff;stroke-width:0.264583"
           d="m -1758.1219,651.42765 c 0.1795,-0.18082 0.393,-0.26211 0.4745,-0.18065 0.081,0.0815 -0.065,0.22941 -0.3263,0.32877 -0.3771,0.14358 -0.4075,0.11319 -0.1482,-0.14812 z"
           id="path21319" /><path
           style="fill:#ffffff;stroke-width:0.264583"
           d="m -1963.8971,652.90886 c -0.2183,-0.0428 -1.2789,-0.22172 -2.3568,-0.39767 -3.9587,-0.64614 -8.3991,-2.42128 -12.1953,-4.87527 -0.9459,-0.61145 -3.012,-2.28012 -4.5914,-3.70816 l -2.8715,-2.59643 3.1844,-3.18449 3.1845,-3.18449 1.6775,1.56834 c 3.5079,3.2797 5.4939,4.61699 8.8173,5.9372 5.153,2.04699 11.5419,2.12594 16.7929,0.2075 0.9459,-0.34557 6.9586,-3.44172 13.3615,-6.88032 12.4984,-6.71211 16.8085,-9.02982 19.3146,-10.38616 0.8731,-0.47256 2.7186,-1.46539 4.101,-2.20628 1.3825,-0.7409 3.5256,-1.89658 4.7625,-2.56819 9.1552,-4.97096 13.252,-6.2503 19.9949,-6.24391 9.005,0.009 16.3044,3.02261 23.2163,9.58662 l 2.3331,2.21564 -3.1835,3.16141 -3.1835,3.16141 -1.7954,-1.72825 c -4.6473,-4.4734 -9.0815,-6.67538 -14.76,-7.32955 -2.7141,-0.31266 -4.6953,-0.2113 -7.5406,0.38576 -2.8135,0.59037 -4.7798,1.42612 -10.0542,4.27334 -2.5466,1.37472 -5.4637,2.94796 -6.4823,3.49609 -36.3721,19.57187 -36.2965,19.53344 -40.2167,20.46235 -3.0978,0.73406 -5.1564,0.96999 -8.202,0.93996 -1.6008,-0.0158 -3.0891,-0.0637 -3.3073,-0.10645 z"
           id="path21321" /><path
           style="fill:#ffffff;stroke-width:0.264583"
           d="m -1775.2591,651.92298 c -0.2183,-0.0428 -1.2789,-0.22172 -2.3568,-0.39767 -3.9587,-0.64614 -8.3991,-2.42128 -12.1953,-4.87527 -0.9459,-0.61145 -3.012,-2.28012 -4.5914,-3.70816 l -2.8715,-2.59643 3.1844,-3.18449 3.1845,-3.18449 1.6775,1.56834 c 3.5079,3.2797 5.4939,4.61699 8.8173,5.9372 5.153,2.04699 11.5419,2.12594 16.7929,0.2075 0.9459,-0.34557 6.9586,-3.44172 13.3615,-6.88032 12.4984,-6.71211 16.8085,-9.02982 19.3146,-10.38616 0.8731,-0.47256 2.7186,-1.46539 4.101,-2.20628 1.3825,-0.7409 3.5256,-1.89658 4.7625,-2.56819 9.1552,-4.97096 13.252,-6.2503 19.9949,-6.24391 9.005,0.009 16.3044,3.02261 23.2163,9.58662 l 2.3331,2.21564 -3.1835,3.16141 -3.1835,3.16141 -1.7954,-1.72825 c -4.6473,-4.4734 -9.0815,-6.67538 -14.76,-7.32955 -2.7141,-0.31266 -4.6953,-0.2113 -7.5406,0.38576 -2.8135,0.59037 -4.7798,1.42612 -10.0542,4.27334 -2.5466,1.37472 -5.4637,2.94796 -6.4823,3.49609 -36.3721,19.57187 -36.2965,19.53344 -40.2167,20.46235 -3.0978,0.73406 -5.1564,0.96999 -8.202,0.93996 -1.6008,-0.0158 -3.0891,-0.0637 -3.3073,-0.10645 z"
           id="path21323" /><path
           style="fill:#ffffff;stroke-width:0.264583"
           d="m -2082.4305,652.88896 c -2.1897,-0.39215 -5.4768,-1.28149 -7.2258,-1.95496 -1.1131,-0.42862 -7.6519,-3.8041 -14.5308,-7.50107 -6.8788,-3.69697 -13.7249,-7.36199 -15.2135,-8.1445 -1.4886,-0.7825 -2.709,-1.48488 -2.712,-1.56084 0,-0.076 1.5127,-0.93954 3.3681,-1.91906 1.8553,-0.97953 5.9332,-3.16234 9.0619,-4.8507 20.1047,-10.84918 20.9515,-11.24364 26.0474,-12.13228 2.9954,-0.52235 8.4176,-0.52101 11.4215,0.003 6.4186,1.1193 12.2233,4.15508 17.3115,9.05363 l 2.4002,2.31077 -3.1821,3.1627 -3.1821,3.1627 -2.0587,-1.98315 c -2.6616,-2.56396 -4.2875,-3.72303 -6.9994,-4.98986 -5.1238,-2.39352 -10.5554,-2.87488 -16.226,-1.43796 -1.6273,0.41236 -5.0446,1.98664 -9.2604,4.266 -1.3097,0.70812 -3.6909,1.98141 -5.2917,2.82953 -1.6007,0.84812 -3.1485,1.77173 -3.4395,2.05247 -0.5288,0.51009 -0.5288,0.51076 0.06,0.99486 1.3419,1.10311 15.119,8.19876 17.1378,8.82646 6.9475,2.16026 14.1825,1.07012 20.3729,-3.06969 0.889,-0.59449 6.3027,-5.73066 12.3031,-11.67238 11.4986,-11.38608 11.9556,-11.76137 16.0705,-13.199 4.3098,-1.50572 10.0464,-1.26906 14.2438,0.58764 l 1.2139,0.53695 -1.8073,1.58913 c -0.994,0.87403 -2.634,2.42104 -3.6444,3.43781 l -1.837,1.84867 -1.9994,-0.009 c -1.9592,-0.009 -3.2733,0.30799 -5.0782,1.22423 -0.4895,0.24849 -5.6525,5.17892 -11.4733,10.95652 -11.5746,11.48857 -13.3574,12.95371 -18.4154,15.13435 -4.3657,1.88218 -6.8758,2.39608 -12.144,2.48634 -2.5466,0.0436 -4.9279,0.026 -5.2917,-0.0391 z"
           id="path21325" /><path
           style="fill:#ffffff;stroke-width:0.264583"
           d="m -1823.2519,650.84403 c -0.9055,-0.20592 -2.3574,-0.69349 -3.2264,-1.08347 l -1.58,-0.70907 0.8451,-0.67658 c 0.4648,-0.37212 2.0953,-1.89537 3.6233,-3.385 l 2.7781,-2.70841 2.3812,-0.10535 c 4.2209,-0.18674 4.034,-0.0474 15.875,-11.83152 6.0133,-5.98438 11.206,-10.92139 12.4451,-11.83235 3.9391,-2.89588 8.7702,-4.98916 13.4593,-5.83179 2.9092,-0.52279 8.2629,-0.57191 11.005,-0.10099 2.5433,0.43679 6.5661,1.71196 8.599,2.72573 1.9636,0.97927 17.7541,9.40022 18.6266,9.93346 0.6252,0.38208 0.5947,0.4099 -1.9844,1.81085 -1.4406,0.78254 -3.5781,1.91854 -4.7499,2.52443 l -2.1306,1.10162 -5.1454,-2.79246 c -9.7881,-5.31203 -11.4302,-5.99682 -15.7621,-6.57329 -5.2396,-0.69726 -11.2534,0.80476 -16.0063,3.99778 -1.0019,0.67313 -6.0408,5.44474 -12.4031,11.74542 -11.5888,11.47636 -12.1809,11.95988 -16.2719,13.28663 -2.6417,0.85673 -7.7389,1.10446 -10.3776,0.50436 z"
           id="path21327" /><path
           style="fill:#ffffff;stroke-width:0.264583"
           d="m -1846.895,652.91199 c -2.4111,-0.55256 -5.0899,-1.74821 -6.9932,-3.12126 -0.9141,-0.65946 -3.3272,-2.87513 -5.3624,-4.92371 l -3.7003,-3.72469 3.1638,-3.17204 3.1637,-3.17203 3.9826,3.9528 c 4.7734,4.73763 5.8029,5.33985 9.4306,5.51638 2.4388,0.11867 4.2109,-0.27701 6.0485,-1.35063 1.2707,-0.74242 9.2604,-8.66495 9.2604,-9.18259 0,-0.22967 -0.5953,-1.00395 -1.3229,-1.72061 -0.7276,-0.71666 -1.3229,-1.44119 -1.3229,-1.61006 0,-0.57744 3.9822,-4.09085 5.455,-4.81284 l 1.4705,-0.72085 1.9084,1.99014 c 2.617,2.72922 3.2064,3.99598 3.1981,6.8734 -0.01,3.37631 -0.3937,3.99384 -6.0611,9.74948 -6.0955,6.19037 -8.3738,7.83712 -12.5838,9.09556 -2.2948,0.68595 -7.4296,0.86188 -9.735,0.33355 z"
           id="path21329" /><path
           style="fill:#ffffff;stroke-width:0.264583"
           d="m -1658.7604,652.60697 c -2.4111,-0.55256 -5.0899,-1.74821 -6.9932,-3.12126 -0.9141,-0.65946 -3.3272,-2.87513 -5.3624,-4.92371 l -3.7003,-3.72469 3.1638,-3.17204 3.1637,-3.17203 3.9826,3.9528 c 4.7734,4.73763 5.8029,5.33985 9.4306,5.51638 2.4388,0.11867 4.2109,-0.27701 6.0485,-1.35063 1.2707,-0.74242 9.2604,-8.66495 9.2604,-9.18259 0,-0.22967 -0.5953,-1.00395 -1.3229,-1.72061 -0.7276,-0.71666 -1.3229,-1.44119 -1.3229,-1.61006 0,-0.57744 3.9822,-4.09085 5.455,-4.81284 l 1.4705,-0.72085 1.9084,1.99014 c 2.617,2.72922 3.2064,3.99598 3.1981,6.8734 -0.01,3.37631 -0.3937,3.99384 -6.0611,9.74948 -6.0955,6.19037 -8.3738,7.83712 -12.5838,9.09556 -2.2948,0.68595 -7.4296,0.86188 -9.735,0.33355 z"
           id="path21331" /><path
           style="fill:#ffffff;stroke-width:0.264583"
           d="m -1893.8313,652.99589 c -2.6028,-0.23604 -5.8781,-1.01698 -8.4929,-2.02497 -1.7571,-0.67736 -20.5595,-10.57215 -21.1726,-11.14214 -0.2023,-0.1881 8.6136,-5.03705 9.1579,-5.03705 0.1422,0 3.248,1.60374 6.9017,3.56388 7.5278,4.03848 8.9625,4.67512 11.9367,5.29701 5.5477,1.15997 11.7888,0.159 16.6046,-2.66312 2.682,-1.57163 3.3087,-2.14115 13.9529,-12.68015 5.6026,-5.54717 10.6386,-10.41639 11.1911,-10.8205 4.9637,-3.63013 13.0258,-4.37887 19.0607,-1.7702 l 1.2799,0.55326 -1.2799,1.02984 c -0.7039,0.56641 -2.338,2.10297 -3.6312,3.41458 l -2.3514,2.38474 -2.0396,0.0218 c -2.0042,0.0215 -3.3028,0.33527 -5.0677,1.22469 -0.4895,0.24667 -5.3548,4.87718 -10.8119,10.29003 -12.1891,12.09046 -12.9275,12.72158 -17.641,15.07766 -5.4884,2.74342 -11.3896,3.84357 -17.5973,3.2806 z"
           id="path21333" /><path
           style="fill:#ffffff;stroke-width:0.264583"
           d="m -1706.0574,653.09106 c -2.6028,-0.23604 -5.8781,-1.01698 -8.4929,-2.02497 -1.7571,-0.67736 -20.5595,-10.57215 -21.1726,-11.14214 -0.2023,-0.1881 8.6136,-5.03705 9.1579,-5.03705 0.1422,0 3.248,1.60374 6.9017,3.56388 7.5278,4.03848 8.9625,4.67512 11.9367,5.29701 5.5477,1.15997 11.7888,0.159 16.6046,-2.66312 2.682,-1.57163 3.3087,-2.14115 13.9529,-12.68015 5.6026,-5.54717 10.6386,-10.41639 11.1911,-10.8205 4.9637,-3.63013 13.0258,-4.37887 19.0607,-1.7702 l 1.2799,0.55326 -1.2799,1.02984 c -0.7039,0.56641 -2.338,2.10297 -3.6312,3.41458 l -2.3514,2.38474 -2.0396,0.0218 c -2.0042,0.0215 -3.3028,0.33527 -5.0677,1.22469 -0.4895,0.24667 -5.3548,4.87718 -10.8119,10.29003 -12.1891,12.09046 -12.9275,12.72158 -17.641,15.07766 -5.4884,2.74342 -11.3896,3.84357 -17.5973,3.2806 z"
           id="path21335" /><path
           style="fill:#ffffff;stroke-width:0.264583"
           d="m -2012.7716,652.92939 c -0.9055,-0.20592 -2.3574,-0.69349 -3.2264,-1.08347 l -1.58,-0.70907 0.8451,-0.67658 c 0.4648,-0.37212 2.0953,-1.89537 3.6233,-3.385 l 2.7781,-2.70841 2.3812,-0.10535 c 4.2209,-0.18674 4.034,-0.0474 15.875,-11.83152 6.0133,-5.98438 11.206,-10.92139 12.4451,-11.83235 3.9391,-2.89588 8.7702,-4.98916 13.4593,-5.83179 2.9092,-0.52279 8.2629,-0.57191 11.005,-0.10099 2.5433,0.43679 6.5661,1.71196 8.599,2.72573 1.9636,0.97927 17.7541,9.40022 18.6266,9.93346 0.6252,0.38208 0.5947,0.4099 -1.9844,1.81085 -1.4406,0.78254 -3.5781,1.91854 -4.7499,2.52443 l -2.1306,1.10162 -5.1454,-2.79246 c -9.7881,-5.31203 -11.4302,-5.99682 -15.7621,-6.57329 -5.2396,-0.69726 -11.2534,0.80476 -16.0063,3.99778 -1.0019,0.67313 -6.0408,5.44474 -12.4031,11.74542 -11.5888,11.47636 -12.1809,11.95988 -16.2719,13.28663 -2.6417,0.85673 -7.7389,1.10446 -10.3776,0.50436 z"
           id="path21337" /><path
           style="fill:#ffffff;stroke-width:0.264583"
           d="m -2034.6485,652.77714 c -1.1506,-0.29186 -3.17,-1.09446 -4.4875,-1.78357 -2.1052,-1.10112 -2.9256,-1.77181 -6.7715,-5.53582 l -4.3761,-4.28291 3.0384,-3.05928 c 1.6711,-1.68261 3.1513,-3.05928 3.2893,-3.05928 0.138,0 1.9854,1.70631 4.1054,3.79179 4.9738,4.89298 5.7759,5.32291 9.9398,5.32802 4.3011,0.005 4.9479,-0.35292 10.3789,-5.74795 2.368,-2.35234 4.3055,-4.45654 4.3055,-4.676 0,-0.21946 -0.6217,-1.02856 -1.3816,-1.79801 l -1.3816,-1.39899 2.204,-2.21555 c 1.3424,-1.34944 2.7137,-2.45426 3.5077,-2.82617 l 1.3038,-0.61063 1.8632,1.8356 c 1.0248,1.00958 2.1808,2.43091 2.569,3.15851 0.622,1.16604 0.7057,1.62099 0.7062,3.83646 5e-4,2.12967 -0.095,2.69538 -0.6241,3.70417 -0.6727,1.28224 -9.6565,10.53701 -11.677,12.02928 -1.5651,1.15587 -4.1748,2.46715 -6.187,3.10871 -2.483,0.79168 -7.6043,0.89169 -10.3248,0.20162 z"
           id="path21339" /><path
           style="fill:#ffffff;stroke-width:0.264583"
           d="m -2068.4572,653.66096 c 0.191,-0.0764 0.4192,-0.067 0.5071,0.0209 0.088,0.0879 -0.068,0.15046 -0.3472,0.13897 -0.3082,-0.0127 -0.3709,-0.0754 -0.1599,-0.15985 z"
           id="path21341" /><path
           style="fill:#ffffff;stroke-width:0.264583"
           d="m -1766.0549,654.19564 c 0.1819,-0.0734 0.4795,-0.0734 0.6614,0 0.1819,0.0734 0.033,0.13345 -0.3307,0.13345 -0.3638,0 -0.5126,-0.0601 -0.3307,-0.13345 z"
           id="path21343" /><path
           style="fill:#ffffff;stroke-width:0.264583"
           d="m -1579.6269,614.63043 c 0.191,-0.0764 0.4192,-0.067 0.5071,0.0209 0.088,0.0879 -0.068,0.15045 -0.3473,0.13897 -0.3082,-0.0127 -0.3709,-0.0754 -0.1598,-0.15986 z"
           id="path21345" /><path
           style="fill:#ffffff;stroke-width:0.264583"
           d="m -1468.3942,642.17026 c -2.7012,-2.78787 -3.127,-3.71614 -3.1263,-6.8158 0,-2.21796 0.084,-2.66911 0.7081,-3.83646 0.8108,-1.51616 10.3974,-11.17016 12.4695,-12.55726 4.905,-3.28349 11.6005,-4.15616 17.2475,-2.24796 3.4171,1.1547 5.494,2.65537 10.1207,7.31275 l 3.7707,3.79576 -3.1717,3.16348 -3.1718,3.16347 -3.9138,-3.88263 c -3.0186,-2.99449 -4.2565,-4.03951 -5.4118,-4.56842 -3.0231,-1.38403 -6.1236,-1.38309 -9.1507,0.003 -1.174,0.53745 -2.4297,1.61122 -5.8021,4.9613 -2.3672,2.35147 -4.3039,4.45496 -4.3039,4.67441 0,0.21946 0.6216,1.02839 1.3812,1.79762 l 1.3813,1.3986 -1.9766,2.00238 c -1.8762,1.90074 -3.4253,3.03376 -4.6411,3.39445 -0.4333,0.12854 -0.9372,-0.23927 -2.4092,-1.75847 z"
           id="path21347" /><path
           style="fill:#ffffff;stroke-width:0.264583"
           d="m -1571.975,652.8784 c 0.1795,-0.18082 0.393,-0.26211 0.4745,-0.18065 0.081,0.0815 -0.065,0.22941 -0.3263,0.32877 -0.3771,0.14358 -0.4075,0.11319 -0.1482,-0.14812 z"
           id="path21349" /><path
           style="fill:#ffffff;stroke-width:0.264583"
           d="m -1589.1122,653.37373 c -0.2183,-0.0428 -1.2789,-0.22172 -2.3568,-0.39767 -3.9587,-0.64614 -8.3991,-2.42128 -12.1953,-4.87527 -0.9459,-0.61145 -3.012,-2.28012 -4.5914,-3.70816 l -2.8715,-2.59643 3.1844,-3.18449 3.1845,-3.18449 1.6775,1.56834 c 3.5079,3.2797 5.4939,4.61699 8.8173,5.9372 5.153,2.04699 11.5419,2.12594 16.7929,0.2075 0.9459,-0.34557 6.9586,-3.44172 13.3615,-6.88032 12.4984,-6.71211 16.8085,-9.02982 19.3146,-10.38616 0.8731,-0.47256 2.7186,-1.46539 4.101,-2.20628 1.3825,-0.7409 3.5256,-1.89658 4.7625,-2.56819 9.1552,-4.97096 13.252,-6.2503 19.9949,-6.24391 9.005,0.009 16.3044,3.02261 23.2163,9.58662 l 2.3331,2.21564 -3.1835,3.16141 -3.1835,3.16141 -1.7954,-1.72825 c -4.6473,-4.4734 -9.0815,-6.67538 -14.76,-7.32955 -2.7141,-0.31266 -4.6953,-0.2113 -7.5406,0.38576 -2.8135,0.59037 -4.7798,1.42612 -10.0542,4.27334 -2.5466,1.37472 -5.4637,2.94796 -6.4823,3.49609 -36.3721,19.57187 -36.2965,19.53344 -40.2167,20.46235 -3.0978,0.73406 -5.1564,0.96999 -8.202,0.93996 -1.6008,-0.0158 -3.0891,-0.0637 -3.3073,-0.10645 z"
           id="path21351" /><path
           style="fill:#ffffff;stroke-width:0.264583"
           d="m -1637.105,652.29478 c -0.9055,-0.20592 -2.3574,-0.69349 -3.2264,-1.08347 l -1.58,-0.70907 0.8451,-0.67658 c 0.4648,-0.37212 2.0953,-1.89537 3.6233,-3.385 l 2.7781,-2.70841 2.3812,-0.10535 c 4.2209,-0.18674 4.034,-0.0474 15.875,-11.83152 6.0133,-5.98438 11.206,-10.92139 12.4451,-11.83235 3.9391,-2.89588 8.7702,-4.98916 13.4593,-5.83179 2.9092,-0.52279 8.2629,-0.57191 11.005,-0.10099 2.5433,0.43679 6.5661,1.71196 8.599,2.72573 1.9636,0.97927 17.7541,9.40022 18.6266,9.93346 0.6252,0.38208 0.5947,0.4099 -1.9844,1.81085 -1.4406,0.78254 -3.5781,1.91854 -4.7499,2.52443 l -2.1306,1.10162 -5.1454,-2.79246 c -9.7881,-5.31203 -11.4302,-5.99682 -15.7621,-6.57329 -5.2396,-0.69726 -11.2534,0.80476 -16.0063,3.99778 -1.0019,0.67313 -6.0408,5.44474 -12.4031,11.74542 -11.5888,11.47636 -12.1809,11.95988 -16.2719,13.28663 -2.6417,0.85673 -7.7389,1.10446 -10.3776,0.50436 z"
           id="path21353" /><path
           style="fill:#ffffff;stroke-width:0.264583"
           d="m -1472.6135,654.05772 c -2.4111,-0.55256 -5.0899,-1.74821 -6.9932,-3.12126 -0.9141,-0.65946 -3.3272,-2.87513 -5.3624,-4.92371 l -3.7003,-3.72469 3.1638,-3.17204 3.1637,-3.17203 3.9826,3.9528 c 4.7734,4.73763 5.8029,5.33985 9.4306,5.51638 2.4388,0.11867 4.2109,-0.27701 6.0485,-1.35063 1.2707,-0.74242 9.2604,-8.66495 9.2604,-9.18259 0,-0.22967 -0.5953,-1.00395 -1.3229,-1.72061 -0.7276,-0.71666 -1.3229,-1.44119 -1.3229,-1.61006 0,-0.57744 3.9822,-4.09085 5.455,-4.81284 l 1.4705,-0.72085 1.9084,1.99014 c 2.617,2.72922 3.2064,3.99598 3.1981,6.8734 -0.01,3.37631 -0.3937,3.99384 -6.0611,9.74948 -6.0955,6.19037 -8.3738,7.83712 -12.5838,9.09556 -2.2948,0.68595 -7.4296,0.86188 -9.735,0.33355 z"
           id="path21355" /><path
           style="fill:#ffffff;stroke-width:0.264583"
           d="m -1519.9105,654.54181 c -2.6028,-0.23604 -5.8781,-1.01698 -8.4929,-2.02497 -1.7571,-0.67736 -20.5595,-10.57215 -21.1726,-11.14214 -0.2023,-0.1881 8.6136,-5.03705 9.1579,-5.03705 0.1422,0 3.248,1.60374 6.9017,3.56388 7.5278,4.03848 8.9625,4.67512 11.9367,5.29701 5.5477,1.15997 11.7888,0.159 16.6046,-2.66312 2.682,-1.57163 3.3087,-2.14115 13.9529,-12.68015 5.6026,-5.54717 10.6386,-10.41639 11.1911,-10.8205 4.9637,-3.63013 13.0258,-4.37887 19.0607,-1.7702 l 1.2799,0.55326 -1.2799,1.02984 c -0.7039,0.56641 -2.338,2.10297 -3.6312,3.41458 l -2.3514,2.38474 -2.0396,0.0218 c -2.0042,0.0215 -3.3028,0.33527 -5.0677,1.22469 -0.4895,0.24667 -5.3548,4.87718 -10.8119,10.29003 -12.1891,12.09046 -12.9275,12.72158 -17.641,15.07766 -5.4884,2.74342 -11.3896,3.84357 -17.5973,3.2806 z"
           id="path21357" /><path
           style="fill:#ffffff;stroke-width:0.264583"
           d="m -1579.908,655.64639 c 0.1819,-0.0734 0.4795,-0.0734 0.6614,0 0.1819,0.0734 0.033,0.13345 -0.3307,0.13345 -0.3638,0 -0.5126,-0.0601 -0.3307,-0.13345 z"
           id="path21359" /><path
           style="fill:#ffffff;stroke-width:0.264583"
           d="m -1392.2699,614.64043 c 0.191,-0.0764 0.4192,-0.067 0.5071,0.0209 0.088,0.0879 -0.068,0.15045 -0.3473,0.13897 -0.3082,-0.0127 -0.3709,-0.0754 -0.1598,-0.15986 z"
           id="path21361" /><path
           style="fill:#ffffff;stroke-width:0.264583"
           d="m -1281.0371,642.18026 c -2.7012,-2.78787 -3.127,-3.71614 -3.1263,-6.8158 0,-2.21796 0.084,-2.66911 0.7081,-3.83646 0.8108,-1.51616 10.3974,-11.17016 12.4695,-12.55726 4.905,-3.28349 11.6005,-4.15616 17.2475,-2.24796 3.4171,1.1547 5.494,2.65537 10.1207,7.31275 l 3.7707,3.79576 -3.1717,3.16348 -3.1718,3.16347 -3.9138,-3.88263 c -3.0186,-2.99449 -4.2565,-4.03951 -5.4118,-4.56842 -3.0231,-1.38403 -6.1236,-1.38309 -9.1507,0.003 -1.174,0.53745 -2.4297,1.61122 -5.8021,4.9613 -2.3672,2.35147 -4.3039,4.45496 -4.3039,4.67441 0,0.21946 0.6216,1.02839 1.3812,1.79762 l 1.3813,1.3986 -1.9766,2.00238 c -1.8762,1.90074 -3.4253,3.03376 -4.6411,3.39445 -0.4333,0.12854 -0.9372,-0.23927 -2.4092,-1.75847 z"
           id="path21363" /><path
           style="fill:#ffffff;stroke-width:0.264583"
           d="m -1384.618,652.8884 c 0.1795,-0.18082 0.393,-0.26211 0.4745,-0.18065 0.081,0.0815 -0.065,0.22941 -0.3263,0.32877 -0.3771,0.14358 -0.4075,0.11319 -0.1482,-0.14812 z"
           id="path21365" /><path
           style="fill:#ffffff;stroke-width:0.264583"
           d="m -1401.7552,653.38373 c -0.2183,-0.0428 -1.2789,-0.22172 -2.3568,-0.39767 -3.9587,-0.64614 -8.3991,-2.42128 -12.1953,-4.87527 -0.9459,-0.61145 -3.012,-2.28012 -4.5914,-3.70816 l -2.8715,-2.59643 3.1844,-3.18449 3.1845,-3.18449 1.6775,1.56834 c 3.5079,3.2797 5.4939,4.61699 8.8173,5.9372 5.153,2.04699 11.5419,2.12594 16.7929,0.2075 0.9459,-0.34557 6.9586,-3.44172 13.3615,-6.88032 12.4984,-6.71211 16.8085,-9.02982 19.3146,-10.38616 0.8731,-0.47256 2.7186,-1.46539 4.101,-2.20628 1.3825,-0.7409 3.5256,-1.89658 4.7625,-2.56819 9.1552,-4.97096 13.252,-6.2503 19.9949,-6.24391 9.005,0.009 16.3044,3.02261 23.2163,9.58662 l 2.3331,2.21564 -3.1835,3.16141 -3.1835,3.16141 -1.7954,-1.72825 c -4.6473,-4.4734 -9.0815,-6.67538 -14.76,-7.32955 -2.7141,-0.31266 -4.6953,-0.2113 -7.5406,0.38576 -2.8135,0.59037 -4.7798,1.42612 -10.0542,4.27334 -2.5466,1.37472 -5.4637,2.94796 -6.4823,3.49609 -36.3721,19.57187 -36.2965,19.53344 -40.2167,20.46235 -3.0978,0.73406 -5.1564,0.96999 -8.202,0.93996 -1.6008,-0.0158 -3.0891,-0.0637 -3.3073,-0.10645 z"
           id="path21367" /><path
           style="fill:#ffffff;stroke-width:0.264583"
           d="m -1449.748,652.30478 c -0.9055,-0.20592 -2.3574,-0.69349 -3.2264,-1.08347 l -1.58,-0.70907 0.8451,-0.67658 c 0.4648,-0.37212 2.0953,-1.89537 3.6233,-3.385 l 2.7781,-2.70841 2.3812,-0.10535 c 4.2209,-0.18674 4.034,-0.0474 15.875,-11.83152 6.0133,-5.98438 11.206,-10.92139 12.4451,-11.83235 3.9391,-2.89588 8.7702,-4.98916 13.4593,-5.83179 2.9092,-0.52279 8.2629,-0.57191 11.005,-0.10099 2.5433,0.43679 6.5661,1.71196 8.599,2.72573 1.9636,0.97927 17.7541,9.40022 18.6266,9.93346 0.6252,0.38208 0.5947,0.4099 -1.9844,1.81085 -1.4406,0.78254 -3.5781,1.91854 -4.7499,2.52443 l -2.1306,1.10162 -5.1454,-2.79246 c -9.7881,-5.31203 -11.4302,-5.99682 -15.7621,-6.57329 -5.2396,-0.69726 -11.2534,0.80476 -16.0063,3.99778 -1.0019,0.67313 -6.0408,5.44474 -12.4031,11.74542 -11.5888,11.47636 -12.1809,11.95988 -16.2719,13.28663 -2.6417,0.85673 -7.7389,1.10446 -10.3776,0.50436 z"
           id="path21369" /><path
           style="fill:#ffffff;stroke-width:0.264583"
           d="m -1285.2564,654.06772 c -2.4111,-0.55256 -5.0899,-1.74821 -6.9933,-3.12126 -0.9141,-0.65946 -3.3272,-2.87513 -5.3624,-4.92371 l -3.7003,-3.72469 3.1638,-3.17204 3.1637,-3.17203 3.9827,3.9528 c 4.7734,4.73763 5.8029,5.33985 9.4306,5.51638 2.4388,0.11867 4.2109,-0.27701 6.0485,-1.35063 1.2707,-0.74242 9.2604,-8.66495 9.2604,-9.18259 0,-0.22967 -0.5953,-1.00395 -1.3229,-1.72061 -0.7276,-0.71666 -1.3229,-1.44119 -1.3229,-1.61006 0,-0.57744 3.9822,-4.09085 5.455,-4.81284 l 1.4705,-0.72085 1.9084,1.99014 c 2.617,2.72922 3.2064,3.99598 3.1981,6.8734 -0.01,3.37631 -0.3937,3.99384 -6.0611,9.74948 -6.0955,6.19037 -8.3738,7.83712 -12.5838,9.09556 -2.2948,0.68595 -7.4296,0.86188 -9.735,0.33355 z"
           id="path21371" /><path
           style="fill:#ffffff;stroke-width:0.264583"
           d="m -1332.5535,654.55181 c -2.6028,-0.23604 -5.8781,-1.01698 -8.4929,-2.02497 -1.7571,-0.67736 -20.5595,-10.57215 -21.1726,-11.14214 -0.2023,-0.1881 8.6136,-5.03705 9.1579,-5.03705 0.1422,0 3.248,1.60374 6.9017,3.56388 7.5278,4.03848 8.9625,4.67512 11.9367,5.29701 5.5477,1.15997 11.7888,0.159 16.6046,-2.66312 2.682,-1.57163 3.3087,-2.14115 13.9529,-12.68015 5.6026,-5.54717 10.6386,-10.41639 11.1911,-10.8205 4.9638,-3.63013 13.0259,-4.37887 19.0608,-1.7702 l 1.2799,0.55326 -1.2799,1.02984 c -0.7039,0.56641 -2.338,2.10297 -3.6312,3.41458 l -2.3514,2.38474 -2.0396,0.0218 c -2.0042,0.0215 -3.3028,0.33527 -5.0677,1.22469 -0.4895,0.24667 -5.3549,4.87718 -10.812,10.29003 -12.1891,12.09046 -12.9275,12.72158 -17.641,15.07766 -5.4884,2.74342 -11.3896,3.84357 -17.5973,3.2806 z"
           id="path21373" /><path
           style="fill:#ffffff;stroke-width:0.264583"
           d="m -1392.551,655.65639 c 0.1819,-0.0734 0.4795,-0.0734 0.6614,0 0.1819,0.0734 0.033,0.13345 -0.3307,0.13345 -0.3638,0 -0.5126,-0.0601 -0.3307,-0.13345 z"
           id="path21375" /><path
           style="fill:#ffffff;stroke-width:0.264583"
           d="m -1205.9916,615.93283 c 0.191,-0.0764 0.4192,-0.067 0.5071,0.0209 0.088,0.0879 -0.068,0.15045 -0.3473,0.13897 -0.3082,-0.0127 -0.3709,-0.0754 -0.1598,-0.15986 z"
           id="path21377" /><path
           style="fill:#ffffff;stroke-width:0.264583"
           d="m -1094.7589,643.47266 c -2.7012,-2.78787 -3.127,-3.71614 -3.1263,-6.8158 0,-2.21796 0.084,-2.66911 0.7081,-3.83646 0.8108,-1.51616 10.3974,-11.17016 12.4695,-12.55726 4.905,-3.28349 11.6005,-4.15616 17.2475,-2.24796 3.4171,1.1547 5.494,2.65537 10.1207,7.31275 l 3.7707,3.79576 -3.1717,3.16348 -3.1718,3.16347 -3.9138,-3.88263 c -3.0186,-2.99449 -4.2565,-4.03951 -5.4118,-4.56842 -3.0231,-1.38403 -6.1236,-1.38309 -9.1507,0.003 -1.174,0.53745 -2.4297,1.61122 -5.8021,4.9613 -2.3672,2.35147 -4.3039,4.45496 -4.3039,4.67441 0,0.21946 0.6216,1.02839 1.3812,1.79762 l 1.3813,1.3986 -1.9766,2.00238 c -1.8762,1.90074 -3.4253,3.03376 -4.6411,3.39445 -0.4333,0.12854 -0.9372,-0.23927 -2.4092,-1.75847 z"
           id="path21379" /><path
           style="fill:#ffffff;stroke-width:0.264583"
           d="m -1198.3397,654.1808 c 0.1795,-0.18082 0.393,-0.26211 0.4745,-0.18065 0.081,0.0815 -0.065,0.22941 -0.3263,0.32877 -0.3771,0.14358 -0.4075,0.11319 -0.1482,-0.14812 z"
           id="path21381" /><path
           style="fill:#ffffff;stroke-width:0.264583"
           d="m -1215.4769,654.67613 c -0.2183,-0.0428 -1.2789,-0.22172 -2.3568,-0.39767 -3.9587,-0.64614 -8.3991,-2.42128 -12.1953,-4.87527 -0.9459,-0.61145 -3.012,-2.28012 -4.5914,-3.70816 l -2.8715,-2.59643 3.1844,-3.18449 3.1845,-3.18449 1.6775,1.56834 c 3.5079,3.2797 5.4939,4.61699 8.8173,5.9372 5.153,2.04699 11.5419,2.12594 16.7929,0.2075 0.9459,-0.34557 6.9586,-3.44172 13.3615,-6.88032 12.4984,-6.71211 16.8085,-9.02982 19.3146,-10.38616 0.8731,-0.47256 2.7186,-1.46539 4.101,-2.20628 1.3825,-0.7409 3.5256,-1.89658 4.7625,-2.56819 9.1552,-4.97096 13.252,-6.2503 19.9949,-6.24391 9.005,0.009 16.3044,3.02261 23.2163,9.58662 l 2.3331,2.21564 -3.1835,3.16141 -3.1835,3.16141 -1.7954,-1.72825 c -4.6473,-4.4734 -9.0815,-6.67538 -14.76,-7.32955 -2.7141,-0.31266 -4.6953,-0.2113 -7.5406,0.38576 -2.8135,0.59037 -4.7798,1.42612 -10.0542,4.27334 -2.5466,1.37472 -5.4637,2.94796 -6.4823,3.49609 -36.3721,19.57187 -36.2965,19.53344 -40.2167,20.46235 -3.0978,0.73406 -5.1564,0.96999 -8.202,0.93996 -1.6008,-0.0158 -3.0891,-0.0637 -3.3073,-0.10645 z"
           id="path21383" /><path
           style="fill:#ffffff;stroke-width:0.264583"
           d="m -1075.4942,654.46118 c -1.1487,-0.1918 -3.366,-0.86309 -4.6047,-1.39403 l -1.1942,-0.51191 3.448,-3.38755 3.448,-3.38754 2.5603,-0.15762 c 4.4796,-0.27579 4.1131,-0.003 16.4318,-12.22534 7.2894,-7.23231 11.3716,-11.08335 12.7191,-11.99876 9.081,-6.16914 20.1928,-7.48782 30.2357,-3.58818 1.898,0.73702 32.45369,16.98108 32.45589,17.25427 0,0.0728 -4.2448,2.39448 -9.4343,5.15938 -5.1894,2.76489 -12.03509,6.43532 -15.21249,8.15651 -9.0957,4.92712 -12.0946,5.83832 -19.2594,5.85199 -3.5494,0.007 -5.1551,-0.10566 -6.8791,-0.48166 -6.3795,-1.39132 -12.6419,-4.87493 -17.2623,-9.60254 l -1.5196,-1.55484 3.1594,-3.15123 3.1595,-3.15123 2.0643,1.97002 c 4.8921,4.66868 9.5587,6.74401 15.8366,7.04297 3.5651,0.16977 5.7567,-0.11449 8.8496,-1.14783 1.9684,-0.65766 15.4233,-7.68603 16.50299,-8.62063 l 0.5626,-0.48699 -0.73999,-0.58202 c -1.573,-1.23723 -14.8452,-8.10488 -16.949,-8.77022 -6.9161,-2.18721 -14.3553,-1.08003 -20.4796,3.04801 -0.6899,0.46499 -6.0168,5.57377 -11.8377,11.35286 -6.5843,6.53712 -11.158,10.86932 -12.1043,11.4652 -3.3715,2.12297 -6.8737,3.10458 -10.8656,3.04539 -1.3365,-0.0198 -2.7277,-0.0857 -3.0915,-0.14648 z"
           id="path21385" /><path
           style="fill:#ffffff;stroke-width:0.264583"
           d="m -1263.4697,653.59718 c -0.9055,-0.20592 -2.3574,-0.69349 -3.2264,-1.08347 l -1.58,-0.70907 0.8451,-0.67658 c 0.4648,-0.37212 2.0953,-1.89537 3.6233,-3.385 l 2.7781,-2.70841 2.3812,-0.10535 c 4.2209,-0.18674 4.034,-0.0474 15.875,-11.83152 6.0133,-5.98438 11.206,-10.92139 12.4451,-11.83235 3.9391,-2.89588 8.7702,-4.98916 13.4593,-5.83179 2.9092,-0.52279 8.2629,-0.57191 11.005,-0.10099 2.5433,0.43679 6.5661,1.71196 8.599,2.72573 1.9636,0.97927 17.7541,9.40022 18.6266,9.93346 0.6252,0.38208 0.5947,0.4099 -1.9844,1.81085 -1.4406,0.78254 -3.5781,1.91854 -4.7499,2.52443 l -2.1306,1.10162 -5.1454,-2.79246 c -9.7881,-5.31203 -11.4302,-5.99682 -15.7621,-6.57329 -5.2396,-0.69726 -11.2534,0.80476 -16.0063,3.99778 -1.0019,0.67313 -6.0408,5.44474 -12.4031,11.74542 -11.5888,11.47636 -12.1809,11.95988 -16.2719,13.28663 -2.6417,0.85673 -7.7389,1.10446 -10.3776,0.50436 z"
           id="path21387" /><path
           style="fill:#ffffff;stroke-width:0.264583"
           d="m -1098.9782,655.36012 c -2.4111,-0.55256 -5.0899,-1.74821 -6.9932,-3.12126 -0.9141,-0.65946 -3.3272,-2.87513 -5.3624,-4.92371 l -3.7003,-3.72469 3.1638,-3.17204 3.1637,-3.17203 3.9826,3.9528 c 4.7734,4.73763 5.8029,5.33985 9.4306,5.51638 2.4388,0.11867 4.2109,-0.27701 6.0485,-1.35063 1.2707,-0.74242 9.2604,-8.66495 9.2604,-9.18259 0,-0.22967 -0.5953,-1.00395 -1.3229,-1.72061 -0.7276,-0.71666 -1.3229,-1.44119 -1.3229,-1.61006 0,-0.57744 3.9822,-4.09085 5.455,-4.81284 l 1.4705,-0.72085 1.9084,1.99014 c 2.617,2.72922 3.2064,3.99598 3.1981,6.8734 -0.01,3.37631 -0.3937,3.99384 -6.0611,9.74948 -6.0955,6.19037 -8.3738,7.83712 -12.5838,9.09556 -2.2948,0.68595 -7.4296,0.86188 -9.735,0.33355 z"
           id="path21389" /><path
           style="fill:#ffffff;stroke-width:0.264583"
           d="m -1146.2752,655.84421 c -2.6028,-0.23604 -5.8781,-1.01698 -8.4929,-2.02497 -1.7571,-0.67736 -20.5595,-10.57215 -21.1726,-11.14214 -0.2023,-0.1881 8.6136,-5.03705 9.1579,-5.03705 0.1422,0 3.248,1.60374 6.9017,3.56388 7.5278,4.03848 8.9625,4.67512 11.9367,5.29701 5.5477,1.15997 11.7888,0.159 16.6046,-2.66312 2.682,-1.57163 3.3087,-2.14115 13.9529,-12.68015 5.6026,-5.54717 10.6386,-10.41639 11.1911,-10.8205 4.9637,-3.63013 13.0258,-4.37887 19.0607,-1.7702 l 1.2799,0.55326 -1.2799,1.02984 c -0.7039,0.56641 -2.338,2.10297 -3.6312,3.41458 l -2.3514,2.38474 -2.0396,0.0218 c -2.0042,0.0215 -3.3028,0.33527 -5.0677,1.22469 -0.4895,0.24667 -5.3548,4.87718 -10.8119,10.29003 -12.1891,12.09046 -12.9275,12.72158 -17.641,15.07766 -5.4884,2.74342 -11.3896,3.84357 -17.5973,3.2806 z"
           id="path21391" /><path
           style="fill:#ffffff;stroke-width:0.264583"
           d="m -1206.2727,656.94879 c 0.1819,-0.0734 0.4795,-0.0734 0.6614,0 0.1819,0.0734 0.033,0.13345 -0.3307,0.13345 -0.3638,0 -0.5126,-0.0601 -0.3307,-0.13345 z"
           id="path21393" /></g></g></g></svg>
