<?xml version="1.0" encoding="UTF-8" standalone="no"?>
<!-- Created with Inkscape (http://www.inkscape.org/) -->

<svg
   width="149.42305mm"
   height="149.36938mm"
   viewBox="0 0 149.42305 149.36938"
   version="1.1"
   id="svg5"
   xml:space="preserve"
   xmlns:inkscape="http://www.inkscape.org/namespaces/inkscape"
   xmlns:sodipodi="http://sodipodi.sourceforge.net/DTD/sodipodi-0.dtd"
   xmlns="http://www.w3.org/2000/svg"
   xmlns:svg="http://www.w3.org/2000/svg"><sodipodi:namedview
     id="namedview7"
     pagecolor="#ffffff"
     bordercolor="#000000"
     borderopacity="0.25"
     inkscape:showpageshadow="2"
     inkscape:pageopacity="0.0"
     inkscape:pagecheckerboard="0"
     inkscape:deskcolor="#d1d1d1"
     inkscape:document-units="mm"
     showgrid="false" /><defs
     id="defs2" /><g
     inkscape:label="Camada 1"
     inkscape:groupmode="layer"
     id="layer1"
     transform="translate(374.9051,-304.61861)"><g
       id="g8584"
       inkscape:export-filename="moldura círculo.svg"
       inkscape:export-xdpi="96"
       inkscape:export-ydpi="96"><path
         id="path7356"
         style="fill:#ac6256;fill-opacity:1;stroke:#ac6256;stroke-width:0.264583;stroke-opacity:1"
         d="m -307.24274,304.75401 c -2.16415,0.0519 -3.75656,0.7635 -5.17747,2.28255 -0.64374,0.68822 -1.28593,1.45787 -1.4273,1.71049 -0.23437,0.4188 -0.41961,0.37198 -2.0991,-0.53175 -1.63947,-0.88222 -2.04535,-0.98964 -3.69383,-0.97824 -3.23979,0.0224 -5.92765,1.73802 -7.29464,4.65656 -0.51483,1.09925 -0.7066,1.28946 -1.15911,1.15032 -2.4761,-0.76136 -3.58282,-0.96045 -4.58473,-0.82372 -3.22702,0.4404 -5.73553,2.57228 -6.67814,5.67562 l -0.56689,1.86655 -2.19005,-0.15451 c -1.96096,-0.13839 -2.34033,-0.0855 -3.62872,0.50436 -2.97467,1.36185 -4.55415,3.58316 -4.87929,6.8616 l -0.17467,1.75907 -1.75234,0.17518 c -3.2885,0.32954 -5.49557,1.89622 -6.85488,4.86534 -0.58986,1.28837 -0.64275,1.66777 -0.50436,3.62871 l 0.15451,2.19005 -1.8588,0.56482 c -2.23711,0.6795 -3.86134,2.04504 -4.86017,4.08658 -1.11722,2.28384 -1.11864,3.70196 -0.006,7.17837 0.14585,0.45576 -0.0421,0.643 -1.17823,1.17512 -4.41594,2.06833 -6.02219,7.40476 -3.44991,11.4608 l 0.74362,1.17254 -1.59628,1.4056 c -2.27186,1.99977 -2.94861,3.55821 -2.79208,6.42958 0.1329,2.43785 0.51463,3.3561 2.11873,5.09633 l 1.06919,1.16065 -1.11518,1.21027 c -1.7347,1.8819 -2.21201,3.21306 -2.07119,5.7769 0.1482,2.69837 0.73592,3.89132 2.82463,5.72989 l 1.56735,1.37924 -0.74931,1.22008 c -2.50968,4.08632 -1.03362,9.15215 3.30057,11.32851 0.73451,0.36883 1.36012,0.69165 1.39062,0.71675 0.0305,0.0251 -0.18743,0.81426 -0.48473,1.7539 -0.96636,3.05429 -0.17417,6.12376 2.13889,8.28735 1.156,1.0813 1.88807,1.42063 4.6948,2.17351 0.23311,0.0625 0.27614,0.6918 0.15968,2.34197 -0.15233,2.15858 -0.12285,2.33088 0.68627,3.97444 1.37319,2.78937 3.40974,4.16529 6.67866,4.51187 l 1.75803,0.18655 0.18655,1.75803 c 0.10252,0.96695 0.35584,2.16531 0.56276,2.66341 0.60587,1.45844 2.05049,3.01994 3.57601,3.86488 1.31276,0.72707 1.61157,0.78444 3.9858,0.76274 l 2.56729,-0.0238 0.54001,1.77922 c 0.94751,3.11947 3.47771,5.267 6.73034,5.71283 0.83217,0.11406 1.73086,-0.008 3.07837,-0.41703 1.04675,-0.31794 1.9362,-0.54078 1.9761,-0.49558 0.0399,0.0453 0.37387,0.6775 0.7426,1.40508 1.44633,2.854 4.03744,4.4636 7.19852,4.4726 1.63449,0.005 2.06877,-0.11002 3.69435,-0.97617 1.65848,-0.88367 1.86692,-0.93671 2.09238,-0.53382 0.86169,1.53976 2.96397,3.26084 4.66225,3.81683 h 5.1e-4 c 0.36517,0.11934 1.61585,0.18209 2.77968,0.13901 2.4029,-0.0889 3.29595,-0.45663 5.05705,-2.07998 l 1.16066,-1.06919 1.16013,1.06919 c 1.94043,1.78863 2.61444,2.04097 5.45445,2.04018 3.08207,-9e-4 4.08034,-0.45037 6.10247,-2.74763 l 1.37924,-1.56735 1.23662,0.76068 c 1.49814,0.92182 3.6623,1.42421 5.1263,1.19011 2.58693,-0.41367 5.02213,-2.18491 6.18361,-4.49792 0.37,-0.73684 0.70527,-1.37632 0.74517,-1.42162 0.0399,-0.0452 0.92884,0.17764 1.97559,0.49558 2.25762,0.68573 3.68123,0.57923 5.75055,-0.43098 1.95295,-0.9534 3.40095,-2.69949 4.07262,-4.91081 l 0.54622,-1.79834 2.02779,0.14986 c 2.63091,0.19493 4.61756,-0.49688 6.32364,-2.20297 1.45249,-1.45248 2.10722,-2.89671 2.33888,-5.15782 l 0.17931,-1.7508 1.75235,-0.1757 c 3.28851,-0.32954 5.49609,-1.89622 6.8554,-4.86534 0.58986,-1.28837 0.64223,-1.66776 0.50384,-3.62872 l -0.15451,-2.18953 1.80764,-0.54932 c 4.42386,-1.34369 6.72654,-5.68398 5.34024,-10.06553 -0.2973,-0.93964 -0.51574,-1.72932 -0.48524,-1.75442 0.0305,-0.0251 0.65113,-0.34699 1.37873,-0.71571 4.34485,-2.2019 5.82013,-7.24681 3.31297,-11.32903 l -0.7493,-1.22008 1.56683,-1.37924 c 2.29724,-2.02213 2.74683,-3.02042 2.74763,-6.10247 8.2e-4,-2.84001 -0.25104,-3.51402 -2.03967,-5.45445 l -1.0697,-1.16014 1.1157,-1.21026 c 1.73467,-1.88192 2.21201,-3.21305 2.07119,-5.77691 -0.1482,-2.69835 -0.73646,-3.89132 -2.82515,-5.72988 l -1.56683,-1.37924 0.74517,-1.22008 c 2.52217,-4.13001 1.06454,-9.13923 -3.29644,-11.32903 -0.73451,-0.36883 -1.3712,-0.70171 -1.4149,-0.74001 -0.0436,-0.0383 0.17735,-0.8274 0.49093,-1.75389 1.43734,-4.24669 -0.87709,-8.69186 -5.21105,-10.00818 l -1.81488,-0.55139 v -2.574 c 0,-2.16497 -0.0948,-2.75166 -0.59686,-3.69125 -1.44716,-2.70823 -3.60502,-4.13904 -6.71174,-4.45037 l -1.75235,-0.17518 -0.17415,-1.75907 c -0.32514,-3.27844 -1.90513,-5.49975 -4.8798,-6.8616 -1.28839,-0.58986 -1.66776,-0.64275 -3.62872,-0.50436 l -2.18953,0.15451 -0.56741,-1.86655 c -0.94269,-3.10359 -3.45208,-5.23598 -6.67763,-5.67459 -0.97134,-0.13209 -3.32772,0.28095 -4.77852,0.83768 -0.2303,0.0884 -0.57632,-0.33423 -0.98082,-1.19786 -0.8064,-1.72173 -2.17406,-3.09559 -3.86126,-3.87884 -2.66448,-1.2369 -5.0857,-1.08632 -7.62744,0.47491 -1.20663,0.74116 -1.31795,0.76434 -1.56321,0.32608 -0.54701,-0.97745 -2.44484,-2.81597 -3.47576,-3.36724 -0.88116,-0.47117 -1.51427,-0.57248 -3.58376,-0.57309 -2.84001,-8.2e-4 -3.51402,0.25156 -5.45445,2.04019 l -1.16013,1.06918 -1.16066,-1.06918 c -1.69733,-1.56457 -2.67134,-1.98261 -4.92476,-2.1115 -0.33368,-0.0191 -0.65461,-0.025 -0.96376,-0.0176 z m 0.34674,5.47615 c 0.57033,-0.001 1.16707,0.29782 1.80144,0.89607 l 0.91158,0.85989 -1.24644,1.36323 -1.24643,1.36271 -1.32292,-1.06144 c -0.7276,-0.58401 -1.35351,-1.13986 -1.39061,-1.23506 -0.0371,-0.0952 0.29932,-0.61776 0.74724,-1.16117 0.56176,-0.68153 1.13902,-1.02297 1.74614,-1.02423 z m 13.3749,0.008 c 0.6243,-0.0112 1.20794,0.32717 1.77612,1.01648 0.44793,0.54341 0.78434,1.06608 0.74724,1.16168 -0.0371,0.0956 -0.67794,0.65384 -1.42369,1.24075 l -1.35599,1.06712 -1.21904,-1.4118 -1.21853,-1.4118 0.93017,-0.817 c 0.63043,-0.55353 1.21286,-0.83555 1.76372,-0.84543 z m 13.00489,2.47944 c 0.21748,-0.004 0.40318,0.0766 0.67179,0.22737 0.37261,0.20914 0.94148,0.8514 1.26452,1.42731 l 0.58757,1.04696 -1.50947,0.8599 c -0.83019,0.47294 -1.58729,0.86151 -1.68259,0.86351 -0.19597,0.004 -1.81126,-2.77985 -1.81126,-3.12126 0,-0.12193 0.55639,-0.49949 1.23662,-0.83922 0.6305,-0.31488 0.9632,-0.45948 1.24282,-0.46457 z m -39.47098,0.0692 c 0.39863,0.003 0.85395,0.14307 1.3901,0.41083 0.66299,0.33112 1.20561,0.70179 1.20561,0.82372 0,0.12193 -0.36861,0.87513 -0.81907,1.67329 -0.45045,0.79815 -0.89689,1.44997 -0.99219,1.44797 -0.0953,-0.002 -0.84293,-0.38878 -1.66191,-0.8599 l -1.48932,-0.85679 0.54261,-1.11156 c 0.50966,-1.04383 1.06316,-1.53405 1.82417,-1.52756 z m 19.80551,3.16828 c 0.19207,0 0.98648,0.75018 1.76527,1.66709 l 1.41593,1.66708 -0.60461,0.75551 c -1.28182,1.60224 -2.33089,1.49287 -4.01629,-0.41755 l -1.03146,-1.16892 1.06091,-1.2516 c 0.58352,-0.68846 1.21818,-1.25161 1.41025,-1.25161 z m 12.40235,0.91158 1.20096,2.05207 c 0.66072,1.12871 1.20037,2.11425 1.19837,2.19005 -0.002,0.0758 -0.41694,0.40586 -0.92242,0.73328 -1.67099,1.08237 -2.31139,0.81447 -3.66024,-1.53117 l -0.68988,-1.20044 1.4366,-1.1219 z m -24.75456,0.27905 c 0.35902,0 3.60908,2.57619 3.60908,2.86081 0,0.10513 -0.30171,0.63564 -0.67076,1.17874 -0.84381,1.24177 -1.69509,1.28664 -3.1657,0.16691 -0.58208,-0.44321 -1.21842,-0.89765 -1.41439,-1.00976 -0.28006,-0.16023 -0.17605,-0.52383 0.48783,-1.70015 0.46452,-0.82309 0.98383,-1.49655 1.15394,-1.49655 z m -19.6572,0.70538 c 0.34897,0.002 0.76458,0.0841 1.26969,0.2341 l 1.30948,0.38912 -0.55862,1.71669 c -0.45327,1.39415 -0.65957,1.71205 -1.09916,1.69085 -0.57908,-0.028 -2.78694,-0.67595 -2.98793,-0.87694 -0.0664,-0.0665 0.0733,-0.70635 0.31109,-1.42214 0.40634,-1.22338 0.86362,-1.73749 1.75545,-1.73168 z m 64.00384,0.0388 c 0.16897,-10e-4 0.30733,0.0139 0.39688,0.0465 0.67928,0.24767 1.38153,1.25116 1.58543,2.26653 0.15753,0.78446 0.11987,0.82185 -1.25987,1.25677 -0.78213,0.24655 -1.59595,0.44855 -1.80816,0.44855 -0.24109,0 -0.59543,-0.64465 -0.94464,-1.71876 l -0.55863,-1.71876 1.23249,-0.36225 c 0.46604,-0.13687 0.98478,-0.21629 1.3565,-0.21859 z m -56.26065,2.84634 c 0.60981,-0.0223 3.86771,1.62159 4.0442,2.08152 0.0764,0.19906 -0.11028,0.84972 -0.41444,1.44591 -0.47817,0.9373 -0.66827,1.08247 -1.40715,1.07177 -0.87226,-0.0126 -3.36827,-1.14877 -3.36827,-1.53324 0,-0.36315 0.85329,-2.80834 1.0604,-3.03857 0.0154,-0.0171 0.0446,-0.0259 0.0853,-0.0274 z m 48.54639,0.0403 c 0.0394,-0.002 0.0657,0.003 0.0765,0.0155 0.0931,0.10468 0.47436,1.11375 0.84749,2.24276 l 0.67851,2.0531 -0.71055,0.3607 c -2.05122,1.04309 -2.72291,0.74412 -3.48764,-1.55391 -0.32131,-0.96553 -0.53921,-1.8007 -0.48421,-1.8557 0.32071,-0.32071 2.61501,-1.24241 3.07991,-1.26245 z m -29.12483,2.75693 1.01906,1.04387 c 1.37558,1.40873 2.86919,2.09341 4.56716,2.09341 1.74012,0 2.75189,-0.43037 4.35116,-1.85002 0.69752,-0.6192 1.29916,-1.08111 1.33686,-1.02681 0.0377,0.0543 0.28608,0.45591 0.55191,0.89245 2.18164,3.58274 5.75136,4.32254 8.97878,1.86087 0.53654,-0.40924 1.01068,-0.69748 1.05368,-0.64078 0.043,0.0567 0.27991,0.64821 0.52658,1.31464 1.30212,3.51799 4.24792,5.0133 7.45071,3.7822 2.13928,-0.82231 2.08706,-0.84358 2.43603,0.99271 0.72076,3.79261 3.4974,5.51389 7.51375,4.65811 l 0.95343,-0.20309 0.15296,2.02158 c 0.28464,3.76355 2.15668,5.62878 5.89008,5.86838 l 1.91565,0.12299 -0.24753,0.82682 c -0.39504,1.3205 -0.33054,3.95891 0.11782,4.8178 0.86204,1.6513 2.65572,2.84289 4.7532,3.15743 0.6893,0.10336 1.25291,0.26345 1.25212,0.35605 -6.8e-4,0.0926 -0.29559,0.88283 -0.65526,1.75596 -0.81795,1.9855 -0.82824,3.08097 -0.045,4.76302 0.65599,1.40867 1.90535,2.45123 3.67782,3.06803 0.5457,0.1899 0.99218,0.44217 0.99218,0.56069 0,0.11853 -0.42356,0.85388 -0.94154,1.63401 -1.96318,2.95676 -1.43332,5.81124 1.47174,7.92509 l 1.52084,1.1064 -1.19734,1.3193 c -1.4716,1.62176 -1.91203,2.6271 -1.91203,4.36407 0,1.57465 0.60174,2.89165 1.9575,4.28449 1.12717,1.158 1.16178,1.35413 0.30593,1.74408 -1.1892,0.54184 -2.75687,2.19245 -3.21066,3.38067 -0.6515,1.70591 -0.37352,3.53585 0.8077,5.31493 0.5132,0.77293 0.93328,1.44765 0.93328,1.49965 0,0.052 -0.44648,0.22818 -0.99219,0.3917 -3.81614,1.14351 -5.39894,4.1983 -4.03489,7.78712 0.29096,0.76555 0.52909,1.51383 0.52916,1.66244 7e-5,0.1486 -0.72549,0.40817 -1.6123,0.5767 -3.79089,0.72043 -5.55143,3.56684 -4.64726,7.51376 l 0.21807,0.95239 -2.03863,0.154 c -3.78214,0.28605 -5.64592,2.15143 -5.88595,5.89163 l -0.12299,1.91565 -0.82682,-0.24753 c -1.38442,-0.41469 -3.92002,-0.35484 -4.82245,0.1142 -1.68794,0.87731 -3.28042,3.56978 -3.28042,5.54643 0,0.55678 -0.53553,0.47883 -1.98437,-0.28887 -0.48906,-0.25914 -1.47061,-0.42443 -2.55695,-0.42943 -1.54512,-0.008 -1.90502,0.0907 -2.91042,0.79685 -0.80424,0.56486 -1.38502,1.29085 -1.94303,2.42776 -0.43781,0.89201 -0.86833,1.69412 -0.95653,1.78232 -0.0882,0.0882 -0.79818,-0.25972 -1.57768,-0.77308 -2.26143,-1.48933 -4.38706,-1.58931 -6.33812,-0.29817 -0.56721,0.37537 -1.43136,1.27644 -1.92029,2.00246 l -0.88884,1.32033 -0.75137,-0.78445 c -2.93416,-3.06257 -6.17675,-3.30124 -9.00979,-0.66301 -0.70376,0.65537 -1.34579,1.18519 -1.42679,1.17719 -0.081,-0.008 -0.50445,-0.56518 -0.94102,-1.23868 -2.04838,-3.16011 -5.18077,-3.90222 -8.10545,-1.9203 -0.63522,0.43046 -1.27403,0.7821 -1.41955,0.78187 -0.14552,-2.4e-4 -0.65558,-0.83216 -1.13327,-1.84899 -0.65158,-1.387 -1.13426,-2.02478 -1.93373,-2.55384 -1.36928,-0.90615 -3.35332,-1.09859 -5.0028,-0.48473 -2.34175,0.87149 -2.29237,0.88644 -2.49545,-0.73897 -0.45909,-3.67447 -3.48641,-5.77847 -7.13083,-4.95577 -0.71053,0.16035 -1.33837,0.245 -1.39527,0.1881 -0.0569,-0.0569 -0.14633,-0.95894 -0.19843,-2.00453 -0.18018,-3.61198 -2.14063,-5.55169 -5.85133,-5.78983 l -1.90841,-0.12247 0.22325,-0.95963 c 0.34639,-1.49019 0.27505,-3.95376 -0.13746,-4.74338 -0.83647,-1.60114 -2.65399,-2.78954 -4.74545,-3.10317 -1.01428,-0.1521 -1.24662,-0.27945 -1.13378,-0.62115 0.078,-0.23631 0.3817,-1.08428 0.67489,-1.88464 0.61579,-1.68105 0.66883,-2.47734 0.24908,-3.73104 -0.52273,-1.56126 -1.46651,-2.54115 -3.26853,-3.39256 -0.94687,-0.44737 -1.72186,-0.88118 -1.72186,-0.96428 0,-0.0831 0.33998,-0.64899 0.75551,-1.25729 2.17426,-3.18296 1.62581,-6.31084 -1.47433,-8.4062 -0.69593,-0.47037 -1.31816,-0.89868 -1.38286,-0.95188 -0.0647,-0.0532 0.32216,-0.45954 0.8599,-0.90279 1.53642,-1.26647 2.30011,-2.78943 2.30011,-4.5868 0,-1.82212 -0.53439,-3.06448 -1.90944,-4.43952 -0.55053,-0.55053 -0.9945,-1.09027 -0.9865,-1.19941 0.008,-0.10914 0.56518,-0.55563 1.23868,-0.99219 0.6735,-0.43657 1.59019,-1.25153 2.03657,-1.81074 0.73751,-0.92389 0.81132,-1.19158 0.81132,-2.93316 0,-1.77268 -0.0745,-2.02902 -0.99219,-3.41116 -0.5457,-0.82189 -0.99219,-1.53653 -0.99219,-1.58853 0,-0.052 0.44649,-0.22856 0.99219,-0.39222 3.74436,-1.12289 5.38647,-4.24624 4.06074,-7.72356 -0.30514,-0.80036 -0.55494,-1.57687 -0.55501,-1.72548 -8e-5,-0.14861 0.73793,-0.41051 1.63969,-0.58188 3.79843,-0.72186 5.36198,-3.24295 4.64003,-7.48223 l -0.20309,-1.19062 1.98076,-0.0233 c 1.70917,-0.0199 2.1544,-0.13025 3.2458,-0.8046 1.72642,-1.06672 2.5037,-2.52626 2.66237,-4.99866 l 0.12247,-1.90841 0.95963,0.22324 c 1.49019,0.34639 3.95377,0.27505 4.74338,-0.13746 1.59451,-0.83301 2.78978,-2.65455 3.10007,-4.72374 0.10337,-0.68931 0.26345,-1.25292 0.35605,-1.25212 0.0926,6.7e-4 0.88285,0.29558 1.75597,0.65526 0.87311,0.35967 1.93108,0.65742 2.35076,0.66042 2.28187,0.0188 4.51112,-1.63529 5.35057,-3.96978 0.50013,-1.3908 0.73094,-1.54571 1.40612,-0.9431 0.22974,0.20505 1.00069,0.6813 1.71359,1.05834 2.61588,1.38347 5.2173,0.66539 7.16339,-1.97818 z m -37.89536,1.63195 c 0.19854,1.5e-4 0.41446,0.0183 0.64905,0.0532 0.6604,0.0983 1.23566,0.2119 1.27796,0.2527 0.0423,0.0408 -0.004,0.86359 -0.10284,1.8278 l -0.17931,1.75286 -1.08831,-0.0424 c -0.59837,-0.0233 -1.45266,-0.0885 -1.89859,-0.14521 l -0.8108,-0.10335 0.17363,-1.35289 c 0.20219,-1.57607 0.76585,-2.24368 1.97921,-2.24275 z m 85.45473,5.1e-4 c 1.21119,-6.5e-4 1.77838,0.66527 1.97869,2.22674 l 0.17156,1.33687 -1.17615,0.16123 c -2.62024,0.35915 -2.59539,0.3736 -2.79673,-1.59163 -0.0987,-0.96421 -0.14514,-1.787 -0.10284,-1.8278 0.0423,-0.0408 0.61756,-0.1544 1.27796,-0.2527 0.23388,-0.0348 0.44931,-0.0526 0.64751,-0.0527 z m -7.43624,1.28158 c 0.0164,-3.8e-4 0.0268,0.001 0.03,0.005 0.19792,0.20584 0.61059,4.60117 0.447,4.76095 -0.0995,0.0972 -0.71949,0.25561 -1.37769,0.35191 -1.54108,0.22548 -1.94478,-0.2058 -2.33784,-2.49545 -0.16074,-0.93631 -0.2648,-1.72096 -0.231,-1.74356 0.19917,-0.13316 3.13587,-0.8708 3.46956,-0.8785 z m -70.58019,0.004 c 0.20906,-1e-5 1.16261,0.22766 2.26136,0.54312 l 2.20452,0.63252 -0.0708,1.17564 c -0.0488,0.8078 -0.24438,1.32048 -0.62477,1.63866 v 5.2e-4 c -0.64362,0.53799 -0.66811,0.5376 -2.71042,0.003 l -1.55443,-0.40669 0.17828,-1.74098 c 0.0981,-0.95733 0.22235,-1.78401 0.27595,-1.83761 0.005,-0.005 0.0187,-0.008 0.0403,-0.008 z m 78.87271,7.89255 h 1.47071 l -0.14108,2.26497 c -0.0777,1.24562 -0.20379,2.32718 -0.28009,2.40348 -0.3876,0.38757 -2.20787,0.36409 -2.7621,-0.0357 -0.52421,-0.37811 -0.59531,-0.66105 -0.59531,-2.3704 0,-2.22986 0.033,-2.26239 2.30787,-2.26239 z m -88.56204,5.1e-4 1.12448,0.002 c 0.61847,10e-4 1.72739,0.0748 2.46393,0.1633 l 1.33894,0.16123 0.062,1.05472 c 0.0361,0.61108 -0.11238,1.32163 -0.35295,1.68878 v 5.2e-4 c -0.376,0.57386 -0.59987,0.63407 -2.36523,0.63407 -2.23507,0 -2.27118,-0.0361 -2.27118,-2.27066 z m 95.56988,0.12248 1.33428,0.13694 c 1.80762,0.18561 2.43874,0.98124 2.17455,2.74298 -0.20299,1.35363 -0.009,1.27939 -2.70423,1.03663 -1.25079,-0.11266 -1.30518,-0.26738 -0.9648,-2.75073 z m -101.70077,10e-4 c 0.55521,-0.008 0.55941,0.28928 0.67283,1.11673 0.31178,2.27467 0.23594,2.728 -0.45786,2.728 -0.34349,0 -1.1614,0.0734 -1.81746,0.16329 l -1.19321,0.16382 -0.18551,-1.23972 c -0.21409,-1.42765 0.2638,-2.44034 1.24436,-2.63756 0.87249,-0.17549 1.40372,-0.28994 1.73685,-0.29456 z m 2.21433,9.03356 c 0.89099,-0.004 0.95538,0.34329 1.15135,1.50326 0.22458,1.32928 -0.31387,1.92713 -1.94716,2.16266 -0.68243,0.0984 -1.4822,0.23654 -1.77716,0.30644 -0.46645,0.11062 -0.59738,-0.10256 -1.00614,-1.63659 -0.25848,-0.97004 -0.43374,-1.79378 -0.38964,-1.83038 0.0441,-0.0366 1.09065,-0.19235 2.32596,-0.34623 0.74307,-0.0926 1.2666,-0.15731 1.64279,-0.15916 z m 98.16404,0.047 1.75803,0.18655 c 0.9669,0.10242 1.79812,0.22429 1.84692,0.27079 0.0488,0.0465 -0.19295,1.07632 -0.53692,2.28875 -0.50378,1.77572 -0.72708,2.21052 -1.14722,2.23552 -1.11936,0.0666 -2.00473,-0.22463 -2.36781,-0.77876 -0.33096,-0.50507 -0.32624,-0.81135 0.0341,-2.39107 z m 9.00617,1.61592 0.82682,0.17209 c 1.95208,0.40614 2.66481,1.44522 2.16938,3.16259 -0.21209,0.73518 -0.46351,1.07366 -0.82373,1.10846 -0.44868,0.0434 -2.7038,-0.61401 -3.00653,-0.87643 -0.0585,-0.0508 0.10515,-0.8738 0.3638,-1.82934 z m -116.88744,0.0941 c 0.34638,0.007 0.45469,0.33489 0.80718,1.6371 0.25957,0.95895 0.42386,1.7841 0.36536,1.834 -0.0585,0.0499 -0.84849,0.33727 -1.75545,0.63872 l -1.649,0.54829 -0.39067,-1.31568 c -0.59561,-2.00565 -0.0901,-2.73918 2.26498,-3.28766 0.14488,-0.0337 0.26061,-0.0568 0.3576,-0.0548 z m 4.41316,8.15815 0.51263,1.15911 c 0.74243,1.67837 0.37289,2.33987 -1.69912,3.0396 -0.88097,0.29751 -1.6731,0.54106 -1.7601,0.54106 -0.29908,0 -1.62191,-2.9855 -1.40818,-3.1781 0.11766,-0.10603 1.14586,-0.50055 2.28462,-0.87695 z m 109.81604,0.50643 c 0.54882,3.5e-4 2.96199,0.97507 3.03599,1.22628 0.0371,0.12585 -0.37488,1.05562 -0.91571,2.06603 -0.54082,1.01042 -1.10246,1.87083 -1.24798,1.91203 -0.14552,0.0412 -0.7706,-0.15457 -1.38906,-0.43512 -0.93509,-0.42417 -1.1239,-0.63475 -1.1219,-1.25057 0.003,-0.96084 1.19458,-3.51891 1.63866,-3.51865 z m 8.28735,3.19877 1.04696,0.58757 c 0.57591,0.32304 1.21817,0.89191 1.42731,1.26452 0.34462,0.61399 0.32259,0.79373 -0.2372,1.91461 -0.33973,0.68023 -0.74565,1.22963 -0.90175,1.22163 -0.39786,-0.0209 -3.06273,-1.58581 -3.05873,-1.79627 0.002,-0.0951 0.39057,-0.85241 0.86351,-1.68259 z m -127.7736,0.0346 0.78032,1.46968 c 0.42921,0.80854 0.81513,1.55544 0.85783,1.65933 0.0427,0.1039 -0.58046,0.56039 -1.38493,1.0144 -0.80447,0.45402 -1.59024,0.82528 -1.74615,0.82528 -0.15591,0 -0.52483,-0.54638 -0.8201,-1.21388 -0.70136,-1.58556 -0.38308,-2.44528 1.18804,-3.20859 z m 5.47099,7.48533 c 0.52382,-0.02 1.5136,1.48479 1.5136,2.36161 0,0.47085 -0.31299,0.86635 -1.12448,1.42007 -2.19041,1.49462 -2.11601,1.49271 -3.19722,0.0749 -0.53333,-0.69935 -0.96997,-1.4017 -0.96997,-1.56063 0,-0.25623 2.66569,-1.89849 3.70417,-2.28203 0.0233,-0.009 0.0481,-0.013 0.0739,-0.014 z m 117.59282,0.42788 c 0.36036,-0.0162 2.98212,1.64618 2.9745,1.90944 -0.005,0.16801 -0.60333,1.04956 -1.32964,1.95906 -0.72631,0.90951 -1.40706,1.64512 -1.51257,1.63452 -0.34151,-0.0344 -1.71656,-0.98848 -1.94562,-1.34979 -0.41823,-0.65967 -0.23061,-1.33814 0.74518,-2.69647 0.53669,-0.7471 1.00128,-1.39639 1.03198,-1.44229 0.006,-0.009 0.0185,-0.0137 0.0362,-0.0145 z m -126.13597,4.99298 c 0.0779,0 0.6398,0.63758 1.2485,1.41696 l 1.10691,1.41697 -1.418,1.22422 -1.41748,1.22369 -0.81701,-0.93017 c -1.18028,-1.34426 -1.12624,-2.47074 0.1695,-3.5388 0.54247,-0.44715 1.04968,-0.81287 1.12758,-0.81287 z m 133.88433,0 c 0.0779,0 0.5851,0.36572 1.12758,0.81287 1.23542,1.01834 1.33783,2.16905 0.30179,3.40031 -0.37674,0.44772 -0.82321,0.80746 -0.99218,0.80046 -0.16896,-0.007 -0.86822,-0.49903 -1.5534,-1.09244 l -1.2454,-1.079 1.11001,-1.4211 c 0.61049,-0.78167 1.1737,-1.4211 1.2516,-1.4211 z m -127.00516,6.04304 0.78134,0.6165 c 0.82147,0.64798 1.22628,1.40652 1.10485,2.07171 -0.0398,0.21828 -0.62472,0.96242 -1.29915,1.65364 -0.67444,0.69122 -1.29019,1.25622 -1.36839,1.25522 -0.25014,-0.003 -2.65565,-2.1478 -2.65565,-2.36781 0,-0.11643 0.77308,-0.89102 1.71824,-1.72083 z m 120.91355,0.88987 c 0.14419,-0.008 0.79921,0.48608 1.48828,1.12448 l 1.29346,1.19837 -1.71979,1.58078 c -0.94589,0.86957 -1.78596,1.58509 -1.86656,1.59009 -0.0806,0.005 -0.52708,-0.38365 -0.99218,-0.86352 -1.20427,-1.24248 -1.12164,-2.01399 0.36535,-3.41271 0.66602,-0.62648 1.30476,-1.17311 1.41903,-1.21491 0.004,-10e-4 0.008,-0.002 0.0124,-0.003 z m 6.57169,6.30607 0.817,0.93018 c 1.19681,1.36308 1.1298,2.47185 -0.21342,3.5357 -0.56665,0.4488 -1.07268,0.81547 -1.12448,0.81494 -0.0518,-5.6e-4 -0.58911,-0.6422 -1.19424,-1.42576 l -1.10019,-1.42472 1.40766,-1.21543 z m -134.83777,0.25477 c 0.14877,0 0.84846,0.48448 1.55546,1.07642 l 1.28571,1.0759 -1.079,1.37149 c -0.59352,0.75412 -1.15755,1.40157 -1.25315,1.43867 -0.0956,0.0371 -0.61828,-0.29931 -1.16169,-0.74724 -0.78232,-0.64485 -0.98805,-0.99874 -0.98805,-1.70067 0,-0.88228 1.06514,-2.51457 1.64072,-2.51457 z m 8.14628,4.66328 c 0.24454,-0.005 0.5005,0.14648 0.90123,0.38292 1.06797,0.6301 1.44529,1.57542 0.97721,2.44843 -0.16955,0.31621 -0.69056,1.02197 -1.15807,1.56786 l -0.85008,0.99219 -0.92604,-0.56999 c -0.50932,-0.31358 -1.19757,-0.73562 -1.52963,-0.93793 l -0.60409,-0.36793 1.23816,-1.57562 c 1.11606,-1.42055 1.51539,-1.9302 1.95131,-1.93993 z m 119.53689,0.61185 0.95498,1.30018 c 0.52509,0.7153 0.95446,1.41229 0.95446,1.54874 0,0.13645 -0.86948,0.74588 -1.93218,1.35392 -1.06271,0.60803 -1.98542,1.10426 -2.05052,1.10226 -0.30003,-0.008 -1.30897,-1.90864 -1.30897,-2.46548 0,-0.71578 0.42917,-1.14069 2.15439,-2.13321 z m -125.5789,7.68945 c 0.35137,0 3.13542,1.61301 3.12642,1.81126 -0.004,0.0953 -0.39687,0.85031 -0.87178,1.67793 l -0.86351,1.50482 -1.0387,-0.58291 c -0.57136,-0.3205 -1.2212,-0.90725 -1.44384,-1.30431 -0.37686,-0.67215 -0.36111,-0.80455 0.22738,-1.91462 0.34764,-0.65576 0.73653,-1.19217 0.86403,-1.19217 z m 130.59874,0 c 0.11439,0 0.50238,0.53856 0.86197,1.19683 0.61031,1.1172 0.62686,1.24486 0.24908,1.91823 -0.22259,0.39675 -0.88322,0.9856 -1.46813,1.30844 l -1.0635,0.58705 -0.77308,-1.51309 c -0.42514,-0.83217 -0.81048,-1.5883 -0.85628,-1.68 -0.0856,-0.17134 2.67688,-1.81746 3.04994,-1.81746 z m -121.68249,3.0055 c 0.0892,-0.002 0.18671,0.016 0.30127,0.0444 2.20642,0.54702 2.54671,1.39152 1.48983,3.70004 -0.36558,0.79855 -0.82032,1.44273 -1.01027,1.43143 -0.45907,-0.0272 -2.77696,-0.86018 -2.98535,-1.0728 -0.0903,-0.0921 0.28734,-1.07989 0.83923,-2.19522 0.75089,-1.51727 0.97859,-1.89929 1.36529,-1.90789 z m 113.43287,0.9834 c 0.38648,0.0182 1.78402,2.91707 1.5167,3.15795 -0.11765,0.10603 -1.14534,0.50055 -2.2841,0.87695 l -2.07067,0.68471 -0.5364,-1.21233 c -0.52884,-1.19544 -0.52938,-1.22179 -0.031,-1.88929 0.42835,-0.57373 2.47652,-1.54907 3.39618,-1.61747 0.003,-2.2e-4 0.006,-6.6e-4 0.009,-5.2e-4 z m -117.88686,8.21862 1.65106,0.54829 c 0.90803,0.30181 1.69902,0.58985 1.75752,0.63975 0.0585,0.0499 -0.10359,0.86638 -0.36019,1.81436 -0.25661,0.94797 -0.60217,1.71373 -0.76791,1.70223 -0.16575,-0.0115 -0.79794,-0.19673 -1.40508,-0.41187 -1.4157,-0.50165 -1.74535,-1.31547 -1.23714,-3.05459 z m 121.698,0 0.3638,1.23817 c 0.41522,1.41362 0.25435,2.08823 -0.65061,2.73162 -0.3488,0.24798 -1.00615,0.52551 -1.46089,0.61701 -0.82624,0.16626 -0.82711,0.16524 -1.29708,-1.57096 -0.25865,-0.95554 -0.4223,-1.7779 -0.3638,-1.8278 0.0585,-0.0499 0.84949,-0.33794 1.75751,-0.63975 z m -111.96113,1.33274 c 0.75351,-0.01 2.01511,0.41291 2.32492,0.88573 0.34488,0.52635 0.33912,0.79499 -0.0501,2.34456 -0.42913,1.70862 -0.45912,1.74924 -1.26711,1.70584 -1.75576,-0.0943 -2.81223,-0.2595 -2.81223,-0.43977 0,-0.43708 1.11011,-4.16369 1.29708,-4.35425 0.0935,-0.0953 0.27679,-0.13904 0.50746,-0.14211 z m 102.91827,1.04955 c 0.11162,-0.002 0.1859,0.009 0.21135,0.0351 0.0689,0.0707 0.89917,3.25086 0.89917,3.44423 0,0.0734 -0.86321,0.21361 -1.91823,0.31161 -1.05502,0.098 -2.11935,0.23456 -2.36523,0.30386 -0.33483,0.0944 -0.51704,-0.12584 -0.72605,-0.8785 -0.38612,-1.39044 -0.3545,-1.78387 0.18397,-2.27118 0.33304,-0.30139 2.93367,-0.93216 3.71502,-0.94516 z m -95.14562,8.20311 c 0.53814,-0.004 1.08668,0.1268 1.42317,0.34727 0.58243,0.38164 0.64131,0.5984 0.64131,2.3673 0,1.79587 -0.0463,1.95972 -0.59532,2.10684 -0.32741,0.0877 -1.16085,0.16079 -1.85208,0.16279 l -1.25677,0.004 0.0315,-1.65365 c 0.0539,-2.8476 0.21139,-3.22814 1.37873,-3.32434 0.0758,-0.006 0.15257,-0.01 0.22944,-0.0103 z m -10.34458,0.79479 c 0.29369,-2.3e-4 0.9372,0.0442 1.66036,0.11834 1.74819,0.17907 1.75276,0.18214 1.74976,1.00304 -0.002,0.45285 -0.0767,1.26968 -0.16691,1.81539 -0.16065,0.97188 -0.18752,0.99219 -1.3317,0.99219 -0.90033,0 -1.32344,-0.15504 -1.84537,-0.67696 -0.60462,-0.60462 -0.65743,-0.81003 -0.49248,-1.91823 0.1016,-0.68261 0.2181,-1.27597 0.2589,-1.31827 0.0102,-0.0106 0.0695,-0.0154 0.16744,-0.0155 z m 107.36812,0 c 0.0979,6e-5 0.15723,0.005 0.16743,0.0155 0.0408,0.0423 0.1573,0.63566 0.2589,1.31827 0.16495,1.1082 0.11214,1.31361 -0.49248,1.91823 -0.52193,0.52192 -0.94503,0.67696 -1.84536,0.67696 -1.14419,0 -1.17105,-0.0203 -1.3317,-0.99219 -0.0902,-0.54571 -0.16492,-1.36254 -0.16692,-1.81539 -0.003,-0.8209 0.002,-0.82397 1.75028,-1.00304 0.72316,-0.074 1.36616,-0.11854 1.65985,-0.11834 z m -11.71401,0.44907 c 0.21717,-0.002 0.47152,0.003 0.77256,0.0114 1.08588,0.0299 1.90389,0.17913 2.0252,0.37001 0.11195,0.17612 0.20522,1.00501 0.20722,1.84175 l 0.004,1.52135 -1.52135,-0.0398 c -2.12437,-0.0553 -3.07474,-0.22193 -3.30212,-0.57929 -0.36055,-0.56665 -0.20806,-1.96279 0.2806,-2.56626 0.34681,-0.42832 0.59265,-0.55169 1.53376,-0.55913 z m -75.82122,6.47712 c 1.06015,-0.003 1.48859,0.54487 1.69551,1.97972 0.0984,0.68243 0.23654,1.4822 0.30644,1.77716 0.11033,0.46526 -0.0995,0.59665 -1.58388,0.99218 -0.94101,0.25074 -1.7621,0.45579 -1.8247,0.45579 -0.15536,0 -0.70181,-4.58687 -0.57154,-4.79764 0.0572,-0.0926 0.65182,-0.25047 1.32137,-0.35088 0.24222,-0.0363 0.46048,-0.0557 0.6568,-0.0563 z m 66.20837,0.82579 c 0.33494,-0.004 0.80435,0.0973 1.64331,0.30799 l 1.78232,0.44752 -0.16175,1.34875 c -0.0892,0.74186 -0.16385,1.55711 -0.16485,1.81178 -0.001,0.25466 -0.1509,0.45008 -0.3328,0.43408 -0.55666,-0.0489 -4.12924,-1.15128 -4.29431,-1.32498 -0.35991,-0.37875 0.21822,-2.39776 0.79479,-2.77554 0.24692,-0.16177 0.43775,-0.24635 0.73329,-0.2496 z m -73.44048,1.73323 0.17931,1.75286 c 0.0987,0.96421 0.14514,1.78269 0.10284,1.81849 -0.0423,0.0358 -0.62358,0.14443 -1.29191,0.24133 -1.67449,0.24275 -2.37968,-0.33914 -2.61276,-2.15594 l -0.17157,-1.33945 0.94103,-0.15555 c 0.51775,-0.0857 1.37143,-0.15664 1.89704,-0.15864 z m 83.25125,0 c 0.63665,0 1.50721,0.0696 1.93424,0.15503 0.76602,0.1532 0.77406,0.17372 0.6041,1.49861 -0.12028,0.93759 -0.3539,1.4894 -0.77308,1.82883 -0.33022,0.26739 -0.7955,0.4672 -1.03404,0.4439 -0.23854,-0.0233 -0.83527,-0.0913 -1.32654,-0.15141 l -0.89348,-0.10955 0.16588,-1.2082 c 0.0911,-0.66457 0.16536,-1.48896 0.16536,-1.83245 0,-0.56113 0.11747,-0.62476 1.15756,-0.62476 z m -65.6084,2.99568 c 0.78099,0.004 1.24831,0.67226 1.76371,2.22105 0.31048,0.93299 0.51646,1.74439 0.45786,1.80299 -0.0586,0.0586 -0.78865,0.40786 -1.62264,0.7767 -1.11562,0.49338 -1.54876,0.58356 -1.63866,0.34003 -0.0672,-0.18206 -0.41508,-1.19852 -0.77308,-2.25878 l -0.65061,-1.92804 1.16996,-0.56844 c 0.51861,-0.25196 0.93846,-0.3874 1.29346,-0.38551 z m 45.52797,0.76533 c 0.53818,0.004 1.19485,0.2018 1.96835,0.59376 0.73925,0.37461 1.34411,0.77685 1.34411,0.894 0,0.11714 -0.1944,0.80007 -0.43202,1.51722 -0.23763,0.71715 -0.50669,1.38816 -0.59789,1.49138 -0.0912,0.10321 -1.05762,-0.25397 -2.14768,-0.79375 -1.71036,-0.84695 -1.97212,-1.06829 -1.91202,-1.61437 0.15402,-1.399 0.74971,-2.09625 1.77715,-2.08824 z m -34.4718,2.87734 c 0.65596,0.007 1.15102,0.54293 1.88361,1.6521 0.56071,0.84894 0.97971,1.57105 0.93121,1.60455 -0.0485,0.0335 -0.63604,0.49972 -1.30587,1.03611 -0.66983,0.53639 -1.3433,0.97514 -1.49706,0.97514 -0.26297,0 -2.58345,-3.94593 -2.39831,-4.07831 1.10356,-0.78908 1.80763,-1.19551 2.38642,-1.18959 z m 23.1252,0.26045 c 0.5177,-0.0118 1.15375,0.30808 2.05569,0.95601 0.7471,0.53669 1.39639,1.00128 1.44229,1.03198 0.0459,0.0307 -0.29293,0.72231 -0.75292,1.53738 -0.46,0.81508 -0.97404,1.47829 -1.14205,1.47329 -0.31514,-0.009 -3.6127,-2.54787 -3.6127,-2.78122 0,-0.072 0.29894,-0.60472 0.66456,-1.18391 0.42809,-0.67817 0.82744,-1.02176 1.34513,-1.03353 z m -41.64448,0.24495 c 0.21927,0 0.59262,0.68939 0.92242,1.70377 l 0.55397,1.70429 -0.80408,0.28008 c -1.22902,0.42844 -2.44013,0.34097 -2.94091,-0.21239 -0.38362,-0.42389 -0.95911,-1.90144 -0.95911,-2.4629 0,-0.19361 2.61059,-1.01285 3.22771,-1.01285 z m 61.79467,0 c 0.65575,0 3.24012,0.82145 3.24012,1.02991 0,0.10927 -0.18666,0.74695 -0.41496,1.41697 -0.30593,0.89783 -0.60166,1.28181 -1.12448,1.45934 -0.72456,0.24604 -2.34149,-0.0303 -2.80448,-0.47904 -0.35893,-0.34787 0.63284,-3.42718 1.1038,-3.42718 z m -31.7009,0.69608 c 0.61824,-0.007 1.23271,0.46377 2.2381,1.59422 l 1.03095,1.1591 -1.04645,1.23506 c -0.57563,0.67915 -1.17042,1.27604 -1.32188,1.32654 -0.15145,0.0505 -0.95434,-0.68142 -1.78387,-1.62626 -1.50085,-1.7095 -1.50587,-1.72123 -1.05885,-2.40347 0.24707,-0.37708 0.78272,-0.85825 1.19062,-1.06918 0.26686,-0.13801 0.50946,-0.21333 0.75138,-0.21601 z m -18.1405,4.06642 c 0.15584,0 1.75235,2.84604 1.75235,3.12384 0,0.12193 -0.51902,0.48105 -1.15342,0.79788 -0.6344,0.31684 -1.19997,0.57406 -1.25677,0.57206 -0.55594,-0.021 -1.53899,-0.87994 -2.0345,-1.77819 l -0.6103,-1.10639 1.59422,-0.8046 c 0.8766,-0.44251 1.64542,-0.8046 1.70842,-0.8046 z m 37.90105,0 c 0.063,0 0.82658,0.35949 1.69705,0.79891 l 1.58285,0.79892 -0.51263,1.00459 c -0.28191,0.55258 -0.67046,1.13135 -0.863,1.28571 -0.72551,0.58167 -1.42831,0.58834 -2.53266,0.0248 -0.61846,-0.31559 -1.12448,-0.67208 -1.12448,-0.7922 0,-0.27552 1.59814,-3.12074 1.75287,-3.12074 z m -12.50932,2.3921 1.21078,0.96583 c 0.66611,0.53113 1.31656,1.05665 1.44539,1.16789 0.12883,0.11125 -0.14906,0.68646 -0.61753,1.27796 -1.08803,1.37375 -2.0865,1.44821 -3.52433,0.26303 l -0.98547,-0.81235 1.23558,-1.43092 z m -12.84572,5.2e-4 1.22008,1.42833 1.22008,1.42834 -0.98857,0.81494 c -1.40563,1.15863 -2.44038,1.10771 -3.49488,-0.17157 -0.44715,-0.54248 -0.81287,-1.04968 -0.81287,-1.12758 0,-0.0779 0.64244,-0.64389 1.42782,-1.25729 z" /><path
         style="fill:#fedeba;fill-opacity:1;stroke-width:0.264583"
         d="m -300.0043,314.28043 c 3.77103,-3.77103 5.39919,-5.07247 6.34589,-5.07247 0.94655,0 2.02126,0.64684 2.82459,1.70005 l 0.71506,0.9375 1.4449,-0.95936 c 0.7947,-0.52765 1.4449,-1.10434 1.4449,-1.28153 0,-0.56764 -2.14424,-2.78052 -3.27337,-3.37815 -1.6856,-0.89217 -4.64977,-0.83214 -6.28167,0.12721 -1.29977,0.7641 -7.05044,6.27907 -8.30134,7.96109 l -0.74797,1.00576 1.15518,1.17705 c 0.63535,0.64737 1.18318,1.17704 1.21741,1.17704 0.0342,0 1.58961,-1.52739 3.45642,-3.39419 z"
         id="path7610" /><path
         style="fill:#fedeba;fill-opacity:1;stroke-width:0.264583"
         d="m -289.39167,317.04952 c 1.85826,-1.42876 5.62362,-3.88147 7.11311,-4.63339 2.04885,-1.03431 3.51074,-0.53101 4.58736,1.57934 0.28994,0.56832 0.56946,1.03332 0.62115,1.03332 0.12685,0 3.18043,-1.35038 3.28648,-1.45337 0.26684,-0.25914 -1.43283,-2.87431 -2.45,-3.76966 -1.46429,-1.28892 -3.05642,-1.77775 -5.16687,-1.58638 -1.2501,0.11336 -1.99696,0.39782 -3.69248,1.40639 -2.24886,1.33772 -7.496,5.13595 -7.8205,5.661 -0.19747,0.31951 1.4065,2.91558 1.80196,2.91651 0.12019,2.9e-4 0.89409,-0.51891 1.71979,-1.15376 z"
         id="path7608" /><path
         style="fill:#fedeba;fill-opacity:1;stroke-width:0.264583"
         d="m -313.87685,317.33823 c 1.86758,-3.21258 4.52711,-6.85608 5.50005,-7.53496 1.20993,-0.84424 2.11337,-0.75448 3.56593,0.35428 l 1.24404,0.9496 1.28917,-1.26979 1.28916,-1.26978 -0.9808,-1.00443 c -2.70866,-2.77393 -7.2825,-2.64922 -9.92027,0.27048 -1.49096,1.65031 -6.30668,9.1391 -6.29101,9.78296 0.004,0.1703 2.57973,1.83768 2.90579,1.88115 0.0728,0.01 0.70183,-0.96208 1.39794,-2.15951 z"
         id="path7606" /><path
         style="fill:#fedeba;fill-opacity:1;stroke-width:0.264583"
         d="m -271.49597,317.81219 c 2.93219,-1.09256 3.99963,-1.11194 5.08497,-0.0923 0.34855,0.32745 0.76284,1.1081 0.92064,1.73477 0.1578,0.62667 0.36156,1.17975 0.4528,1.22908 0.37372,0.20205 3.47319,-0.68588 3.47319,-0.99499 0,-1.10368 -0.9446,-3.24791 -1.87587,-4.25822 -2.33545,-2.53366 -5.25207,-2.85905 -9.63351,-1.07474 -4.32459,1.76114 -7.87239,3.55761 -7.72548,3.91187 0.076,0.18316 0.39715,0.94492 0.71375,1.69278 l 0.57563,1.35976 2.68889,-1.26287 c 1.47888,-0.69458 3.87513,-1.70489 5.32499,-2.24512 z"
         id="path7604" /><path
         style="fill:#fedeba;fill-opacity:1;stroke-width:0.264583"
         d="m -325.79157,321.38302 c 1.29372,-3.75344 3.17703,-7.77611 4.05877,-8.66933 1.01399,-1.0272 2.1273,-1.129 3.6167,-0.33073 0.54302,0.29104 1.08994,0.52916 1.21539,0.52916 0.12545,0 0.66182,-0.65325 1.19194,-1.45166 l 0.96385,-1.45167 -1.07155,-0.67644 c -1.52461,-0.96244 -2.22199,-1.18273 -3.74433,-1.18273 -3.26512,0 -5.25424,1.47238 -6.96295,5.15409 -1.26477,2.72516 -3.36481,8.55148 -3.22907,8.95869 0.0821,0.2464 2.32634,1.16295 2.96865,1.21242 0.14552,0.0112 0.59219,-0.9301 0.9926,-2.0918 z"
         id="path7592" /><path
         style="fill:#fedeba;fill-opacity:1;stroke-width:0.264583"
         d="m -297.41542,325.37327 c 0.58209,-0.2705 1.50619,-0.95892 2.05357,-1.52982 l 0.99524,-1.038 -1.00487,-1.34682 -1.00486,-1.34682 -1.13773,1.06127 c -1.74385,1.62664 -2.3569,1.41808 -5.69115,-1.93619 -2.29383,-2.30761 -5.68402,-5.29015 -6.67785,-5.87486 -0.2629,-0.15468 -2.39651,2.64876 -2.1698,2.85099 0.0469,0.0419 1.03787,0.82366 2.20204,1.73729 1.16416,0.91363 3.36682,2.88462 4.89479,4.37997 1.52797,1.49536 3.13531,2.90431 3.57187,3.131 1.05926,0.55004 2.67274,0.51426 3.96875,-0.088 z"
         id="path7588" /><path
         style="fill:#fedeba;fill-opacity:1;stroke-width:0.264583"
         d="m -309.05481,326.44164 c 1.10061,-0.5 2.60095,-2.00822 3.11073,-3.12706 0.26684,-0.58565 0.1859,-0.73973 -0.88041,-1.67594 -0.64584,-0.56705 -1.23379,-1.0346 -1.30655,-1.039 -0.0728,-0.004 -0.39895,0.40368 -0.72486,0.90686 -1.30415,2.01349 -2.38573,2.05484 -4.8764,0.18643 -2.52535,-1.89443 -8.83538,-5.54482 -9.11001,-5.2702 -0.0586,0.0586 -0.39177,0.80759 -0.74036,1.6644 l -0.63379,1.55783 2.94948,1.55281 c 1.62221,0.85405 4.14011,2.35689 5.59531,3.33965 3.73293,2.52099 4.66729,2.78989 6.61686,1.90422 z"
         id="path7584" /><path
         style="fill:#fedeba;fill-opacity:1;stroke-width:0.264583"
         d="m -285.89541,326.57619 c 0.50348,-0.24002 1.25681,-0.70984 1.67408,-1.04404 l 0.75867,-0.60764 -0.75867,-1.49734 -0.75867,-1.49735 -1.16429,0.78284 c -2.03463,1.36803 -2.52223,1.08566 -5.27293,-3.05362 -2.0529,-3.08922 -5.16266,-7.01146 -5.55905,-7.01146 -0.10817,0 -0.71352,0.52662 -1.34521,1.17027 l -1.14853,1.17026 0.63042,0.77537 c 0.34673,0.42645 1.30881,1.60193 2.13795,2.61219 0.82913,1.01025 2.38249,3.13437 3.4519,4.72028 1.54395,2.28962 2.18705,3.01339 3.12269,3.51436 1.33049,0.7124 2.68871,0.70144 4.23164,-0.0341 z"
         id="path7582" /><path
         style="fill:#fedeba;fill-opacity:1;stroke-width:0.264583"
         d="m -250.77646,326.95488 c -0.14809,-2.06987 -0.93876,-3.7107 -2.36729,-4.91273 -1.77145,-1.49058 -3.37101,-1.80439 -6.70083,-1.31459 -2.96819,0.4366 -8.85684,1.86165 -9.22848,2.23328 -0.22809,0.2281 0.28697,3.44507 0.55158,3.44507 0.0629,0 1.26701,-0.29028 2.67582,-0.64507 3.21384,-0.80936 6.99073,-1.46964 8.41279,-1.47075 1.85098,-0.001 3.00605,1.44471 3.01077,3.76947 0.002,0.72562 0.007,0.7276 1.88911,0.7276 h 1.88763 z"
         id="path7580" /><path
         style="fill:#fedeba;fill-opacity:1;stroke-width:0.264583"
         d="m -336.61316,328.02859 c 0.3654,-3.93163 1.74158,-9.33177 2.62072,-10.28373 0.74699,-0.80886 2.0452,-1.0051 3.46004,-0.52302 l 1.16387,0.39657 0.70818,-1.72445 c 0.3895,-0.94845 0.67333,-1.75198 0.63073,-1.78563 -0.43904,-0.34677 -2.97179,-0.93103 -4.0272,-0.929 -2.78654,0.005 -5.55216,2.09677 -6.36104,4.8103 -0.84583,2.8375 -2.22811,10.91455 -1.92051,11.22214 0.0819,0.082 2.41833,0.51348 3.26361,0.6028 0.17423,0.0184 0.36109,-0.70455 0.4616,-1.78598 z"
         id="path7574" /><path
         style="fill:#fedeba;fill-opacity:1;stroke-width:0.264583"
         d="m -319.11619,329.09586 c 0.96533,-0.66328 2.50163,-3.0612 2.51405,-3.92402 0.004,-0.24281 -2.38712,-1.94093 -2.73244,-1.94093 -0.0457,0 -0.35606,0.58281 -0.68969,1.29513 -0.54406,1.16158 -1.36827,1.87987 -2.15708,1.87987 -0.14689,0 -1.64339,-0.59923 -3.32556,-1.33162 -2.75905,-1.20126 -8.82501,-3.23992 -9.03406,-3.03618 -0.0847,0.0825 -0.81525,3.02563 -0.83273,3.35459 -0.005,0.0976 0.37753,0.25896 0.85047,0.35862 1.63854,0.34527 6.61987,2.02823 8.76196,2.96025 3.6841,1.60296 4.77927,1.66629 6.64508,0.38429 z"
         id="path7572" /><path
         style="fill:#fedeba;fill-opacity:1;stroke-width:0.264583"
         d="m -274.39676,329.84554 1.14166,-0.48938 -0.40491,-1.60741 c -0.42681,-1.69436 -0.59814,-1.8191 -1.6627,-1.21055 -1.79569,1.02651 -3.07368,0.18236 -4.08938,-2.70117 -0.69379,-1.96963 -3.89928,-8.67562 -4.3893,-9.18256 -0.13976,-0.14458 -0.81721,0.14518 -1.68224,0.71952 l -1.44824,0.96158 1.94612,3.7784 c 1.07037,2.07812 2.32716,4.7744 2.79288,5.99174 0.46571,1.21733 1.16022,2.56177 1.54335,2.98764 1.40197,1.55836 3.72117,1.83735 6.25276,0.75219 z"
         id="path7570" /><path
         style="fill:#fedeba;fill-opacity:1;stroke-width:0.264583"
         d="m -329.11606,334.40247 c 0.99358,-0.70749 1.86811,-2.40742 2.09678,-4.07579 l 0.16628,-1.21317 -1.49686,-0.56005 c -0.82328,-0.30803 -1.53841,-0.56005 -1.58919,-0.56005 -0.0508,0 -0.17491,0.55073 -0.27585,1.22385 -0.20116,1.34144 -1.10127,2.48032 -1.96031,2.48032 -0.28616,0 -1.51197,-0.23211 -2.724,-0.51581 -2.75722,-0.64537 -7.43677,-1.33627 -9.05068,-1.33627 h -1.22282 v 1.69148 c 0,1.92798 0.0897,2.01268 2.1303,2.01268 1.54491,0 6.15307,0.66695 8.18845,1.18512 2.15311,0.54816 4.70931,0.40011 5.7379,-0.33231 z"
         id="path7564" /><path
         style="fill:#fedeba;fill-opacity:1;stroke-width:0.264583"
         d="m -265.40144,335.79744 c 0.58175,-0.0988 1.11753,-0.276 1.19063,-0.39372 0.0731,-0.11772 0.0917,-0.88784 0.0413,-1.71137 l -0.0915,-1.49733 -1.39773,0.17463 c -1.48801,0.18592 -2.3274,-0.082 -2.75397,-0.87905 -0.13523,-0.25269 -0.49086,-1.82754 -0.79028,-3.49967 -0.55861,-3.11951 -2.00809,-8.41107 -2.41951,-8.83279 -0.13462,-0.13799 -0.90317,0.0152 -1.84701,0.36819 -1.27335,0.4762 -1.5781,0.69485 -1.43569,1.03007 0.67065,1.57876 1.83116,5.76445 2.49252,8.98996 0.80757,3.93862 1.37577,5.16988 2.72313,5.90082 0.69143,0.3751 2.27178,0.71292 2.83352,0.6057 0.21828,-0.0417 0.87285,-0.15662 1.4546,-0.25544 z"
         id="path7562" /><path
         style="fill:#fedeba;fill-opacity:1;stroke-width:0.264583"
         d="m -346.00719,332.49177 c 0.0361,-6.02691 0.21624,-6.99149 1.45781,-7.80499 0.47024,-0.30812 1.12189,-0.41597 2.20491,-0.36492 l 1.53739,0.0725 0.32295,-1.5739 c 0.17763,-0.86564 0.2776,-1.70464 0.22216,-1.86445 -0.0554,-0.15981 -0.81979,-0.36571 -1.69855,-0.45756 -3.1048,-0.32451 -5.97546,1.31871 -7.18284,4.11159 -0.5626,1.30139 -0.60596,1.77758 -0.62136,6.82299 -0.009,2.98317 0.0759,5.69185 0.18889,6.01927 0.18378,0.53252 0.38105,0.59531 1.87041,0.59531 h 1.66496 z"
         id="path7558" /><path
         style="fill:#fedeba;fill-opacity:1;stroke-width:0.264583"
         d="m -241.38214,337.77999 c 0.50317,-3.43663 -1.64353,-6.78519 -4.94332,-7.71091 -1.21727,-0.34149 -11.04552,-0.44219 -11.99777,-0.12293 -0.53349,0.17886 -0.59531,0.3732 -0.59531,1.87144 v 1.67186 l 5.30539,0.0236 c 2.91796,0.013 5.76908,0.14846 6.33581,0.30107 1.5734,0.42367 2.16431,1.35929 2.08278,3.29781 l -0.0672,1.5971 1.43982,0.30807 c 2.11859,0.45331 2.19818,0.41295 2.43977,-1.23711 z"
         id="path7552" /><path
         style="fill:#fedeba;fill-opacity:1;stroke-width:0.264583"
         d="m -347.55396,342.52195 c 2.11006,-0.15963 4.38657,-0.21759 5.05893,-0.12879 2.96868,0.39209 5.47158,-0.96452 6.17987,-3.34959 0.44093,-1.48479 0.53577,-3.52846 0.1741,-3.75198 -0.12582,-0.0778 -0.89973,-0.22024 -1.71979,-0.31663 l -1.49102,-0.17524 v 1.07754 c 0,1.40896 -0.36697,2.32948 -1.08098,2.7116 -0.35822,0.19172 -2.29503,0.33585 -5.10589,0.37998 -2.49082,0.0391 -5.40277,0.16358 -6.471,0.2766 l -1.94224,0.20551 0.17529,1.21654 c 0.35466,2.46139 0.36775,2.48249 1.43,2.30473 0.52595,-0.088 2.68268,-0.29063 4.79273,-0.45027 z"
         id="path7548" /><path
         style="fill:#fedeba;fill-opacity:1;stroke-width:0.264583"
         d="m -256.16255,343.37506 c 0.0778,-0.12582 0.22024,-0.89973 0.31663,-1.71979 l 0.17523,-1.49102 h -1.07753 c -2.60242,0 -3.24563,-0.90599 -3.03541,-4.27552 0.1235,-1.97952 -0.3477,-9.97045 -0.60387,-10.24106 -0.10891,-0.11505 -3.3188,0.43072 -3.47972,0.59164 -0.0612,0.0612 0.0256,1.10595 0.19272,2.32172 0.16717,1.21578 0.34643,4.26194 0.39835,6.76925 0.0744,3.59402 0.18943,4.759 0.54345,5.50504 0.49089,1.03448 1.64804,2.0158 2.88812,2.44928 0.97623,0.34124 3.48889,0.40298 3.68203,0.0905 z"
         id="path7546" /><path
         style="fill:#fedeba;fill-opacity:1;stroke-width:0.264583"
         d="m -354.48414,348.06271 c 0.6829,-0.16699 1.27708,-0.33141 1.32038,-0.36537 0.0433,-0.034 -0.2172,-1.2368 -0.57892,-2.67295 -0.81589,-3.23937 -1.48223,-7.03041 -1.48335,-8.43929 -4.7e-4,-0.58609 0.19331,-1.3428 0.43061,-1.6816 0.53546,-0.76447 1.89888,-1.35384 3.13192,-1.35384 h 0.93454 v -1.88763 -1.88763 l -1.78593,0.12819 c -2.79977,0.20098 -4.64071,1.39529 -5.82559,3.77936 -0.83468,1.67946 -0.90871,2.53348 -0.46129,5.32133 0.41525,2.58734 1.55858,7.57373 2.00707,8.75333 0.26329,0.69252 0.56619,0.73265 2.31056,0.3061 z"
         id="path7542" /><path
         style="fill:#fedeba;fill-opacity:1;stroke-width:0.264583"
         d="m -234.48478,350.18803 c 0.87085,-2.69641 0.44969,-5.10045 -1.22729,-7.0056 -1.32105,-1.5008 -1.95296,-1.81885 -5.15314,-2.59374 -2.6695,-0.64638 -8.99048,-1.63799 -9.18722,-1.44125 -0.18416,0.18417 -0.61664,3.25219 -0.48832,3.4642 0.0661,0.10914 0.44929,0.19844 0.85162,0.19844 1.10576,0 5.23799,0.74903 8.01036,1.452 3.63958,0.92287 4.51365,2.11008 3.55467,4.82814 l -0.37223,1.05501 1.629,0.6843 c 0.89595,0.37637 1.70021,0.69049 1.78724,0.69805 0.087,0.008 0.35493,-0.59524 0.59531,-1.33955 z"
         id="path7534" /><path
         style="fill:#fedeba;fill-opacity:1;stroke-width:0.264583"
         d="m -249.41255,351.13453 c 0.3015,-0.80582 0.54818,-1.50973 0.54818,-1.56424 0,-0.0545 -0.50602,-0.18055 -1.12448,-0.28009 -2.47562,-0.39842 -2.8629,-1.27713 -2.0575,-4.66829 0.649,-2.73263 1.31837,-7.2901 1.32504,-9.02173 l 0.005,-1.25677 h -1.71475 c -1.99188,0 -1.86655,-0.2121 -2.11059,3.57188 -0.0845,1.30969 -0.44648,3.81 -0.80448,5.55625 -0.81394,3.97026 -0.82936,5.18614 -0.0826,6.51478 0.65624,1.16762 1.44738,1.7621 2.98712,2.24458 2.09403,0.65616 2.41731,0.53916 3.02924,-1.09637 z"
         id="path7532" /><path
         style="fill:#fedeba;fill-opacity:1;stroke-width:0.264583"
         d="m -355.88833,353.00636 c 1.16416,-0.37456 3.84307,-1.03554 5.95312,-1.46884 2.20051,-0.45188 4.11155,-0.99269 4.48157,-1.26825 1.64571,-1.2256 2.23038,-2.98821 1.80677,-5.44692 -0.27761,-1.61134 -0.36261,-1.66602 -2.36767,-1.52303 l -1.29518,0.0924 0.17439,1.54138 c 0.23971,2.11879 -0.34365,2.71551 -3.08738,3.1581 -2.83942,0.45803 -6.162,1.24656 -8.48143,2.01286 l -2.02207,0.66805 0.66636,1.67951 c 0.63634,1.60387 0.69762,1.66951 1.3606,1.45765 0.38184,-0.12202 1.64675,-0.52831 2.81092,-0.90288 z"
         id="path7530" /><path
         style="fill:#fedeba;fill-opacity:1;stroke-width:0.264583"
         d="m -359.55397,359.21382 1.36145,-0.57634 -1.28342,-2.68818 c -1.56432,-3.27653 -3.15927,-7.61597 -3.15927,-8.59556 0,-0.58849 0.32617,-1.31191 0.96045,-2.13021 0.0427,-0.055 0.66987,-0.29317 1.39378,-0.52917 0.7239,-0.23599 1.33342,-0.54813 1.35447,-0.69366 0.0211,-0.14552 -0.0987,-0.96088 -0.26613,-1.81192 l -0.30442,-1.54734 -0.97376,0.17918 c -2.47204,0.45491 -4.22379,1.77552 -5.23455,3.94625 -1.07917,2.31765 -0.80732,4.21143 1.35032,9.40691 1.30208,3.13533 2.79584,5.88442 3.12331,5.74808 0.17398,-0.0724 0.92898,-0.39106 1.67777,-0.70804 z"
         id="path7524" /><path
         style="fill:#fedeba;fill-opacity:1;stroke-width:0.264583"
         d="m -244.91175,361.58085 c 0.45265,-0.73566 0.75915,-1.44087 0.68111,-1.56714 -0.078,-0.12627 -0.48162,-0.3042 -0.89685,-0.3954 -0.41523,-0.0912 -1.00773,-0.40131 -1.31668,-0.68914 -0.99972,-0.93138 -0.96239,-1.60657 0.23539,-4.25812 1.20221,-2.66133 3.5349,-9.46284 3.31936,-9.67837 -0.16563,-0.16563 -3.3693,-0.91274 -3.45667,-0.80611 -0.0355,0.0433 -0.37958,1.1892 -0.76467,2.54646 -0.3851,1.35725 -1.12437,3.55991 -1.64282,4.89479 -2.15236,5.5417 -2.25295,5.89734 -1.99403,7.0497 0.34382,1.53024 1.39184,2.76782 3.00462,3.54806 0.76568,0.37043 1.53077,0.67786 1.70019,0.68317 0.16942,0.005 0.67839,-0.59224 1.13105,-1.3279 z"
         id="path7518" /><path
         style="fill:#fedeba;fill-opacity:1;stroke-width:0.264583"
         d="m -229.83382,363.0496 c 0.82462,-1.60777 0.87426,-1.85144 0.75519,-3.70687 -0.10874,-1.6944 -0.25503,-2.17293 -0.99639,-3.25933 -1.0733,-1.57285 -1.94224,-2.17829 -5.08055,-3.5399 -2.25637,-0.97896 -7.46057,-2.85425 -7.92095,-2.85425 -0.18402,0 -1.28994,2.69466 -1.28994,3.14304 0,0.11703 0.50602,0.36037 1.12448,0.54075 0.61846,0.18038 2.85089,1.05438 4.96094,1.94222 5.57303,2.34495 6.41016,3.41115 4.91816,6.26396 l -0.61418,1.17435 1.48603,0.9879 c 0.81732,0.54334 1.55095,0.99715 1.63029,1.00846 0.0794,0.0113 0.54146,-0.75384 1.02692,-1.70033 z"
         id="path7516" /><path
         style="fill:#fedeba;fill-opacity:1;stroke-width:0.264583"
         d="m -358.13734,363.42427 c 1.38245,-0.68438 3.49699,-1.62307 4.69898,-2.08596 4.2807,-1.64854 5.42259,-4.0098 3.75844,-7.77188 l -0.51868,-1.17257 -1.60908,0.40533 c -1.26601,0.3189 -1.57887,0.49598 -1.46735,0.8305 0.7602,2.28052 0.79351,2.61506 0.33072,3.32137 -0.48383,0.73841 -0.55444,0.77671 -3.47324,1.88395 -1.94736,0.73872 -8.02973,3.68645 -8.44415,4.09233 -0.14526,0.14227 0.1513,0.82952 0.74157,1.71854 l 0.98363,1.48145 1.24281,-0.72936 c 0.68354,-0.40115 2.3739,-1.28932 3.75635,-1.9737 z"
         id="path7514" /><path
         style="fill:#fedeba;fill-opacity:1;stroke-width:0.264583"
         d="m -362.57504,371.31893 c 0.69395,-0.47294 1.26196,-0.95823 1.26224,-1.07843 2.9e-4,-0.12019 -0.51891,-0.8941 -1.15376,-1.71979 -1.42876,-1.85827 -3.88147,-5.62362 -4.63339,-7.11311 -1.03431,-2.04886 -0.53101,-3.51075 1.57934,-4.58736 0.56832,-0.28994 1.03332,-0.56946 1.03332,-0.62116 0,-0.12684 -1.35038,-3.18043 -1.45337,-3.28648 -0.17988,-0.18522 -2.69826,1.26502 -3.3792,1.94595 -1.42081,1.42082 -1.86707,2.45405 -1.98405,4.59372 -0.10201,1.86576 -0.0484,2.12554 0.74211,3.59843 1.45804,2.71653 6.04889,9.12813 6.53594,9.12813 0.104,0 0.75688,-0.38695 1.45082,-0.8599 z"
         id="path7508" /><path
         style="fill:#fedeba;fill-opacity:1;stroke-width:0.264583"
         d="m -242.57983,372.67598 c 0.54532,-0.59969 1.01638,-1.16524 1.04679,-1.25677 0.0304,-0.0915 -0.41952,-0.49517 -0.99986,-0.89697 -1.20193,-0.83218 -1.66533,-1.7597 -1.3256,-2.65326 0.12666,-0.33312 0.92738,-1.57893 1.77939,-2.76846 1.37344,-1.91753 4.3008,-6.8922 4.7244,-8.02852 0.11838,-0.31754 -0.18294,-0.56392 -1.21346,-0.99218 -0.75401,-0.31336 -1.52334,-0.56974 -1.70962,-0.56974 -0.18627,0 -1.0132,1.27443 -1.83761,2.83207 -0.82441,1.55763 -2.31439,4.04301 -3.31106,5.52305 -0.99668,1.48005 -1.94441,3.18218 -2.10606,3.78252 -0.34974,1.29884 -0.0354,2.76682 0.82731,3.86359 0.60025,0.7631 2.52439,2.25502 2.9083,2.25502 0.12407,0 0.67175,-0.49066 1.21708,-1.09035 z"
         id="path7506" /><path
         style="fill:#fedeba;fill-opacity:1;stroke-width:0.264583"
         d="m -227.08534,375.7507 c 0.43388,-0.8113 0.56599,-1.5215 0.56599,-3.0427 0,-3.30368 -0.96984,-4.56066 -6.16031,-7.98415 -2.63812,-1.74004 -5.84459,-3.53359 -5.97851,-3.34412 -0.42551,0.60205 -1.74957,2.93263 -1.68867,2.97238 0.0448,0.0292 0.97439,0.57276 2.0658,1.20783 2.50339,1.45668 5.85095,3.78747 7.01094,4.88147 1.52117,1.43465 1.54893,2.86225 0.088,4.52615 l -0.83091,0.94635 1.28651,1.30614 1.28651,1.30615 0.89432,-0.85858 c 0.49188,-0.47222 1.14902,-1.33483 1.46032,-1.91692 z"
         id="path7500" /><path
         style="fill:#fedeba;fill-opacity:1;stroke-width:0.264583"
         d="m -362.92032,377.25539 c 1.97605,-1.70518 4.10671,-3.2932 6.99438,-5.21304 2.77382,-1.84414 3.4464,-2.76557 3.4609,-4.74136 0.0102,-1.39624 -0.46677,-2.63693 -1.51893,-3.95062 l -0.60764,-0.75867 -1.49734,0.75867 -1.49735,0.75867 0.78284,1.16429 c 1.25759,1.87039 0.97206,2.72833 -1.38199,4.15245 -3.21908,1.94744 -8.63741,6.06022 -8.66806,6.57949 -0.0147,0.24818 2.09038,2.52356 2.33464,2.52356 0.0675,0 0.7869,-0.57305 1.59855,-1.27344 z"
         id="path7498" /><path
         style="fill:#fedeba;fill-opacity:1;stroke-width:0.264583"
         d="m -362.93548,383.72457 1.13282,-1.15426 -3.8001,-3.84665 c -2.09005,-2.11565 -4.0206,-4.25611 -4.29011,-4.75656 -0.74639,-1.38596 -0.41347,-2.59583 1.04262,-3.78899 l 1.17282,-0.96103 -1.07412,-1.58171 c -1.06341,-1.56594 -1.07981,-1.57697 -1.64607,-1.10699 -2.88442,2.39396 -3.46978,3.43611 -3.47099,6.17962 -0.001,2.47568 0.30518,3.07999 3.13717,6.18979 1.99915,2.19526 6.10884,5.98104 6.49278,5.98104 0.0937,0 0.68013,-0.51942 1.30318,-1.15426 z"
         id="path7492" /><path
         style="fill:#fedeba;fill-opacity:1;stroke-width:0.264583"
         d="m -242.32554,384.1416 1.34273,-1.00182 -1.06127,-1.13773 c -1.62397,-1.74099 -1.40832,-2.40458 1.81272,-5.57805 2.31598,-2.28177 6.18365,-6.63002 6.18365,-6.952 0,-0.17273 -2.93942,-2.11737 -3.03631,-2.00874 -0.0419,0.047 -0.82776,1.03786 -1.74639,2.20203 -0.91863,1.16416 -2.88205,3.36682 -4.36314,4.89479 -1.48109,1.52797 -2.88668,3.15916 -3.12353,3.62488 -0.90799,1.78542 -0.35554,3.94985 1.48907,5.83397 0.60549,0.61847 1.11413,1.12448 1.13031,1.12448 0.0162,0 0.63365,-0.45081 1.37216,-1.00181 z"
         id="path7490" /><path
         style="fill:#fedeba;fill-opacity:1;stroke-width:0.264583"
         d="m -361.56785,388.97987 c 0.91478,-1.16417 2.888,-3.36694 4.38494,-4.89504 1.49695,-1.52811 2.90663,-3.22093 3.13263,-3.76182 0.85285,-2.04114 0.31918,-3.94523 -1.63579,-5.83634 l -1.03319,-0.99944 -1.23818,0.94542 c -0.681,0.51998 -1.23818,1.01483 -1.23818,1.09967 0,0.0848 0.42987,0.63007 0.95528,1.21164 1.50696,1.66802 1.26904,2.29855 -2.14693,5.68978 -3.01787,2.99602 -6.10567,6.61305 -5.8574,6.86132 0.39875,0.39875 2.70277,1.89684 2.84851,1.85213 0.0908,-0.0279 0.91354,-1.00315 1.82831,-2.16732 z"
         id="path7484" /><path
         style="fill:#fedeba;fill-opacity:1;stroke-width:0.264583"
         d="m -228.91452,391.19661 c 1.82955,-1.61044 2.39517,-2.85246 2.39517,-5.25945 0,-1.52016 -0.13287,-2.23524 -0.56799,-3.05677 -0.60983,-1.15141 -6.43483,-7.23404 -8.10258,-8.46095 l -1.00992,-0.74297 -1.19674,1.19673 -1.19673,1.19674 3.41804,3.41804 c 3.794,3.794 5.09631,5.42172 5.09631,6.36973 0,0.94402 -0.64604,2.02065 -1.6906,2.81738 l -0.92805,0.70785 0.9786,1.44202 c 0.53823,0.79312 1.11066,1.44657 1.27207,1.45211 0.16142,0.006 0.851,-0.48066 1.53242,-1.08046 z"
         id="path7482" /><path
         style="fill:#fedeba;fill-opacity:1;stroke-width:0.264583"
         d="m -243.47516,394.88611 c 0.72141,-0.37798 0.72156,-0.37869 0.21933,-1.02557 -1.77412,-2.28515 -1.522,-2.97749 1.88917,-5.18789 2.8435,-1.84255 6.57805,-4.66629 7.43286,-5.62007 0.51001,-0.56907 0.50904,-0.57171 -0.6504,-1.75309 -0.63865,-0.65074 -1.22569,-1.17975 -1.30453,-1.17559 -0.0788,0.004 -1.21492,0.90718 -2.5246,2.00671 -1.30969,1.09954 -3.72015,2.89688 -5.35658,3.99411 -1.67972,1.12625 -3.19662,2.35506 -3.48352,2.82193 -1.12958,1.83818 -0.95392,3.70903 0.55574,5.91883 0.76398,1.1183 0.77099,1.12156 1.63395,0.76099 0.47668,-0.19916 1.19154,-0.53233 1.58858,-0.74036 z"
         id="path7476" /><path
         style="fill:#fedeba;fill-opacity:1;stroke-width:0.264583"
         d="m -360.82698,395.7951 c 0.4852,-0.82978 0.78286,-1.54437 0.66146,-1.58796 -0.55338,-0.1987 -4.5486,-2.7444 -6.74219,-4.29601 -3.64485,-2.57816 -4.13298,-3.76746 -2.45082,-5.97122 l 0.9496,-1.24404 -1.26818,-1.28753 -1.26818,-1.28754 -0.76335,0.72537 c -0.41985,0.39895 -1.08016,1.26115 -1.46736,1.91599 -0.5962,1.00832 -0.70306,1.49448 -0.69787,3.175 0.01,3.22836 0.93827,4.48297 5.67215,7.66602 2.18927,1.47206 6.027,3.70589 6.36026,3.70213 0.0728,-7.9e-4 0.52928,-0.68041 1.01448,-1.51021 z"
         id="path7474" /><path
         style="fill:#fedeba;fill-opacity:1;stroke-width:0.264583"
         d="m -354.96,394.75426 c 2.09706,-3.1042 2.53677,-4.33802 2.11034,-5.92167 -0.33809,-1.25557 -1.69062,-2.84942 -3.03018,-3.57082 l -0.94425,-0.50851 -1.04219,1.18727 c -0.57321,0.65299 -1.04727,1.24845 -1.05348,1.32324 -0.006,0.0748 0.4612,0.42799 1.03868,0.78489 0.57748,0.3569 1.18509,0.97512 1.35023,1.37381 0.36412,0.87907 0.11817,1.39793 -2.44824,5.16476 -1.72002,2.52455 -4.34076,7.16376 -4.14858,7.34379 0.0526,0.0493 0.80671,0.38782 1.67586,0.75238 l 1.58026,0.66284 1.54638,-2.94985 c 0.85051,-1.62242 2.36483,-4.16138 3.36517,-5.64213 z"
         id="path7468" /><path
         style="fill:#fedeba;fill-opacity:1;stroke-width:0.264583"
         d="m -232.67064,404.91787 c 2.6841,-1.52355 3.79901,-3.589 3.60222,-6.67337 -0.0851,-1.33439 -0.31099,-1.94372 -1.3971,-3.7692 -1.36287,-2.29068 -5.16183,-7.54477 -5.69225,-7.87259 -0.31951,-0.19747 -2.91558,1.4065 -2.91651,1.80196 -2.7e-4,0.12019 0.51479,0.8941 1.14459,1.71979 3.06114,4.01322 5.2049,7.67861 5.2049,8.89933 0,1.08184 -0.79363,2.11342 -2.16363,2.81234 -0.5842,0.29804 -0.99685,0.67859 -0.9244,0.85251 0.97029,2.32921 1.33307,3.09177 1.46966,3.08913 0.0897,-0.002 0.84237,-0.38869 1.67252,-0.8599 z"
         id="path7462" /><path
         style="fill:#fedeba;fill-opacity:1;stroke-width:0.264583"
         d="m -247.1121,405.01547 c -0.7602,-2.28052 -0.79351,-2.61506 -0.33072,-3.32137 0.48291,-0.73701 0.54278,-0.76957 3.47324,-1.88862 1.91844,-0.73258 8.01823,-3.69066 8.44415,-4.09496 0.14363,-0.13635 -0.14919,-0.81904 -0.72013,-1.67894 l -0.96219,-1.44916 -4.04237,2.04208 c -2.22331,1.12314 -5.05021,2.45569 -6.28201,2.96122 -1.88599,0.77402 -2.36644,1.10058 -3.04271,2.06814 -0.6831,0.97735 -0.79734,1.37261 -0.76467,2.64584 0.0226,0.88027 0.26755,2.00241 0.59469,2.72422 l 0.55629,1.22738 1.60908,-0.40533 c 1.26601,-0.3189 1.57886,-0.49598 1.46735,-0.8305 z"
         id="path7460" /><path
         style="fill:#fedeba;fill-opacity:1;stroke-width:0.264583"
         d="m -356.54657,407.3598 c 0.3283,-0.87787 0.55118,-1.63277 0.49528,-1.67756 -0.0559,-0.0448 -1.35178,-0.53294 -2.87975,-1.08476 -4.13602,-1.49371 -7.48542,-3.12494 -8.14925,-3.96887 -0.76208,-0.96882 -0.73963,-2.18909 0.0664,-3.60807 l 0.64837,-1.14148 -1.60555,-1.01516 c -0.88305,-0.55834 -1.63678,-0.97956 -1.67496,-0.93605 -0.0382,0.0435 -0.44089,0.78048 -0.89491,1.6377 -0.63492,1.1988 -0.82549,1.89412 -0.82549,3.01202 0,3.7662 1.71529,5.76313 6.67544,7.77146 2.18461,0.88454 6.91878,2.5781 7.24907,2.59322 0.16416,0.008 0.56708,-0.70459 0.89538,-1.58245 z"
         id="path7458" /><path
         style="fill:#fedeba;fill-opacity:1;stroke-width:0.264583"
         d="m -353.26586,411.79919 c 0.42371,-1.49104 1.4161,-4.31833 2.20532,-6.28286 1.96475,-4.89069 1.9087,-6.6555 -0.26345,-8.29468 -0.8083,-0.60998 -2.65449,-1.4949 -3.11875,-1.4949 -0.17473,0 -1.84247,2.47732 -1.84247,2.73687 0,0.0457 0.58281,0.35606 1.29513,0.68969 1.17032,0.54815 1.87987,1.36847 1.87987,2.17334 0,0.15583 -0.49119,1.37062 -1.09154,2.69953 -1.15893,2.56536 -3.51121,9.41101 -3.30474,9.61748 0.11682,0.11682 2.64793,0.77868 3.20566,0.83825 0.14552,0.0155 0.61125,-1.19168 1.03497,-2.68272 z"
         id="path7452" /><path
         style="fill:#fedeba;fill-opacity:1;stroke-width:0.264583"
         d="m -253.24968,413.65227 c -0.15224,-1.51016 -0.1127,-1.70285 0.45566,-2.22063 0.41581,-0.37881 1.2809,-0.67299 2.60673,-0.88644 2.75583,-0.44366 5.8297,-1.1676 8.37549,-1.97256 l 2.15779,-0.68227 -0.68478,-1.72594 c -0.53176,-1.34026 -0.77744,-1.68593 -1.09945,-1.54686 -1.20178,0.519 -6.33245,1.94212 -8.38184,2.32491 -3.43261,0.64116 -4.36926,0.93196 -5.3246,1.65311 -1.52692,1.15262 -2.0306,2.76739 -1.60928,5.15927 l 0.27321,1.55105 h 1.69889 1.69889 z"
         id="path7446" /><path
         style="fill:#fedeba;fill-opacity:1;stroke-width:0.264583"
         d="m -238.8331,417.53716 c 1.78801,-0.53098 3.48017,-2.07341 4.25779,-3.88102 0.86909,-2.02025 0.64469,-4.03593 -0.86201,-7.74294 -1.68544,-4.14679 -3.34039,-7.34712 -3.71802,-7.1899 -0.17398,0.0724 -0.92898,0.39106 -1.67777,0.70804 l -1.36145,0.57634 1.28342,2.68818 c 1.5879,3.32592 3.15927,7.62039 3.15927,8.63413 0,1.10206 -1.09234,2.25509 -2.51328,2.65293 -0.66249,0.18549 -1.24384,0.41021 -1.29189,0.49939 -0.20024,0.37162 0.69024,3.46944 0.99731,3.46944 0.18181,0 0.95879,-0.18657 1.72663,-0.41459 z"
         id="path7444" /><path
         style="fill:#fedeba;fill-opacity:1;stroke-width:0.264583"
         d="m -350.10835,418.54706 c 0.0875,-0.5457 0.23665,-1.37914 0.33147,-1.85208 0.16791,-0.83751 0.1486,-0.8599 -0.74189,-0.8599 -1.24494,0 -5.94746,-0.86568 -8.61183,-1.58535 -3.2581,-0.88003 -4.0548,-2.08037 -3.12671,-4.71085 l 0.37789,-1.07106 -1.7331,-0.69381 c -0.9532,-0.38159 -1.76502,-0.65872 -1.80405,-0.61585 -0.34363,0.37752 -0.92229,2.88641 -0.92022,3.98981 0.005,2.82614 2.07905,5.58477 4.8103,6.39893 2.58156,0.76954 8.29432,1.81563 10.69757,1.95888 0.45295,0.027 0.59225,-0.15834 0.72057,-0.95872 z"
         id="path7442" /><path
         style="fill:#fedeba;fill-opacity:1;stroke-width:0.264583"
         d="m -261.03521,422.56456 c 0,-2.38506 1.0681,-3.1424 4.05065,-2.87213 1.73906,0.15759 10.21123,-0.30744 10.48158,-0.57533 0.12953,-0.12834 -0.42804,-3.28894 -0.6128,-3.4737 -0.0675,-0.0675 -1.20162,0.0174 -2.52019,0.1888 -1.31857,0.17137 -4.33352,0.34011 -6.69988,0.37497 -4.79937,0.0707 -5.79054,0.3345 -6.94336,1.84796 -0.76124,0.99939 -1.26338,2.87036 -1.14836,4.27881 0.0784,0.96065 0.15717,1.0545 1.01111,1.20537 0.50932,0.09 1.25347,0.17928 1.65365,0.19844 0.69259,0.0332 0.7276,-0.0233 0.7276,-1.17319 z"
         id="path7440" /><path
         style="fill:#fedeba;fill-opacity:1;stroke-width:0.264583"
         d="m -346.03541,422.97883 c 0.12517,-2.35289 0.64738,-6.26152 1.14721,-8.58657 0.28008,-1.30288 0.50924,-2.8852 0.50924,-3.51627 0,-2.56703 -2.08546,-4.59037 -4.80562,-4.66247 -1.31364,-0.0348 -1.35633,-0.0121 -1.673,0.89031 -0.76436,2.17825 -0.79924,2.03647 0.5508,2.23892 1.35564,0.20329 2.48824,1.10097 2.48824,1.97214 0,0.29202 -0.22945,1.51783 -0.5099,2.72401 -0.65195,2.80402 -1.34218,7.45917 -1.34218,9.05212 v 1.2349 l 1.78593,-0.0782 1.78594,-0.0782 z"
         id="path7430" /><path
         style="fill:#fedeba;fill-opacity:1;stroke-width:0.264583"
         d="m -244.81102,427.91567 c 1.91685,-1.12335 3.03116,-2.72478 3.44911,-4.9569 0.29896,-1.59657 -1.70825,-11.71665 -2.48329,-12.52048 -0.24053,-0.24946 -3.43394,0.31345 -3.42881,0.60441 0.002,0.0892 0.18423,0.75759 0.40591,1.4852 0.58313,1.91404 1.70789,8.17496 1.70789,9.50693 0,1.90266 -1.41958,3.05454 -3.77031,3.0593 -0.72562,0.002 -0.7276,0.007 -0.7276,1.88911 v 1.88763 l 1.83228,-0.13109 c 1.33006,-0.0952 2.15642,-0.32106 3.01482,-0.82411 z"
         id="path7428" /><path
         style="fill:#fedeba;fill-opacity:1;stroke-width:0.264583"
         d="m -342.06385,428.63268 c 0.53761,-0.14378 0.59531,-0.32096 0.59531,-1.82806 v -1.66885 l -5.31356,-0.0158 c -5.8551,-0.0174 -7.08228,-0.21671 -7.92702,-1.28754 -0.47578,-0.60312 -0.55218,-0.98711 -0.46657,-2.34495 l 0.10238,-1.62373 -1.72573,-0.28597 c -0.98624,-0.16342 -1.82495,-0.18675 -1.95726,-0.0544 -0.40833,0.40832 -0.2834,4.04235 0.17453,5.07727 1.15206,2.60365 3.18969,3.92835 6.49234,4.22082 2.38596,0.21129 8.99498,0.0868 10.02558,-0.18878 z"
         id="path7426" /><path
         style="fill:#fedeba;fill-opacity:1;stroke-width:0.264583"
         d="m -270.17218,429.42801 c 0.20209,-1.34767 1.10214,-2.48032 1.97095,-2.48032 0.29202,0 1.51782,0.22945 2.724,0.5099 2.80403,0.65195 7.45918,1.34218 9.05213,1.34218 h 1.2349 l -0.0782,-1.78593 -0.0782,-1.78594 -1.19062,-0.0633 c -2.36941,-0.12605 -6.26636,-0.6506 -8.53001,-1.14818 -3.06197,-0.67306 -4.56662,-0.64965 -5.87424,0.0914 -1.21652,0.68941 -2.17793,2.35254 -2.42714,4.19863 l -0.16555,1.22641 1.42086,0.54574 c 0.78148,0.30015 1.49665,0.55194 1.58927,0.55952 0.0926,0.008 0.25098,-0.53694 0.35192,-1.21006 z"
         id="path7424" /><path
         style="fill:#fedeba;fill-opacity:1;stroke-width:0.264583"
         d="m -337.91369,432.72643 1.52644,-0.30655 -0.14945,-0.95022 c -0.35225,-2.23969 -0.74653,-8.42693 -0.62375,-9.7883 0.28806,-3.19402 -0.849,-5.42929 -3.16288,-6.21771 -1.32971,-0.45308 -3.66907,-0.56915 -3.9012,-0.19356 -0.0778,0.12582 -0.22024,0.89973 -0.31663,1.71979 l -0.17524,1.49102 h 1.37137 c 1.10325,0 1.49835,0.12698 2.02081,0.64944 0.35718,0.35718 0.65716,0.80367 0.6666,0.99218 0.009,0.18852 0.0521,2.30729 0.0949,4.70838 0.095,5.33228 0.37761,8.20209 0.80783,8.20209 0.17311,0 1.00165,-0.13795 1.84119,-0.30656 z"
         id="path7418" /><path
         style="fill:#fedeba;fill-opacity:1;stroke-width:0.264583"
         d="m -265.56507,435.74496 c 0.67377,-2.64188 0.67336,-2.64599 -0.28313,-2.8477 -1.6995,-0.35838 -6.72415,-2.06206 -8.94534,-3.03304 -1.23693,-0.54072 -2.65203,-1.06123 -3.14468,-1.15669 -1.17274,-0.22725 -2.72064,0.20566 -3.70902,1.03733 -0.71105,0.5983 -2.14213,3.1224 -2.14213,3.7782 0,0.35174 2.61751,1.9399 2.9047,1.7624 0.12627,-0.078 0.3042,-0.48162 0.3954,-0.89685 0.0912,-0.41522 0.40131,-1.00773 0.68914,-1.31668 0.85245,-0.91499 1.64694,-0.95664 3.33984,-0.17507 2.56891,1.18602 8.819,3.44617 10.58624,3.82819 0.0308,0.007 0.16981,-0.43439 0.30898,-0.98009 z"
         id="path7410" /><path
         style="fill:#fedeba;fill-opacity:1;stroke-width:0.264583"
         d="m -255.08208,437.73751 c 1.26847,-0.4811 2.73002,-1.7501 3.47009,-3.01293 0.56034,-0.95615 0.73122,-1.70977 0.93922,-4.14218 0.23494,-2.74737 0.11087,-8.44193 -0.20745,-9.52182 -0.11126,-0.37746 -0.44415,-0.46302 -1.80144,-0.46302 h -1.66496 l -0.0333,5.55581 c -0.0361,6.02691 -0.21625,6.99149 -1.45782,7.80499 -0.4702,0.30809 -1.12199,0.41599 -2.20491,0.365 l -1.53739,-0.0724 -0.335,1.67979 c -0.18425,0.92388 -0.27134,1.74344 -0.19352,1.82126 0.26434,0.26434 2.37663,0.52263 3.30665,0.40434 0.50932,-0.0648 1.28323,-0.25327 1.71979,-0.41885 z"
         id="path7404" /><path
         style="fill:#fedeba;fill-opacity:1;stroke-width:0.264583"
         d="m -338.16125,437.48943 c 2.90085,-0.56891 6.48934,-1.52531 6.83285,-1.82108 0.23645,-0.20361 -0.31355,-3.43205 -0.58342,-3.42459 -0.0902,0.002 -1.05698,0.24 -2.14839,0.52779 -2.53883,0.66946 -7.71928,1.58434 -8.97123,1.58434 -1.73598,0 -2.93502,-1.45574 -2.93502,-3.56337 v -0.93454 h -1.85208 -1.85208 l 0.002,1.25677 c 0.003,2.65366 1.28203,4.94248 3.42348,6.12684 2.13698,1.1819 3.16157,1.21331 8.08442,0.24784 z"
         id="path7402" /><path
         style="fill:#fedeba;fill-opacity:1;stroke-width:0.264583"
         d="m -326.79072,439.05225 c 0.80353,-0.32742 1.4094,-0.71438 1.3464,-0.8599 -0.59514,-1.37456 -1.94578,-6.26077 -2.54692,-9.21397 -0.80824,-3.97061 -1.36165,-5.07098 -2.97379,-5.91288 -1.6025,-0.83686 -5.74484,-0.37406 -5.37103,0.60009 0.0875,0.22815 0.15919,0.94419 0.15919,1.59119 v 1.17635 l 1.67542,-0.17165 c 1.59754,-0.16367 1.70146,-0.13855 2.23554,0.54042 0.30806,0.39164 0.63793,1.26924 0.73303,1.95022 0.3796,2.71809 1.71593,8.17238 2.52124,10.29049 0.28427,0.74769 0.40834,0.74823 2.22092,0.01 z"
         id="path7400" /><path
         style="fill:#fedeba;fill-opacity:1;stroke-width:0.264583"
         d="m -276.8351,440.64307 0.66028,-1.65032 -2.61614,-1.36977 c -1.43887,-0.75337 -3.97957,-2.26633 -5.64598,-3.36213 -3.58514,-2.35752 -4.70707,-2.77423 -6.23599,-2.31615 -1.76611,0.52914 -4.21709,3.12574 -3.80871,4.03501 0.0891,0.19831 0.63775,0.7717 1.21931,1.27421 1.00779,0.87081 1.07074,0.88942 1.34243,0.39688 0.15677,-0.28423 0.68186,-0.91644 1.16686,-1.40491 0.9715,-0.97848 1.7041,-0.99473 2.99492,-0.0664 2.9994,2.15705 9.48306,6.0801 10.0923,6.10654 0.0937,0.004 0.46756,-0.73525 0.83072,-1.64293 z"
         id="path7390" /><path
         style="fill:#fedeba;fill-opacity:1;stroke-width:0.264583"
         d="m -314.86318,443.22143 1.44452,-0.92405 -1.62578,-3.06887 c -0.89418,-1.68788 -2.20019,-4.44443 -2.90225,-6.12565 -1.43399,-3.43403 -1.93887,-4.10046 -3.58175,-4.72788 -1.31061,-0.50053 -2.57329,-0.38492 -4.4141,0.40414 l -1.18945,0.50986 0.40491,1.60741 c 0.42681,1.69436 0.59815,1.8191 1.66271,1.21054 1.71408,-0.97985 3.12844,-0.14387 3.95406,2.33712 0.59513,1.78838 4.38449,9.70143 4.64577,9.70143 0.0863,0 0.80687,-0.41583 1.60136,-0.92405 z"
         id="path7386" /><path
         style="fill:#fedeba;fill-opacity:1;stroke-width:0.264583"
         d="m -265.79771,444.91845 c 1.33907,-0.60545 2.76774,-1.86961 3.3335,-2.94966 0.70738,-1.35043 2.48734,-10.06919 2.48734,-12.18375 0,-0.28828 -0.49499,-0.48811 -1.75076,-0.70679 -0.96291,-0.16768 -1.77454,-0.2692 -1.80361,-0.2256 -0.0291,0.0436 -0.19138,1.21038 -0.36066,2.59283 -0.46552,3.80156 -1.72135,8.63309 -2.44385,9.40215 -0.8072,0.85923 -2.07705,1.06696 -3.51893,0.57567 l -1.16388,-0.39657 -0.70818,1.72445 c -0.3895,0.94845 -0.67332,1.75293 -0.63072,1.78773 0.0426,0.0348 0.61324,0.24878 1.26809,0.4755 1.70511,0.59033 3.86021,0.55125 5.29166,-0.096 z"
         id="path7384" /><path
         style="fill:#fedeba;fill-opacity:1;stroke-width:0.264583"
         d="m -289.23157,443.98831 c 0.5405,-0.81405 0.9443,-1.51435 0.89735,-1.55623 -0.0469,-0.0419 -1.02047,-0.81586 -2.16338,-1.71995 -1.14291,-0.90409 -3.41267,-2.93674 -5.04391,-4.51699 -1.63124,-1.58025 -3.2935,-2.99773 -3.6939,-3.14996 -1.90531,-0.7244 -3.99879,-0.086 -5.78983,1.76559 l -0.99523,1.02888 1.00486,1.34682 1.00486,1.34682 1.10461,-1.03036 c 1.85133,-1.72691 2.18061,-1.60271 6.24623,2.35598 2.8789,2.80318 6.06795,5.60948 6.37454,5.60948 0.0391,0 0.5133,-0.66603 1.0538,-1.48008 z"
         id="path7382" /><path
         style="fill:#fedeba;fill-opacity:1;stroke-width:0.264583"
         d="m -328.02938,444.5116 c 3.80687,-1.41829 8.59272,-3.77194 8.43592,-4.14873 -0.0729,-0.17514 -0.39154,-0.93033 -0.70814,-1.67819 l -0.57564,-1.35976 -2.68888,1.26287 c -4.36564,2.05039 -7.82033,3.25021 -8.86866,3.08008 -1.19559,-0.19401 -2.09334,-1.0738 -2.44896,-2.39995 -0.39497,-1.47291 -0.35818,-1.4462 -1.62231,-1.17794 -2.69977,0.5729 -2.55877,0.38166 -1.90485,2.58366 0.80801,2.72086 3.57277,4.78693 6.41277,4.79217 0.96439,0.002 2.20047,-0.29541 3.96875,-0.95421 z"
         id="path7380" /><path
         style="fill:#fedeba;fill-opacity:1;stroke-width:0.264583"
         d="m -302.0656,444.82729 1.14853,-1.17026 -0.63043,-0.77537 c -0.34673,-0.42645 -1.3088,-1.60193 -2.13794,-2.61219 -0.82914,-1.01025 -2.38249,-3.13437 -3.45191,-4.72028 -1.54394,-2.28962 -2.18704,-3.01339 -3.12268,-3.51436 -1.76261,-0.94377 -3.89456,-0.55706 -5.87172,1.06507 l -0.72467,0.59453 0.68434,1.49438 0.68434,1.49438 1.27508,-0.79263 c 2.02866,-1.26109 2.55118,-1.00865 4.66975,2.25606 2.45167,3.77801 5.64221,7.85094 6.15007,7.85094 0.0983,0 0.69554,-0.52662 1.32724,-1.17027 z"
         id="path7376" /><path
         style="fill:#fedeba;fill-opacity:1;stroke-width:0.264583"
         d="m -278.47104,450.18955 c 1.74133,-0.59231 3.07447,-1.7939 4.02839,-3.63091 1.43206,-2.7578 4.12004,-9.93667 3.8294,-10.22731 -0.19535,-0.19536 -2.6552,-1.18164 -2.94546,-1.181 -0.16983,2.7e-4 -0.65303,0.98265 -1.07378,2.18281 -1.37784,3.93029 -3.14654,7.71162 -4.02179,8.59827 -1.04379,1.05738 -2.0044,1.11451 -3.76228,0.22373 l -1.25542,-0.63617 -0.97505,1.56501 -0.97505,1.56501 1.10242,0.69592 c 0.60632,0.38276 1.40563,0.78798 1.77624,0.9005 1.0344,0.31405 3.27085,0.28481 4.27238,-0.0559 z"
         id="path7368" /><path
         style="fill:#fedeba;fill-opacity:1;stroke-width:0.264583"
         d="m -317.62938,450.18952 c 1.90864,-0.6493 9.85792,-6.08801 10.19956,-6.9783 0.13904,-0.36234 -1.45196,-2.74099 -1.8458,-2.75959 -0.12019,-0.006 -0.8941,0.50921 -1.71979,1.14419 -1.79959,1.38393 -5.60148,3.85603 -7.12785,4.63472 -2.02817,1.03469 -3.49738,0.52674 -4.57262,-1.58091 -0.28994,-0.56833 -0.56946,-1.03332 -0.62116,-1.03332 -0.12684,0 -3.18043,1.35038 -3.28648,1.45337 -0.10784,0.10473 1.15594,2.51965 1.59892,3.05531 0.55153,0.66695 2.13211,1.75385 2.98293,2.05125 1.08184,0.37816 3.29999,0.38487 4.39229,0.0133 z"
         id="path7366" /><path
         style="fill:#fedeba;fill-opacity:1;stroke-width:0.264583"
         d="m -290.49905,452.39607 c 0.58148,-0.29664 1.48038,-1.00774 1.99757,-1.5802 1.69976,-1.88143 6.61678,-9.71077 6.25125,-9.95382 -1.70538,-1.13393 -2.97604,-1.80238 -3.04695,-1.60291 -0.0501,0.14087 -0.65405,1.17806 -1.34215,2.30487 -2.1127,3.45969 -4.63948,6.87113 -5.47921,7.39756 -1.0669,0.66885 -2.31768,0.46114 -3.64464,-0.60524 l -1.03968,-0.8355 -1.29623,1.27674 -1.29624,1.27674 0.72538,0.75828 c 0.91892,0.96062 2.26461,1.79695 3.33368,2.07184 1.29927,0.33408 3.67539,0.0844 4.83722,-0.50836 z"
         id="path7364" /><path
         style="fill:#fedeba;fill-opacity:1;stroke-width:0.264583"
         d="m -303.80382,452.36617 c 1.1994,-0.58062 7.18471,-6.23291 8.51367,-8.03997 l 0.74272,-1.00992 -1.23765,-1.23765 -1.23764,-1.23764 -2.18072,2.29565 c -3.52193,3.70755 -6.17565,5.99205 -7.17916,6.18031 -1.12782,0.21158 -2.21811,-0.33098 -3.16818,-1.57659 l -0.71258,-0.93425 -1.44738,0.97479 c -0.79606,0.53614 -1.44738,1.11136 -1.44738,1.27828 0,0.16691 0.48988,0.86002 1.08862,1.54023 1.05409,1.19751 2.02857,1.85824 3.40758,2.31045 1.06365,0.34881 3.60105,0.0648 4.8581,-0.54369 z"
         id="path7362" /></g></g></svg>
