<?xml version="1.0" encoding="UTF-8" standalone="no"?>
<!-- Created with Inkscape (http://www.inkscape.org/) -->

<svg
   width="48.145733mm"
   height="34.536606mm"
   viewBox="0 0 48.145733 34.536606"
   version="1.1"
   id="svg135"
   xml:space="preserve"
   inkscape:export-filename="papel 2.svg"
   inkscape:export-xdpi="96"
   inkscape:export-ydpi="96"
   xmlns:inkscape="http://www.inkscape.org/namespaces/inkscape"
   xmlns:sodipodi="http://sodipodi.sourceforge.net/DTD/sodipodi-0.dtd"
   xmlns="http://www.w3.org/2000/svg"
   xmlns:svg="http://www.w3.org/2000/svg"><sodipodi:namedview
     id="namedview137"
     pagecolor="#ffffff"
     bordercolor="#000000"
     borderopacity="0.25"
     inkscape:showpageshadow="2"
     inkscape:pageopacity="0.0"
     inkscape:pagecheckerboard="0"
     inkscape:deskcolor="#d1d1d1"
     inkscape:document-units="mm"
     showgrid="false" /><defs
     id="defs132" /><g
     inkscape:label="Camada 1"
     inkscape:groupmode="layer"
     id="layer1"
     transform="translate(108.39074,-175.11764)"><path
       style="fill:#000000;stroke-width:0.264583"
       d="m -60.671232,175.11799 c -0.149405,0.005 -1.224321,0.18137 -2.388485,0.39171 -1.164165,0.21034 -2.801277,0.38457 -3.638021,0.38757 -1.379822,0.005 -1.521354,0.058 -1.521354,0.57516 0,0.54632 -0.02127,0.55086 -0.510046,0.10852 -0.460714,-0.41692 -1.330916,-0.46554 -8.984981,-0.50384 -8.234194,-0.0412 -8.482062,-0.0274 -8.732284,0.48679 -0.248062,0.50974 -0.258185,0.50726 -0.275435,-0.0661 -0.01775,-0.59031 -0.0528,-0.59531 -3.986837,-0.59531 -2.182809,0 -4.058047,-0.0231 -4.167188,-0.0512 -0.10914,-0.0281 -0.269677,0.29929 -0.356567,0.72761 l -0.157613,0.77876 -0.443384,-0.99839 -0.4439,-0.99839 -2.441195,0.19482 c -1.342698,0.10708 -3.086688,0.16553 -3.875728,0.13023 -0.93846,-0.042 -1.50893,0.0528 -1.64952,0.2744 -0.16787,0.26451 -0.2161,0.26652 -0.2191,0.008 -0.003,-0.22889 -0.51335,-0.33083 -1.65778,-0.33073 h -1.65365 l -0.0269,3.175 -0.0269,3.175 0.95291,0.0186 c 0.77368,0.0151 0.85332,0.0614 0.42375,0.24598 -0.29104,0.12506 -0.86925,0.23578 -1.2852,0.24598 -0.68734,0.0169 -0.74002,0.0836 -0.57671,0.73432 0.0988,0.39376 0.23049,1.90557 0.29249,3.35949 0.062,1.45391 0.16112,2.16668 0.30179,2.30735 0.0973,0.0973 0.1921,0.12965 0.2403,0.1018 0.0842,0.16388 0.3105,0.40551 0.80202,0.54881 -0.17014,0.0526 -0.36429,0.12797 -0.56069,0.22117 -0.74594,0.35397 -0.91076,0.56353 -0.80874,1.02681 0.0705,0.32014 0.18387,1.89208 0.25167,3.49281 0.11715,2.76391 0.15394,2.9191 0.73328,3.0825 0.40794,0.11504 0.45997,0.18084 0.15658,0.19844 -0.769,0.0447 -0.93432,0.83249 -0.69969,3.33365 0.1229,1.30969 0.15751,2.55749 0.0775,2.77295 -0.08,0.21546 0.002,1.67864 0.18138,3.25148 0.27135,2.37653 0.39486,2.83362 0.73071,2.70475 0.22227,-0.0853 1.32945,-0.22638 2.46083,-0.31368 1.6836,-0.12983 2.0855,-0.24758 2.21227,-0.64699 0.0851,-0.2684 0.069,-0.6265 -0.0357,-0.79581 -0.1184,-0.19154 -0.0749,-0.23635 0.11524,-0.11886 0.16801,0.10383 0.30541,0.43815 0.30541,0.74311 v 0.55449 l 11.178644,-0.18862 c 6.911393,-0.11665 11.21382,-0.2877 11.27063,-0.44855 0.05568,-0.15769 0.212011,-0.16621 0.396875,-0.0212 0.63734,0.49998 3.033309,0.69695 7.628992,0.62735 3.255094,-0.0493 3.358006,-0.0684 3.455086,-0.64595 0.10005,-0.59532 0.09971,-0.59528 0.427881,0.0661 0.323924,0.65245 0.371562,0.66146 3.641121,0.66146 h 3.312459 l -0.164847,-0.66146 c -0.09056,-0.36381 -0.232463,-1.64372 -0.315743,-2.84427 -0.120714,-1.74014 -0.235606,-2.18281 -0.565857,-2.18281 -0.369013,0 -0.367708,-0.0361 0.01292,-0.33073 0.357657,-0.27682 0.388534,-0.56794 0.187585,-1.78594 -0.132056,-0.80037 -0.181779,-1.64214 -0.110071,-1.87017 0.07171,-0.22803 0.176584,-2.86633 0.232544,-5.86321 0.100467,-5.38021 0.09448,-5.4512 -0.465604,-5.63273 -0.494638,-0.16033 -0.507662,-0.19957 -0.100769,-0.30799 0.411897,-0.10976 0.463459,-0.46319 0.439249,-3.0148 -0.02215,-2.334 -0.107372,-2.9358 -0.443383,-3.12384 -0.354287,-0.19827 -0.331155,-0.25981 0.156062,-0.41445 0.422352,-0.13405 0.577289,-0.40223 0.591179,-1.02371 0.01035,-0.46313 0.102486,-1.76455 0.205155,-2.89233 0.122815,-1.34907 0.09397,-2.04722 -0.08475,-2.04122 z"
       id="path426" /><path
       style="fill:#ffffff;stroke-width:0.264583"
       d="m -96.394633,175.83009 0.26355,0.89607 c 0.309595,1.05351 1.021159,1.20045 1.135848,0.23461 l 0.07855,-0.66145 3.778064,-0.0615 3.778581,-0.061 0.411344,0.85473 0.411861,0.85525 0.308509,-0.66146 0.308508,-0.66146 7.09104,-0.0295 c 3.900212,-0.0161 7.522678,-0.10987 8.049638,-0.20877 0.81832,-0.15352 1.04294,-0.082 1.542024,0.49196 0.725202,0.83402 1.283126,0.86439 1.283126,0.0698 0,-0.53331 0.128817,-0.60131 1.124479,-0.59531 0.618463,0.004 2.093724,-0.0894 3.27887,-0.20722 l 2.154907,-0.21394 -0.03824,2.38487 -0.03772,2.38486 -0.931726,0.1571 c -0.5123,0.0866 -1.093759,0.25788 -1.291911,0.38034 -0.381204,0.2356 -0.249917,0.29873 1.363741,0.65784 l 0.727604,0.16175 v 2.37608 c 0,1.30692 0.005,2.4659 0.01137,2.57504 0.0064,0.10914 -0.49962,0.28612 -1.124479,0.39377 -1.877268,0.32343 -2.043838,0.56238 -0.501261,0.7183 1.728654,0.17473 1.58708,-0.53186 1.68,8.38967 l 0.06666,6.39289 -1.058333,0.19121 -1.058334,0.19068 1.124479,0.24495 1.12448,0.24443 v 2.44378 2.44429 l -2.579688,-0.10852 c -1.418825,-0.0598 -2.620828,-0.1459 -2.670638,-0.1912 -0.0498,-0.0453 -0.245543,-0.53325 -0.435115,-1.08469 -0.491392,-1.42936 -0.831298,-1.37703 -1.035079,0.15916 l -0.177251,1.33274 -4.034379,-0.10956 c -5.353187,-0.14517 -5.902711,-0.25641 -6.098852,-1.23713 -0.152251,-0.76125 -0.696082,-1.09193 -0.696082,-0.42323 0,0.19047 -0.148828,0.54442 -0.330729,0.78652 -0.293558,0.39072 -1.386376,0.45744 -9.723437,0.59479 -5.16598,0.0851 -9.98588,0.17767 -10.710458,0.20567 -1.128248,0.0436 -1.332408,-0.0248 -1.421108,-0.478 -0.057,-0.29104 -0.21509,-0.82297 -0.3514,-1.18184 -0.20117,-0.52961 -0.29385,-0.57945 -0.49299,-0.26459 -0.13494,0.21335 -0.2476,0.83458 -0.2496,1.38028 -0.004,0.97449 -0.0221,0.99219 -1.02526,0.99219 -0.56177,0 -1.55801,0.0734 -2.21382,0.1633 l -1.19217,0.16329 0.23926,-1.52807 c 0.1318,-0.84049 0.29442,-1.61682 0.36122,-1.72496 0.0668,-0.10815 -0.10385,-0.95249 -0.37931,-1.87637 -0.27546,-0.92388 -0.56875,-2.66101 -0.65215,-3.86023 l -0.15193,-2.18023 0.85163,-0.44855 0.85162,-0.44855 -0.85989,-0.25373 c -0.8534,-0.25171 -0.86035,-0.26655 -0.88935,-2.00091 -0.0161,-0.96122 -0.0534,-2.41462 -0.0827,-3.22978 -0.0512,-1.4228 -0.0215,-1.49405 0.73949,-1.78129 0.31616,-0.11934 0.57697,-0.25053 0.61857,-0.37 0.0748,-0.21483 -1.09157,-0.8189 -1.34152,-0.78083 -0.15789,-0.51058 -0.21034,-2.05652 -0.28215,-3.42615 l -0.13333,-2.54868 1.59215,-0.35347 c 1.65486,-0.36713 1.55464,-0.70977 -0.21911,-0.74827 l -0.85782,-0.0186 0.017,-2.77812 0.0171,-2.77813 h 1.3038 c 1.17376,0 1.30448,0.0593 1.30948,0.59532 l 0.006,0.59531 0.45734,-0.58394 c 0.41869,-0.53485 0.76877,-0.59907 4.16254,-0.76378 z"
       id="path583" /></g></svg>
