<?xml version="1.0" encoding="UTF-8" standalone="no"?>
<!-- Created with Inkscape (http://www.inkscape.org/) -->

<svg
   width="137.99985mm"
   height="172.76875mm"
   viewBox="0 0 137.99985 172.76875"
   version="1.1"
   id="svg5"
   xml:space="preserve"
   xmlns="http://www.w3.org/2000/svg"
   xmlns:svg="http://www.w3.org/2000/svg"><defs
     id="defs2" /><g
     id="layer1"
     transform="translate(473.10945,-58.117163)"><g
       id="g7252"
       transform="translate(-66.709677,110)"><path
         style="fill:#a18c76;stroke:none;stroke-width:0.264583"
         d="m -314.32477,-43.760621 h -0.26458 l -0.52917,-7.14375 c -9.08553,0 -18.15491,0.264583 -27.25208,0.264583 -2.45454,0 -4.95935,0.144039 -7.40834,-0.02368 -1.11046,-0.07604 -2.54318,-0.560626 -3.61712,-0.08125 -1.48616,0.663284 -2.66435,3.704166 -3.26205,5.132017 l -2.73288,-4.225978 -4.41087,-0.05226 -7.14375,0.0449 -35.45416,-0.264583 0.78343,38.364584 -0.23601,10.5833328 2.87126,5.027084 -2.35929,7.1437502 0.80301,39.952084 1.03372,7.14375 -0.75856,7.14375 0.50827,55.562497 10.84792,0.0757 5.1427,-0.0831 1.73646,-4.4905 1.05834,3.96875 28.04583,-0.26459 6.87917,0.30956 2.75458,-0.0524 0.7194,-2.37384 1.02394,-6.08542 h 0.26458 l 0.79375,7.67292 c 12.52114,0 25.04758,-0.79375 37.57083,-0.79375 4.87522,0 10.6606,-1.19724 15.34584,0.26458 4.58999,-7.4377 9.98352,-14.66824 15.181,-21.695837 2.26853,-3.06705 6.35555,-7.18449 7.43743,-10.84791 1.31366,-4.44791 -0.12885,-10.48729 -0.12885,-15.08125 0,-7.76394 -0.17965,-15.5366 -0.51885,-23.28334 -0.15716,-3.58986 0.3265,-7.27445 -0.0563,-10.84791 -0.28126,-2.62626 -1.81319,-5.06069 -2.01137,-7.67292 -0.18467,-2.43152 1.22344,-4.98978 1.4822,-7.40833 0.43286,-4.04178 0.0934,-8.3701 0.045,-12.4354209 -0.0532,-4.4759563 0.5797,-10.20180433 -0.40349,-14.5520833 -0.6604,-2.922852 -3.49911,-6.2655978 -3.37397,-9.2604168 0.10769,-2.573338 2.68738,-4.622006 2.95619,-7.14375 1.05463,-9.897005 0.0286,-20.467903 0.0286,-30.427084 -9.98035,0 -19.91757,0.264583 -29.89792,0.264583 -2.66171,0 -5.2832,-0.234024 -7.9375,-0.265588 -0.79825,-0.0095 -2.08518,-0.420556 -2.79665,0.01876 -1.4724,0.909267 -2.51274,6.248823 -2.7596,7.919746"
         id="path1915" /><path
         style="fill:#a18c76;stroke:none;stroke-width:0.264583"
         d="m -271.46221,86.678993 0.26458,0.26458 -0.26458,-0.26458"
         id="path5823" /><path
         style="fill:#e9e0cc;fill-opacity:1;stroke:none;stroke-width:0.264583"
         d="m -271.1976,14.183123 c -1.14405,0 -4.77414,-0.29528 -4.98051,1.34778 -0.13229,1.05305 1.42795,1.96771 2.04549,2.62494 1.3298,1.41578 2.38496,3.29776 2.38496,5.28769 2.6e-4,3.61659 -2.13757,6.85562 -2.09471,10.58334 0.0627,5.46153 2.24843,10.69631 2.62123,16.13958 0.53869,7.86844 -0.77391,16.24886 -1.51898,24.07708 -0.23997,2.52175 0.14394,4.77732 0.99986,7.14375 0.95065,2.62811 2.73103,3.32873 0.54266,5.82084 -1.7981,0.086 -3.52663,1.08003 -5.29166,1.47505 -4.41272,0.98769 -9.36017,1.00991 -13.49375,-0.94589 3.32766,10.40713 0.54874,19.502177 -1.85209,29.633337 -1.97299,-0.70591 -3.69014,-1.601 -5.82083,-1.80711 -4.06797,-0.3937 -8.13567,0.97658 -12.17083,1.25439 -2.49529,0.17172 -4.92099,-0.53022 -7.40834,-0.50456 -2.06348,0.0212 -4.29762,1.00304 -6.35,0.56039 -2.69716,-0.58182 -5.07232,-3.35677 -7.14375,-5.03423 -0.72734,-0.58922 -2.1037,-2.00051 -3.1451,-1.71608 -2.1926,0.59875 1.00462,3.84148 1.29302,4.86595 -2.5617,0.73766 -8.07032,4.13411 -10.71192,2.29711 -0.78687,-0.54716 -0.6268,-1.73223 -0.70988,-2.56169 -0.25426,-2.54027 -0.74189,-5.1189 -0.74903,-7.67292 -1.91321,1.76636 -2.18758,6.23411 -2.57308,8.73125 -0.14631,0.94774 -0.0603,2.8448 -0.98134,3.42185 -1.5584,0.97658 -6.44234,-0.24685 -8.35184,-0.24685 -8.93498,0 -16.94815,-0.28575 -25.4,-3.44805 -2.02459,-0.7575 -2.80405,-5.11493 -4.75403,-5.11493 -0.78079,0 -1.06786,0.76147 -0.9824,1.42055 0.34766,2.68341 1.23772,5.00539 -0.49662,7.58746 -0.93954,1.39885 -4.2844,0.41989 -5.6732,0.35904 -0.88424,-0.0386 -2.80987,0.36512 -3.42926,-0.43445 -0.82709,-1.06759 -0.65855,-3.79889 -0.9914,-5.13212 -0.92022,-3.68565 -1.84203,-7.27684 -1.0324,-11.1125 0.55589,-2.63472 2.3921,-4.766727 2.69928,-7.412297 0.26723,-2.30214 -2.50746,-3.86636 -2.61911,-6.08145 -0.0847,-1.67799 1.51791,-3.47769 1.64491,-5.29167 0.22596,-3.21733 -1.03505,-5.92296 -1.56368,-8.99583 l 1.5875,-2.11667 c 1.27105,0.0852 3.52001,-0.29713 3.11202,-2.1164 -0.69664,-3.10753 -5.21335,-2.26272 -6.46747,-4.76673 -1.01362,-2.02433 0.79666,-3.88673 1.13453,-5.81687 0.30401,-1.73619 -0.78819,-3.41842 -1.74783,-4.7625 v -0.26458 c 1.33905,-1.39991 3.24723,-3.42609 2.69742,-5.55625 -0.2921,-1.13268 -1.26471,-2.03359 -1.45547,-3.175 -0.17145,-1.02817 0.42413,-2.12487 0.42122,-3.175 -0.005,-2.02142 -0.72999,-3.86874 -1.13401,-5.82084 2.57863,-0.28813 2.35506,-2.70695 2.03835,-4.7625 -0.74057,-4.80562 -2.78289,-9.66946 -3.00461,-14.5407 -0.0709,-1.56131 2.01825,-1.86082 2.21721,-3.45123 0.2159,-1.72376 -1.4433,-3.187433 -2.30928,-4.49765 0.62653,-0.399521 1.26047,-0.7776099 1.7481,-1.3509619 3.90472,-4.5891983 -3.20728,-6.4362553 -4.21058,-9.76180233 -0.70617,-2.34076897 0.0812,-6.23040897 0.0812,-8.73098597 3.45202,1.17475 1.69677,-1.6763998 1.7534,-3.4395828 0.0363,-1.122628 0.71913,-1.980671 0.57864,-3.175 -0.24157,-2.05158 -1.68989,-3.732213 -1.79229,-5.820834 -0.1479,-3.021542 0.71729,-5.998104 1.00277,-8.995833 0.45879,-4.817005 0.21379,-9.274969 -0.48419,-14.022917 2.33363,-1.285584 6.04917,-2.313226 8.73126,-1.815148 2.23043,0.414258 5.05407,3.292052 7.38452,2.841467 0.80486,-0.155575 1.49542,-1.086882 2.14048,-1.555486 1.93225,2.230702 2.44818,-0.494242 4.49791,-0.568563 0.74798,-0.02712 1.34832,0.568087 2.11667,0.435451 1.05807,-0.182562 1.76239,-1.066826 2.91042,-1.017296 1.26523,0.05458 2.41114,0.669369 3.70416,0.572241 2.16879,-0.162878 4.14814,-1.005788 6.35,-1.009333 3.40466,-0.0055 5.18134,0.972 5.97297,4.497917 0.2495,1.111779 0.24659,3.555471 1.28535,4.242064 1.08188,0.715434 2.34632,-0.834231 2.89163,-1.596495 1.33641,-1.867959 1.28085,-4.28678 2.14762,-6.349736 0.52493,-1.249257 1.58089,-2.018559 1.46077,-3.439583 2.63842,-0.446458 5.76236,0 8.46666,0 h 18.25625 c 2.06137,-0.0033 7.12444,-1.348423 8.83629,0.0074 0.67707,0.536284 0.39714,1.884601 0.46911,2.638478 0.22569,2.369344 0.48392,4.760648 0.48419,7.14375 1.83012,-1.812131 2.46327,-5.271082 3.2631,-7.672917 0.25691,-0.771181 0.48975,-2.670042 1.34858,-2.999846 0.86837,-0.333533 1.97671,0.699771 2.79665,0.919719 2.30188,0.617511 4.79928,0.767503 7.14375,1.233514 2.15821,0.428969 4.41801,0.936122 6.61458,1.087517 6.91145,0.476408 17.35164,-0.797428 20.72191,7.167694 0.59769,1.412346 0.18759,2.799292 0.52758,4.2291 0.99933,4.203436 2.04496,10.379869 0.84375,14.820636 -0.61859,2.285736 -2.96889,4.449763 -2.98688,6.879167 -0.0233,3.157008 2.88766,6.4349308 3.54462,9.5249998 0.49081,2.307431 0.10319,5.05327697 0.10319,7.408334 0,3.804179 0.26458,7.5697292 0.26458,11.3770812"
         id="path5821" /><path
         id="path6981"
         style="fill:#dcceae;fill-opacity:1;stroke:none;stroke-width:0.220275"
         d="m -277.31744,90.066523 c -3.65104,0.827397 -7.74454,0.846184 -11.16463,-0.79221 2.75328,8.718147 0.45403,16.337217 -1.5324,24.824177 -0.0558,-0.0202 -0.10765,-0.0427 -0.16291,-0.0633 v 1.28701 c 0.12734,0.0351 0.25634,0.066 0.38182,0.10562 3.79772,-6.23063 8.26028,-12.28775 12.56064,-18.174837 1.87695,-2.569297 5.69996,-5.843424 6.5951,-8.912312 -0.68687,0.01002 -2.07042,0.157244 -3.02283,0.500977 -0.76424,0.06146 -2.19442,0.893966 -3.65479,1.224875 z" /></g></g></svg>
